<svg id="Capa_1" data-name="Capa 1" xmlns="http://www.w3.org/2000/svg" viewBox="0 0 230 125"><defs><style>.cls-1{fill:#fff;}</style></defs><path class="cls-1" d="M151.47,38.46,148,36.52l6.68-6c4.64-7.62,2.82-14.6-5-18.91a37.36,37.36,0,0,0-12.7-4.07,129.73,129.73,0,0,0-13-1.2H105.06V36.26L91.63,34V19.23A12.46,12.46,0,0,0,79.17,6.77H72.84V71.71h6.83a12,12,0,0,0,12-12V45.43l11.17,1.91A2.71,2.71,0,0,1,105.06,50V68.9a12.57,12.57,0,0,0,12.57,12.57h6.26V16.12l6.2.06a13,13,0,0,1,7.13,2,6.21,6.21,0,0,1,2.47,5.9c-.53,3.61-3.9,5.94-6.81,7.65-1.86,1.1-6.68,3.73-6.68,3.73.2,1.18,1.06,5.51,1.06,5.51a17.55,17.55,0,0,1,1.82.08c4.8.56,8.12,2.59,8.3,8.35v9.45A13.16,13.16,0,0,0,150.54,72h5.4V46.44A13.69,13.69,0,0,0,151.47,38.46Z"/><path class="cls-1" d="M17.8,107.22a7.07,7.07,0,0,0-3.51-.61H7.48v11.91h2V114h5a3,3,0,0,1,1.83.39,2,2,0,0,1,.44,1.54v2.56h2.06v-3a2.71,2.71,0,0,0-.47-1.73,2,2,0,0,0-.87-.57,2.1,2.1,0,0,0,.82-.54,2.16,2.16,0,0,0,.52-1.54v-1.75A2.39,2.39,0,0,0,17.8,107.22Zm-8.34,1H14a5,5,0,0,1,2.32.32,1.25,1.25,0,0,1,.47,1.14V111a1.2,1.2,0,0,1-.49,1.12,5.05,5.05,0,0,1-2.3.33H9.46Z"/><polygon class="cls-1" points="22.12 118.52 32.79 118.52 32.79 116.95 24.1 116.95 24.1 113.16 32.54 113.16 32.54 111.61 24.1 111.61 24.1 108.2 32.79 108.2 32.79 106.61 22.12 106.61 22.12 118.52"/><path class="cls-1" d="M45.42,107.22a7.07,7.07,0,0,0-3.51-.61H35.54v11.91h2V114h4.38a7.06,7.06,0,0,0,3.52-.61,2.46,2.46,0,0,0,1-2.25v-1.75A2.39,2.39,0,0,0,45.42,107.22Zm-7.89,1h4.36a4.34,4.34,0,0,1,2.07.29,1.05,1.05,0,0,1,.42,1v1.7a1.06,1.06,0,0,1-.43,1,4.39,4.39,0,0,1-2.06.29H37.53Z"/><path class="cls-1" d="M59.61,107.22a7.09,7.09,0,0,0-3.51-.61H49.28v11.91h2V114h5a3,3,0,0,1,1.83.39,2,2,0,0,1,.43,1.54v2.56h2.07v-3a2.71,2.71,0,0,0-.47-1.73,2,2,0,0,0-.88-.57,2.14,2.14,0,0,0,.83-.54,2.21,2.21,0,0,0,.52-1.54v-1.75A2.41,2.41,0,0,0,59.61,107.22Zm-8.34,1h4.5a5,5,0,0,1,2.33.32,1.24,1.24,0,0,1,.46,1.14V111a1.21,1.21,0,0,1-.48,1.12,5.11,5.11,0,0,1-2.31.33h-4.5Z"/><polygon class="cls-1" points="63.92 118.52 74.59 118.52 74.59 116.95 65.91 116.95 65.91 113.16 74.35 113.16 74.35 111.61 65.91 111.61 65.91 108.2 74.59 108.2 74.59 106.61 63.92 106.61 63.92 118.52"/><path class="cls-1" d="M85.49,111.81l-4.62-.3a2.24,2.24,0,0,1-1.35-.4,1.79,1.79,0,0,1-.32-1.24,1.7,1.7,0,0,1,.5-1.46,5.66,5.66,0,0,1,2.75-.37,27.05,27.05,0,0,1,3,.1,2,2,0,0,1,1,.3.72.72,0,0,1,.24.4,3.61,3.61,0,0,1,.09.93v.47h2l0-.17c0-.06,0-.14,0-.22v-.36a3.83,3.83,0,0,0-.21-1.35,1.84,1.84,0,0,0-.7-.87,4,4,0,0,0-1.61-.62,19.71,19.71,0,0,0-3.22-.18h-.52a22,22,0,0,0-2.85.13,3.28,3.28,0,0,0-1.33.47,2.64,2.64,0,0,0-.89,1.1,4.46,4.46,0,0,0-.27,1.69,3.1,3.1,0,0,0,.84,2.41,5,5,0,0,0,2.93.84l4.53.28a1.87,1.87,0,0,1,1.19.34c.1.1.27.43.27,1.48a4.81,4.81,0,0,1-.08,1,.75.75,0,0,1-.22.43,1.92,1.92,0,0,1-.94.37,10.37,10.37,0,0,1-1.91.13c-1.53,0-2.55,0-3-.07a3.63,3.63,0,0,1-1-.2,1.08,1.08,0,0,1-.56-.59A4.25,4.25,0,0,1,79,114.8v-.4h-2v.75a4.53,4.53,0,0,0,.28,1.68,2.42,2.42,0,0,0,.88,1.09,3.69,3.69,0,0,0,1.47.59,17.69,17.69,0,0,0,2.92.17h.73a17.7,17.7,0,0,0,3.33-.2,3.3,3.3,0,0,0,1.52-.7,2.34,2.34,0,0,0,.67-1,6,6,0,0,0,.2-1.76,3.08,3.08,0,0,0-.79-2.35A4.4,4.4,0,0,0,85.49,111.81Z"/><polygon class="cls-1" points="92.27 118.52 102.94 118.52 102.94 116.95 94.25 116.95 94.25 113.16 102.69 113.16 102.69 111.61 94.25 111.61 94.25 108.2 102.94 108.2 102.94 106.61 92.27 106.61 92.27 118.52"/><polygon class="cls-1" points="116.16 116.56 108.53 106.69 108.47 106.61 105.69 106.61 105.69 118.52 107.67 118.52 107.67 108.56 115.31 118.45 115.37 118.52 118.15 118.52 118.15 106.61 116.16 106.61 116.16 116.56"/><polygon class="cls-1" points="131.23 106.61 119.86 106.61 119.86 108.2 124.53 108.2 124.53 118.52 126.53 118.52 126.53 108.2 131.23 108.2 131.23 106.61"/><path class="cls-1" d="M138.12,106.61h-2.91l-5.6,11.91h2.09l1.37-3h7.2l1.4,3h2.08l-5.58-11.8Zm-1.31,1.59,2.76,5.86h-5.79l2.74-5.86Z"/><path class="cls-1" d="M156,107.25a7.29,7.29,0,0,0-3.92-.78h-1.71a6.35,6.35,0,0,0-3.93.91,3.94,3.94,0,0,0-1.15,3.23v3.92a3.9,3.9,0,0,0,1.15,3.22,6.35,6.35,0,0,0,3.93.91h1.71a7.11,7.11,0,0,0,3.95-.78,3.24,3.24,0,0,0,1.14-2.83v-.94h-2.05l0,.2c0,.06,0,.13,0,.21s0,.18,0,.32a2.15,2.15,0,0,1-.6,1.79,4.85,4.85,0,0,1-2.6.46h-1.13a10.55,10.55,0,0,1-1.93-.12,2.3,2.3,0,0,1-.91-.4,1.39,1.39,0,0,1-.51-.68,6.16,6.16,0,0,1-.15-1.67v-3.29a6.15,6.15,0,0,1,.15-1.68,1.35,1.35,0,0,1,.51-.69,2.39,2.39,0,0,1,.94-.4,10.61,10.61,0,0,1,1.9-.12H152a4.89,4.89,0,0,1,2.56.45,1.89,1.89,0,0,1,.61,1.64v.5h2v-.69A3,3,0,0,0,156,107.25Z"/><rect class="cls-1" x="160.07" y="106.61" width="2.01" height="11.91"/><path class="cls-1" d="M172.65,106.47h-1.86c-2,0-3.43.3-4.24.91a3.78,3.78,0,0,0-1.24,3.23v3.92a3.77,3.77,0,0,0,1.24,3.23c.81.61,2.2.9,4.24.9h1.86c2,0,3.42-.29,4.23-.9a3.78,3.78,0,0,0,1.25-3.23v-3.92a3.83,3.83,0,0,0-1.22-3.24C176.1,106.77,174.71,106.47,172.65,106.47Zm-5.3,4.47a5.6,5.6,0,0,1,.17-1.65,1.36,1.36,0,0,1,.54-.71,2.94,2.94,0,0,1,1-.41,11.84,11.84,0,0,1,2.15-.13h.91a12,12,0,0,1,2.17.13,2.81,2.81,0,0,1,1,.4,1.4,1.4,0,0,1,.54.7,5.68,5.68,0,0,1,.17,1.66v3.29a5.51,5.51,0,0,1-.17,1.65,1.31,1.31,0,0,1-.52.68,3.12,3.12,0,0,1-1,.42,13.37,13.37,0,0,1-2.17.12h-.91a13.08,13.08,0,0,1-2.15-.12,3.15,3.15,0,0,1-1-.42,1.32,1.32,0,0,1-.54-.69,5.52,5.52,0,0,1-.17-1.64Z"/><polygon class="cls-1" points="191.81 116.56 184.17 106.69 184.12 106.61 181.34 106.61 181.34 118.52 183.32 118.52 183.32 108.56 190.96 118.45 191.02 118.52 193.8 118.52 193.8 106.61 191.81 106.61 191.81 116.56"/><polygon class="cls-1" points="197.51 118.52 208.18 118.52 208.18 116.95 199.49 116.95 199.49 113.16 207.93 113.16 207.93 111.61 199.49 111.61 199.49 108.2 208.18 108.2 208.18 106.61 197.51 106.61 197.51 118.52"/><path class="cls-1" d="M221.73,112.64a4.35,4.35,0,0,0-2.66-.83l-4.61-.3a2.21,2.21,0,0,1-1.35-.4,1.74,1.74,0,0,1-.33-1.24,1.7,1.7,0,0,1,.5-1.46A5.69,5.69,0,0,1,216,108a27.28,27.28,0,0,1,3,.1,2,2,0,0,1,1,.3.77.77,0,0,1,.23.4,3.61,3.61,0,0,1,.09.93v.47h2l0-.17a1.38,1.38,0,0,0,0-.22c0-.09,0-.2,0-.36a3.81,3.81,0,0,0-.22-1.35,1.82,1.82,0,0,0-.69-.87,4.07,4.07,0,0,0-1.62-.62,19.55,19.55,0,0,0-3.22-.18h-.52a22.21,22.21,0,0,0-2.85.13,3.23,3.23,0,0,0-1.32.47,2.49,2.49,0,0,0-.89,1.1,4.46,4.46,0,0,0-.27,1.69,3.06,3.06,0,0,0,.84,2.41,4.94,4.94,0,0,0,2.92.84l4.53.28a1.87,1.87,0,0,1,1.19.34c.1.1.28.43.28,1.48a4.08,4.08,0,0,1-.09,1,.79.79,0,0,1-.21.43,2,2,0,0,1-.94.37,10.44,10.44,0,0,1-1.91.13c-1.54,0-2.56,0-3-.07a3.79,3.79,0,0,1-1-.2,1,1,0,0,1-.55-.59,4.2,4.2,0,0,1-.19-1.45v-.4h-2v.75a4.55,4.55,0,0,0,.27,1.68,2.48,2.48,0,0,0,.88,1.09,3.68,3.68,0,0,0,1.48.59,17.63,17.63,0,0,0,2.91.17h.73a17.7,17.7,0,0,0,3.33-.2,3.3,3.3,0,0,0,1.52-.7,2.36,2.36,0,0,0,.68-1,6,6,0,0,0,.19-1.76A3,3,0,0,0,221.73,112.64Z"/></svg>