<?xml version="1.0" encoding="utf-8"?>
<!-- Generator: Adobe Illustrator 25.4.1, SVG Export Plug-In . SVG Version: 6.00 Build 0)  -->
<svg version="1.1" id="Capa_1" xmlns="http://www.w3.org/2000/svg" xmlns:xlink="http://www.w3.org/1999/xlink" x="0px" y="0px"
	 viewBox="0 0 40 40" style="enable-background:new 0 0 40 40;" xml:space="preserve">
<style type="text/css">
	.st0{fill:#FFFFFF;}
</style>
<path class="st0" d="M12.7,34.8c-0.9-0.9-1-2.4-0.1-3.4c0.9-0.9,2.4-1,3.4-0.1c0.9,0.9,1,2.4,0.1,3.4c-0.4,0.5-1.1,0.7-1.7,0.7
	C13.7,35.5,13.1,35.3,12.7,34.8z M28.4,34.8c-0.9-0.9-1-2.4-0.1-3.4c0.9-0.9,2.4-1,3.4-0.1c0.9,0.9,1,2.4,0.1,3.4
	c-0.4,0.5-1.1,0.7-1.7,0.7C29.4,35.5,28.8,35.3,28.4,34.8z M11.6,9.1l4.7,9.9h11.1c0.2,0,0.5-0.1,0.7-0.2c0.2-0.1,0.4-0.3,0.5-0.5
	l4.4-8c0.2-0.3,0.2-0.6,0-0.8c-0.2-0.2-0.4-0.4-0.7-0.4L11.6,9.1z M11,7.9h21.3c0.7,0,1.3,0.3,1.7,0.9c0.4,0.6,0.4,1.3,0.1,1.9
	L29.6,19c-0.2,0.4-0.5,0.7-0.9,0.9c-0.4,0.2-0.8,0.3-1.2,0.3h-12l-2.1,3.9c-0.2,0.3-0.2,0.8,0,1.1c0.2,0.4,0.5,0.6,0.9,0.6h18V27
	h-18c-0.8,0-1.6-0.4-2-1.1c-0.4-0.7-0.4-1.6,0-2.3l2.6-4.7L8.6,5.7h-3V4.5h3.8L11,7.9z M16.3,19L16.3,19z"/>
</svg>
