<svg id="Capa_1" data-name="Capa 1" xmlns="http://www.w3.org/2000/svg" viewBox="0 0 40 40"><defs><style>.cls-1{fill:#2cb4ae;}</style></defs><path class="cls-1" d="M10.73,35.51a2.58,2.58,0,0,1-2.67-2.67V14.3a2.58,2.58,0,0,1,2.67-2.68H14V10.46a5.76,5.76,0,0,1,1.74-4.23A5.74,5.74,0,0,1,20,4.49a5.74,5.74,0,0,1,4.23,1.74A5.76,5.76,0,0,1,26,10.46v1.16h3.3a2.58,2.58,0,0,1,2.67,2.68V32.84a2.58,2.58,0,0,1-2.67,2.67Zm0-1.25H29.27a1.53,1.53,0,0,0,1.43-1.42V14.3a1.53,1.53,0,0,0-1.43-1.43H26v4.72a.61.61,0,0,1-.18.45.57.57,0,0,1-.44.18.62.62,0,0,1-.63-.63V12.87H15.28v4.72a.62.62,0,0,1-.63.63.57.57,0,0,1-.44-.18.61.61,0,0,1-.18-.45V12.87h-3.3A1.53,1.53,0,0,0,9.3,14.3V32.84a1.53,1.53,0,0,0,1.43,1.42Zm4.55-22.64h9.44V10.46A4.65,4.65,0,0,0,20,5.74a4.65,4.65,0,0,0-4.72,4.72Zm-6,22.64v0Z"/></svg>