<svg id="Capa_1" data-name="Capa 1" xmlns="http://www.w3.org/2000/svg" viewBox="0 0 40 40"><defs><style>.cls-1{fill:#2cb4ae;}</style></defs><path class="cls-1" d="M13.09,34.62C11.3,34,10.4,33.11,10.4,32.06a2,2,0,0,1,.83-1.48,7.09,7.09,0,0,1,2.27-1.21l1,.77a10,10,0,0,0-1.75.85,2.4,2.4,0,0,0-1.07,1c.15.63,1,1.17,2.58,1.64a20.73,20.73,0,0,0,5.76.69,20.78,20.78,0,0,0,5.74-.69c1.59-.47,2.45-1,2.6-1.64-.06-.33-.42-.67-1.1-1a12.73,12.73,0,0,0-1.9-.85l1-.77a7.23,7.23,0,0,1,2.43,1.21,2,2,0,0,1,.85,1.48c0,1-.9,1.9-2.69,2.56a20.35,20.35,0,0,1-6.91,1A20.35,20.35,0,0,1,13.09,34.62Zm7-6a31.26,31.26,0,0,0,6.71-6.89A11.79,11.79,0,0,0,29,15.25c0-3.17-1-5.57-2.89-7.18A9.39,9.39,0,0,0,20,5.65,9.39,9.39,0,0,0,14,8.07C12,9.68,11,12.08,11,15.25a11.61,11.61,0,0,0,2.22,6.45A32.38,32.38,0,0,0,20,28.66Zm0,1.57a34.94,34.94,0,0,1-7.69-7.67,13,13,0,0,1-2.54-7.31,11.28,11.28,0,0,1,.92-4.71,10.59,10.59,0,0,1,2.4-3.39,10.22,10.22,0,0,1,3.3-2.06,9.66,9.66,0,0,1,7.22,0,10.22,10.22,0,0,1,3.3,2.06,10.59,10.59,0,0,1,2.4,3.39,11.28,11.28,0,0,1,.92,4.71,13,13,0,0,1-2.54,7.31A34.94,34.94,0,0,1,20,30.23Zm0-12.52A2.64,2.64,0,0,0,21.91,17a2.74,2.74,0,0,0,0-3.83,2.67,2.67,0,0,0-3.79,0,2.67,2.67,0,0,0,0,3.83A2.62,2.62,0,0,0,20,17.71Z"/></svg>