<?xml version="1.0" encoding="utf-8"?>
<!-- Generator: Adobe Illustrator 25.4.1, SVG Export Plug-In . SVG Version: 6.00 Build 0)  -->
<svg version="1.1" id="Capa_1" xmlns="http://www.w3.org/2000/svg" xmlns:xlink="http://www.w3.org/1999/xlink" x="0px" y="0px"
	 viewBox="0 0 40 40" style="enable-background:new 0 0 40 40;" xml:space="preserve">
<style type="text/css">
	.st0{fill:#FFFFFF;}
</style>
<path class="st0" d="M10.7,35.5c-1.4,0.1-2.6-1.1-2.7-2.5c0-0.1,0-0.1,0-0.2V14.3c-0.1-1.4,1.1-2.6,2.5-2.7c0.1,0,0.1,0,0.2,0H14
	v-1.2c0-1.6,0.6-3.1,1.7-4.2c1.1-1.1,2.7-1.8,4.3-1.7c1.6,0,3.1,0.6,4.2,1.7c1.1,1.1,1.8,2.6,1.8,4.2v1.2h3.3
	c1.4-0.1,2.6,1.1,2.7,2.5c0,0.1,0,0.1,0,0.2v18.5c0.1,1.4-1.1,2.6-2.5,2.7c-0.1,0-0.1,0-0.2,0L10.7,35.5z M10.7,34.3h18.5
	c0.8,0,1.4-0.7,1.4-1.4V14.3c0-0.8-0.7-1.4-1.4-1.4H26v4.7c0,0.2-0.1,0.3-0.2,0.5c-0.1,0.1-0.3,0.2-0.4,0.2c-0.3,0-0.6-0.3-0.6-0.6
	c0,0,0,0,0,0v-4.7h-9.5v4.7c0,0.3-0.3,0.6-0.6,0.6c0,0,0,0,0,0c-0.2,0-0.3-0.1-0.4-0.2c-0.1-0.1-0.2-0.3-0.2-0.5v-4.7h-3.3
	c-0.8,0-1.4,0.7-1.4,1.4v18.5C9.4,33.6,10,34.2,10.7,34.3z M15.3,11.6h9.4v-1.2c0-2.6-2-4.7-4.6-4.7c0,0-0.1,0-0.1,0
	c-2.6,0-4.7,2-4.7,4.6c0,0,0,0.1,0,0.1L15.3,11.6z M9.3,34.3L9.3,34.3z"/>
</svg>
