<svg id="Capa_1" data-name="Capa 1" xmlns="http://www.w3.org/2000/svg" viewBox="0 0 40 40"><defs><style>.cls-1{fill:#2cb4ae;}</style></defs><path class="cls-1" d="M12.7,34.84a2.37,2.37,0,1,1,1.64.66A2.23,2.23,0,0,1,12.7,34.84Zm15.67,0A2.37,2.37,0,1,1,30,35.5,2.23,2.23,0,0,1,28.37,34.84ZM11.62,9.1,16.3,19H27.42a1.31,1.31,0,0,0,.68-.19,1.66,1.66,0,0,0,.51-.54l4.39-8a.81.81,0,0,0,0-.83.78.78,0,0,0-.73-.36ZM11,7.91H32.31A1.9,1.9,0,0,1,34,8.82a1.81,1.81,0,0,1,.06,1.9L29.59,19a2.59,2.59,0,0,1-.87.87,2.3,2.3,0,0,1-1.18.32h-12l-2.13,3.92a1,1,0,0,0,0,1.11,1,1,0,0,0,.95.59h18V27h-18a2.19,2.19,0,0,1-2-1.12,2.16,2.16,0,0,1,0-2.28l2.64-4.69L8.64,5.69h-3V4.5H9.4ZM16.3,19h0Z"/></svg>