<?xml version="1.0" encoding="utf-8"?>
<!-- Generator: Adobe Illustrator 25.4.1, SVG Export Plug-In . SVG Version: 6.00 Build 0)  -->
<svg version="1.1" id="Capa_1" xmlns="http://www.w3.org/2000/svg" xmlns:xlink="http://www.w3.org/1999/xlink" x="0px" y="0px"
	 viewBox="0 0 40 40" style="enable-background:new 0 0 40 40;" xml:space="preserve">
<style type="text/css">
	.st0{fill:#FFFFFF;}
</style>
<path class="st0" d="M13.1,34.6c-1.8-0.6-2.7-1.5-2.7-2.6c0-0.6,0.3-1.1,0.8-1.5c0.7-0.5,1.4-0.9,2.3-1.2l1,0.8
	c-0.6,0.2-1.2,0.5-1.8,0.9c-0.5,0.2-0.8,0.6-1.1,1c0.1,0.6,1,1.2,2.6,1.6c1.9,0.5,3.8,0.7,5.8,0.7c1.9,0,3.9-0.2,5.7-0.7
	c1.6-0.5,2.5-1,2.6-1.6c-0.1-0.3-0.4-0.7-1.1-1c-0.6-0.3-1.2-0.6-1.9-0.9l1-0.8c0.9,0.2,1.7,0.7,2.4,1.2c0.5,0.3,0.8,0.9,0.9,1.5
	c0,1-0.9,1.9-2.7,2.6c-2.2,0.7-4.6,1.1-6.9,1C17.7,35.7,15.3,35.4,13.1,34.6z M20.1,28.6c2.6-1.9,4.8-4.3,6.7-6.9
	c1.4-1.9,2.1-4.1,2.2-6.5c0-3.2-1-5.6-2.9-7.2c-1.7-1.5-3.8-2.4-6.1-2.4c-2.2,0.1-4.3,0.9-6,2.4c-2,1.6-3,4-3,7.2
	c0.1,2.3,0.9,4.6,2.2,6.5C15.1,24.3,17.4,26.7,20.1,28.6L20.1,28.6z M20.1,30.2c-2.9-2.1-5.5-4.7-7.7-7.7c-1.6-2.1-2.5-4.7-2.5-7.3
	c0-1.6,0.3-3.2,0.9-4.7c0.6-1.3,1.4-2.4,2.4-3.4c1-0.9,2.1-1.6,3.3-2.1c2.3-0.9,4.9-0.9,7.2,0C24.9,5.5,26,6.2,27,7.1
	c1,1,1.8,2.1,2.4,3.4c0.6,1.5,1,3.1,0.9,4.7c-0.1,2.6-1,5.2-2.5,7.3C25.6,25.5,23,28.1,20.1,30.2L20.1,30.2z M20.1,17.7
	c0.7,0,1.3-0.2,1.8-0.7c1-1.1,1-2.8,0-3.8c-1-1-2.7-1.1-3.8,0c0,0,0,0,0,0c-1.1,1-1.1,2.7-0.1,3.8c0,0,0,0,0.1,0.1
	C18.6,17.5,19.3,17.7,20.1,17.7L20.1,17.7z"/>
</svg>
