<svg id="Capa_1" data-name="Capa 1" xmlns="http://www.w3.org/2000/svg" viewBox="0 0 137 90"><defs><style>.cls-1{fill:#fff;fill-rule:evenodd;}</style></defs><path class="cls-1" d="M20.34,54.74H36.1V48.81H14.41V69.92h5.76V54.83l.17-.09Z"/><path class="cls-1" d="M14.42,28.08H57.51l.09,0a16.92,16.92,0,0,1-.05,33.84H46.86V40.49h6V56h4.83a11.06,11.06,0,0,0-.09-22.11H20.17v6.57H36.06l0,5.93H14.41V28.08Zm86.3-7.77,26,43.88L130.47,58,107.4,20.31ZM74,69.92l26.7-44.47,22,36.43H92.37V56.2h19.7l-11.37-19L82.06,69.92Z"/><path class="cls-1" d="M126.75,64.19H92.37v5.74h31l0-.13,3.33-5.59ZM38.43,64l0-23.51h5.95V64.05H57.55A19.13,19.13,0,0,0,57.6,25.8H12.29V69.92H6.53V20.08H57.64A24.71,24.71,0,0,1,82,40.05L94,20.31h6.68L80,55l-2,3.4c-4.46,6.53-11.85,11.39-20.36,11.46H38.43V64Z"/></svg>