<svg id="Capa_1" data-name="Capa 1" xmlns="http://www.w3.org/2000/svg" viewBox="0 0 90 90"><defs><style>.cls-1{fill:#fff;}</style></defs><path class="cls-1" d="M13.11,41.77a10.78,10.78,0,0,0,2,1.11A17.44,17.44,0,0,0,21,44.05a66.66,66.66,0,0,0,14.44-1.2,128.58,128.58,0,0,0,16.28-3.92,91.81,91.81,0,0,0,17.41-7.1A30,30,0,0,0,77,26.12a8.23,8.23,0,0,0,2-3.29,3.59,3.59,0,0,0-1.29-4.08,7.49,7.49,0,0,0-3.6-1.49c-.8-.13-1.62-.17-2.43-.22-.15,0-.31.14-.46.21a2.23,2.23,0,0,0,.45.25,4.6,4.6,0,0,0,.64.05,9,9,0,0,1,4.22,1.3A3.11,3.11,0,0,1,77.65,23a5.8,5.8,0,0,1-.52.91,16.61,16.61,0,0,1-4.78,4.25s-.07,0-.1,0c-.18-1-.32-2.1-.54-3.14a22.83,22.83,0,0,0-4-8.82c-.2-.26-.61-.56-.86-.52s-.52.46-.64.77c-.4,1-.73,2-1.09,3-.28.75-.55,1.51-.87,2.37-.15-.3-.24-.46-.32-.64L58.1,7.65a3.68,3.68,0,0,0-.51-.91A.74.74,0,0,0,57,6.53c-.18.06-.32.34-.4.55a1.59,1.59,0,0,0,0,.58v27.2a2.26,2.26,0,0,1,0,.52c0,.13-.12.31-.23.34-1.45.51-2.92,1-4.43,1.52V8.8c.81.25,1.55.5,2.31.71s1,0,1-.76c0-.52,0-1,0-1.57,0-1.23-.1-1.46-1.3-1.77C52,4.91,50,4.51,48.06,4.12a18.82,18.82,0,0,0-2.25-.21C45,3.86,44.67,4.16,44.67,5c0,.64,0,1.28,0,1.92a.68.68,0,0,0,.66.79c.58.07,1.15.15,1.73.2.82.08.82.07.82.89V37.61c0,.12,0,.24,0,.35,0,.33-.12.48-.44.56-.81.19-1.61.42-2.41.63l-1.33.32c0-1.86,0-3.62,0-5.38a4.81,4.81,0,0,0-2.59-4.64c-1.19-.69-2.35-1.44-3.55-2.11a2.17,2.17,0,0,1-1.2-2.12c0-4.73,0-9.46,0-14.19a2.17,2.17,0,0,1,2.16-2.42c.46,0,.75.12.78.62,0,.21,0,.42,0,.63V24.05c0,.21,0,.42,0,.64a.68.68,0,0,0,.69.71c.86,0,1.71,0,2.56,0a.65.65,0,0,0,.66-.73c0-.2,0-.39,0-.58V5.84c0-.2,0-.39,0-.59a1.12,1.12,0,0,0-1-1.17,3.41,3.41,0,0,0-1.15,0A20.59,20.59,0,0,0,34,6.49a3.06,3.06,0,0,0-1.7,3c0,5.58,0,11.16,0,16.74a4.78,4.78,0,0,0,2.46,4.48c1.24.72,2.45,1.5,3.69,2.2A2.13,2.13,0,0,1,39.69,35c0,1.5,0,3,0,4.48,0,1,0,1-.92,1.13s-1.61.3-2.49.45v-.74c0-1.49,0-3,0-4.48,0-.7-.2-.89-.9-.91s-1.28,0-1.91,0c-.92,0-1.11.21-1.11,1.15,0,1.7,0,3.41,0,5.11,0,.19-.17.51-.31.54-.87.16-1.75.25-2.73.37v-.88q0-15.34,0-30.69c0-.29-.12-.76-.31-.83s-.63.08-1,.16a1,1,0,0,0-.28.21A26.59,26.59,0,0,0,19,22.46a25,25,0,0,0-1.11,11.23,19,19,0,0,0,1.35,5.44c.27.63.55.77,1.19.57s1.17-.4,1.75-.62.74-.45.58-1.11c-.23-.94-.5-1.87-.69-2.81s-.28-1.85-.42-2.84c1.13,0,2.14,0,3.14,0,.52,0,.65.15.65.66,0,2.92,0,5.85,0,8.77v.6a3.38,3.38,0,0,1-.57.07c-2-.06-4.1-.06-6.14-.23a10.37,10.37,0,0,1-4.24-1.3c-2.57-1.45-3.18-3.84-1.51-6.27A20,20,0,0,1,15,32.34c.14-.15.26-.31.38-.46l-.11-.15a2,2,0,0,0-.51.16,9.6,9.6,0,0,0-3,2.92A4.94,4.94,0,0,0,13.11,41.77ZM60.59,23.44a5.75,5.75,0,0,1,.3.5c.9,1.86,1.79,3.73,2.71,5.58.12.24.41.4.62.59a2.62,2.62,0,0,0,.54-.62c.71-1.65,1.39-3.31,2.09-5,.06-.15.14-.3.21-.45l.18,0A19.07,19.07,0,0,1,68,26.41c.21,1.22.31,2.46.41,3.69a.74.74,0,0,1-.31.59c-2.41,1.13-4.84,2.23-7.26,3.34a.72.72,0,0,1-.21,0ZM25.35,28.35H21.71c-.41-2,2.21-9.26,3.64-10.09Z"/><path class="cls-1" d="M43.7,55.55q0-6,0-12c0-.18,0-.36,0-.56-1.25.27-2.44.52-3.62.81a.6.6,0,0,0-.35.45c0,.68,0,1.36,0,2,0,1.86,0,3.72,0,5.58,0,.91-.2,1.09-1.12,1a3.65,3.65,0,0,1-.46-.07c-1.46-.35-1.82-.79-1.82-2.29v-6l-3.92.6v.67c0,2.09,0,4.19,0,6.28a3.42,3.42,0,0,0,2.19,3.53,20.62,20.62,0,0,0,7.27,1.84C43.08,57.47,43.69,56.84,43.7,55.55Z"/><path class="cls-1" d="M60.56,37.81c-1.31.48-2.56.92-3.8,1.4-.12,0-.22.33-.22.51q0,7,0,14.06c0,.78.41,1.06,1.13.75s1.3-.69,2-1a1.66,1.66,0,0,0,1-1.69c0-4.46,0-8.91,0-13.37Z"/><path class="cls-1" d="M48.91,57.13a17.71,17.71,0,0,0,1.76-.36c1-.27,1.14-.45,1.14-1.49q0-6.95,0-13.88v-.63c-1.29.36-2.49.69-3.69,1.06-.12,0-.24.33-.24.51q0,7,0,13.93C47.89,57,48.18,57.24,48.91,57.13Z"/><path class="cls-1" d="M72.38,32.14c-1.45.81-2.77,1.53-4.07,2.28a.73.73,0,0,0-.25.48,18,18,0,0,1-1.71,5.28c-.89,1.69-1.91,3.31-2.89,5-.42.69-.42.95.17,1.45l1.22,1c.77.6,1,.57,1.62-.18a26.18,26.18,0,0,0,5.31-11.16C72.05,34.91,72.18,33.57,72.38,32.14Z"/><path class="cls-1" d="M25.39,45.69c0,1.08,0,2.06,0,3a1.76,1.76,0,0,0,.48,1.08,27.87,27.87,0,0,0,2.36,2,.87.87,0,0,0,.74.13.92.92,0,0,0,.29-.68c0-1.16,0-2.32,0-3.48V45.4Z"/><rect class="cls-1" x="12.24" y="68.33" width="0.53" height="5.01"/><polygon class="cls-1" points="15.37 68.33 14.94 68.33 14.94 73.33 15.47 73.33 15.47 69.27 18.69 73.33 19.12 73.33 19.12 68.33 18.6 68.33 18.6 72.39 15.37 68.33"/><polygon class="cls-1" points="22.79 73.33 22.79 68.78 24.55 68.78 24.55 68.33 20.5 68.33 20.5 68.78 22.26 68.78 22.26 73.33 22.79 73.33"/><polygon class="cls-1" points="29.48 72.88 26.46 72.88 26.46 71.02 29.05 71.02 29.05 70.57 26.46 70.57 26.46 68.78 29.37 68.78 29.37 68.33 25.93 68.33 25.93 73.33 29.48 73.33 29.48 72.88"/><path class="cls-1" d="M34.93,71a1.63,1.63,0,0,0,.25-.92,1.6,1.6,0,0,0-.25-.92,1.57,1.57,0,0,0-.7-.59,2.64,2.64,0,0,0-1.1-.2H31.26v5h.53V71.75h1.34a2.58,2.58,0,0,0,.4,0l1.15,1.63h.58L34,71.6a1.29,1.29,0,0,0,.21-.06A1.55,1.55,0,0,0,34.93,71Zm-1.81.34H31.79V68.78h1.33a1.72,1.72,0,0,1,1.14.33,1.3,1.3,0,0,1,0,1.86A1.72,1.72,0,0,1,33.12,71.3Z"/><polygon class="cls-1" points="37.4 68.33 36.97 68.33 36.97 73.33 37.5 73.33 37.5 69.27 40.72 73.33 41.15 73.33 41.15 68.33 40.63 68.33 40.63 72.39 37.4 68.33"/><path class="cls-1" d="M43.67,72h2.8l.59,1.34h.56l-2.29-5h-.52l-2.29,5h.55Zm1.4-3.13,1.2,2.7H43.86Z"/><polygon class="cls-1" points="50.24 73.33 50.24 68.78 52 68.78 52 68.33 47.95 68.33 47.95 68.78 49.71 68.78 49.71 73.33 50.24 73.33"/><rect class="cls-1" x="53.38" y="68.33" width="0.53" height="5.01"/><path class="cls-1" d="M55.83,69.82a2.56,2.56,0,0,0-.19,1,2.46,2.46,0,0,0,.74,1.82,2.63,2.63,0,0,0,.84.54,3,3,0,0,0,1.05.19,2.91,2.91,0,0,0,1-.19,2.79,2.79,0,0,0,.84-.53,2.53,2.53,0,0,0,.55-.81,2.83,2.83,0,0,0,0-2,2.48,2.48,0,0,0-.55-.8,2.63,2.63,0,0,0-.84-.54,2.91,2.91,0,0,0-1-.19,3,3,0,0,0-1.05.19,2.63,2.63,0,0,0-.84.54A2.53,2.53,0,0,0,55.83,69.82Zm1.6-.91a2.32,2.32,0,0,1,.84-.15,2.23,2.23,0,0,1,.83.15,1.91,1.91,0,0,1,.67.44,2,2,0,0,1,.44.65,2.27,2.27,0,0,1,.16.83,2.23,2.23,0,0,1-.16.83,2.12,2.12,0,0,1-.44.66,2,2,0,0,1-.67.43,2.23,2.23,0,0,1-.83.16,2.32,2.32,0,0,1-.84-.16,2,2,0,0,1-.67-.43,1.91,1.91,0,0,1-.44-.67,2,2,0,0,1-.16-.82,2.08,2.08,0,0,1,.16-.83,1.83,1.83,0,0,1,.44-.65A1.91,1.91,0,0,1,57.43,68.91Z"/><polygon class="cls-1" points="66.28 72.39 63.06 68.33 62.62 68.33 62.62 73.33 63.15 73.33 63.15 69.27 66.37 73.33 66.81 73.33 66.81 68.33 66.28 68.33 66.28 72.39"/><path class="cls-1" d="M69.32,72h2.8l.6,1.34h.55l-2.29-5h-.52l-2.29,5h.55Zm1.4-3.13,1.21,2.7H69.51Z"/><polygon class="cls-1" points="74.64 68.33 74.64 73.33 77.98 73.33 77.98 72.88 75.17 72.88 75.17 68.33 74.64 68.33"/><polygon class="cls-1" points="29.91 84.7 27.74 80.99 27.3 80.99 27.3 86 27.81 86 27.81 82.02 29.78 85.36 30.03 85.36 32 81.99 32 86 32.5 86 32.5 80.99 32.07 80.99 29.91 84.7"/><polygon class="cls-1" points="35.2 83.68 37.79 83.68 37.79 83.23 35.2 83.23 35.2 81.45 38.1 81.45 38.1 80.99 34.67 80.99 34.67 86 38.21 86 38.21 85.54 35.2 85.54 35.2 83.68"/><polygon class="cls-1" points="42.61 84.7 40.43 80.99 39.99 80.99 39.99 86 40.5 86 40.5 82.02 42.47 85.36 42.72 85.36 44.69 81.99 44.69 86 45.2 86 45.2 80.99 44.76 80.99 42.61 84.7"/><path class="cls-1" d="M50.82,83.51l-.32-.1.08,0a1.13,1.13,0,0,0,.71-1.11,1.1,1.1,0,0,0-.47-1A2.11,2.11,0,0,0,49.53,81H47.36v5h2.31a2.36,2.36,0,0,0,1.41-.35,1.16,1.16,0,0,0,.47-1,1.29,1.29,0,0,0-.19-.72A1.16,1.16,0,0,0,50.82,83.51Zm-1.33-2.08a1.64,1.64,0,0,1,.93.22.86.86,0,0,1,0,1.37,1.64,1.64,0,0,1-.93.22h-1.6V81.43Zm1.18,3.91a1.87,1.87,0,0,1-1,.22H47.89V83.68h1.77a1.86,1.86,0,0,1,1,.23.78.78,0,0,1,.35.71A.8.8,0,0,1,50.67,85.34Z"/><polygon class="cls-1" points="53.83 83.68 56.41 83.68 56.41 83.23 53.83 83.23 53.83 81.45 56.73 81.45 56.73 80.99 53.3 80.99 53.3 86 56.84 86 56.84 85.54 53.83 85.54 53.83 83.68"/><path class="cls-1" d="M61.59,84.21a1.57,1.57,0,0,0,.7-.59,1.59,1.59,0,0,0,.25-.91,1.66,1.66,0,0,0-.25-.93,1.55,1.55,0,0,0-.7-.58,2.63,2.63,0,0,0-1.1-.21H58.62v5h.53V84.41h1.34c.15,0,.27,0,.4,0L62,86h.58l-1.23-1.73ZM60.48,84H59.15V81.45h1.33a1.72,1.72,0,0,1,1.14.33,1.29,1.29,0,0,1,0,1.85A1.72,1.72,0,0,1,60.48,84Z"/><rect class="cls-1" x="2.16" y="76.01" width="85.67" height="0.56"/></svg>