<svg id="Capa_1" data-name="Capa 1" xmlns="http://www.w3.org/2000/svg" viewBox="0 0 90 90"><defs><style>.cls-1{fill:#fff;fill-rule:evenodd;}</style></defs><path class="cls-1" d="M38.2,73.19a27,27,0,0,1-2.84.15,28.34,28.34,0,0,1,0-56.68,27,27,0,0,1,2.84.15v8.5a19.24,19.24,0,0,0-2.84-.15,19.84,19.84,0,0,0,0,39.68,19.24,19.24,0,0,0,2.84-.15Z"/><path class="cls-1" d="M83,73.19a26.69,26.69,0,0,1-2.83.15,28.34,28.34,0,0,1,0-56.68,26.69,26.69,0,0,1,2.83.15v8.5a19.1,19.1,0,0,0-2.83-.15A19.85,19.85,0,0,0,60.76,40.75H77.31v8.5H60.76A19.85,19.85,0,0,0,80.14,64.84,19.1,19.1,0,0,0,83,64.69Z"/></svg>