<svg id="Capa_1" data-name="Capa 1" xmlns="http://www.w3.org/2000/svg" viewBox="0 0 90 90"><defs><style>.cls-1{fill:#fff;}</style></defs><path class="cls-1" d="M74,16.05A40.94,40.94,0,0,0,16.05,74,40.94,40.94,0,0,0,74,16.05ZM45,85.42A40.42,40.42,0,1,1,85.42,45,40.46,40.46,0,0,1,45,85.42Z"/><path class="cls-1" d="M45,73.1A28.1,28.1,0,1,0,16.9,45,28.12,28.12,0,0,0,45,73.1Zm0-55.68A27.58,27.58,0,1,1,17.42,45,27.61,27.61,0,0,1,45,17.42Z"/><path class="cls-1" d="M52.38,35.52a5.18,5.18,0,0,0-2.62,3.61c-.53,2.41-.39,5.27,1.46,7.08a8.8,8.8,0,0,0,8.11,1.53,3.42,3.42,0,0,0,.85-.28l.08,0a5.7,5.7,0,0,0,2.32-1.75,8.75,8.75,0,0,0,.66-7.57,5.08,5.08,0,0,0-1.94-2.31A9.3,9.3,0,0,0,52.38,35.52Zm6.09,3A3.27,3.27,0,0,1,58.79,40a23.76,23.76,0,0,1-.11,3.47,1.49,1.49,0,0,1-.89,1.1,3,3,0,0,1-2.53-.15,2.25,2.25,0,0,1-.75-1.78,11.68,11.68,0,0,1,.21-3.89,1.87,1.87,0,0,1,1.8-1A2.28,2.28,0,0,1,58.47,38.52Z"/><path class="cls-1" d="M35.79,47.82V44.69c-.63,0-1.35,0-2-.06V38l0-.06,1.91,0c0-1.08,0-2.24,0-3.22l-7.27,0-1.2,0c0,1,0,2.18,0,3.2.65,0,1.27,0,1.91.06v6.45l0,.27-1.91,0c0,1.06,0,2.09,0,3.13Z"/><path class="cls-1" d="M57.23,49.24a15,15,0,0,1-2.95,3.15c0,.06-.16,0-.2,0-.48-.3-1-.55-1.47-.85a15.36,15.36,0,0,0,1.68-2.3h-.6a12.72,12.72,0,0,1-1.62,2.07,21,21,0,0,0-2.49-.87l-.09-.08A10.57,10.57,0,0,0,50,49.22h-.52l-.52,1a25.13,25.13,0,0,0-3.56-.46c-.06-.17,0-.42-.06-.57h-.5c0,.23.06.4,0,.59a23,23,0,0,0-3.48.42l-.52-1a1.57,1.57,0,0,0-.54,0l.48,1.12-.06.06a24.79,24.79,0,0,0-2.55.89l-.07,0a14.63,14.63,0,0,1-1.49-1.88c-.1-.32-.48-.13-.7-.17a17.43,17.43,0,0,0,1.7,2.34c-.52.3-1,.64-1.58.89a13.68,13.68,0,0,1-3-3.21,2.57,2.57,0,0,0-.62,0,15.08,15.08,0,0,0,5.81,5.18,0,0,0,0,1,0,0s.06,0,0,.06A16,16,0,0,0,43,56a15.21,15.21,0,0,0,14.87-6.72A3.21,3.21,0,0,0,57.23,49.24Zm-8,1.71,0,0a10.61,10.61,0,0,1,2.36.82,12.22,12.22,0,0,1-2.14,1.82c-.45.26-.89.55-1.36.78L47.27,54l0-.13A22.17,22.17,0,0,0,49.18,51Zm-3.81-.57a14.94,14.94,0,0,1,3.23.38l0,.06a20,20,0,0,1-1.95,2.94,5.34,5.34,0,0,1-1-.11l-.33,0C45.33,52.49,45.31,51.5,45.37,50.38Zm-3.72.34a16.65,16.65,0,0,1,3.12-.34l0,3.21c-.4.09-.85.09-1.23.19a16.58,16.58,0,0,1-2-3Zm-3.11,1a12.89,12.89,0,0,1,2.35-.84l.08,0a28.71,28.71,0,0,0,2,3c-.27.15-.6.24-.87.4a13,13,0,0,1-3.51-2.55ZM41,55a13.85,13.85,0,0,1-4.52-2.12v-.06a11.12,11.12,0,0,1,1.43-.8,19.78,19.78,0,0,0,3.47,2.68A1.4,1.4,0,0,1,41,55Zm7.16.25a14.72,14.72,0,0,1-6.37,0c0-.09.1-.11.15-.17a6,6,0,0,1,6.36.09C48.39,55.24,48.23,55.2,48.19,55.24Zm1.86-.53-.91.28a2.08,2.08,0,0,1-.43-.3l0-.06A16.83,16.83,0,0,0,52.17,52a8,8,0,0,1,1.49.82A13.14,13.14,0,0,1,50.05,54.71Z"/><path class="cls-1" d="M32.84,33.21a17.08,17.08,0,0,1,1.56-1.88,10.47,10.47,0,0,1,1.51-1.28c.5.33,1.06.6,1.55.9a17.62,17.62,0,0,0-1.67,2.27,1.14,1.14,0,0,0,.58,0,15.59,15.59,0,0,1,1.63-2c.83.31,1.64.63,2.49.86l.07.07-.48,1.1a1.75,1.75,0,0,0,.56,0c.17-.32.31-.68.5-1a19,19,0,0,0,3.5.42c.15.13,0,.41.1.58h.52c.05-.18,0-.39.05-.56a19.3,19.3,0,0,0,3.39-.44l.09,0,.52,1a1.35,1.35,0,0,0,.54,0l-.48-1.1,0,0A21.19,21.19,0,0,0,52,31.14a17.81,17.81,0,0,1,1.66,2.08,2.14,2.14,0,0,0,.58,0,7.76,7.76,0,0,0-.83-1.2,8.84,8.84,0,0,0-.85-1v-.1l1.35-.78.19-.07a13.9,13.9,0,0,1,3.05,3.17,1.42,1.42,0,0,0,.62,0,15.29,15.29,0,0,0-11.47-6.72l0,0,0,0a9,9,0,0,0-1.72,0,4.33,4.33,0,0,0-.71,0,15.14,15.14,0,0,0-11.57,6.77A2.15,2.15,0,0,0,32.84,33.21Zm8-1.67h-.07a14.79,14.79,0,0,1-2.3-.77l0-.12a15.22,15.22,0,0,1,3.41-2.48c.29.11.58.21.87.34l0,.15A23.74,23.74,0,0,0,40.85,31.54Zm3.85.51A7.51,7.51,0,0,1,43.13,32a11.22,11.22,0,0,1-1.7-.3,17.12,17.12,0,0,1,2-3l1.24.17C44.74,29.86,44.7,31,44.7,32.05Zm.59,0c0-1,0-2.13,0-3.17l1.2-.17a16,16,0,0,1,2,3A14.13,14.13,0,0,1,45.29,32.07Zm6.17-1.33a13.38,13.38,0,0,1-2.36.8,30.9,30.9,0,0,0-2-3c.27-.15.6-.27.89-.42a13.69,13.69,0,0,1,3.49,2.54ZM49,27.49a13.68,13.68,0,0,1,4.54,2.13l0,.08-1.33.73h-.1a16.82,16.82,0,0,0-3.43-2.61C48.66,27.68,48.85,27.59,49,27.49Zm-.77-.19v0a5.88,5.88,0,0,1-6.18.21c-.1-.08-.29-.11-.31-.25A14.51,14.51,0,0,1,48.21,27.3ZM36.43,29.66a13.8,13.8,0,0,1,4-2c.06-.06.1-.12.17-.12v0c.16,0,.27-.13.41,0s.25.17.35.27a19.55,19.55,0,0,0-3.46,2.67,6.74,6.74,0,0,1-1.47-.79Z"/><path class="cls-1" d="M44.93,35.18c-2.13-.89-5.1-1-7,.4a3.81,3.81,0,0,0-1.31,4,4.24,4.24,0,0,0,2.82,2.85c1.71.61,3.51,1,5.25,1.63.17.08.4.25.37.46s-.18.26-.31.34a5.15,5.15,0,0,1-5.1-1.25c-.16-.19-.25-.42-.41-.61l-2.6,0c0,1.54-.06,3.3,0,4.82l2.89,0,0-.91c.33.15.66.34,1,.51a8.07,8.07,0,0,0,6.58,0,3.9,3.9,0,0,0,2-4,4.58,4.58,0,0,0-3.32-3.47L41.12,38.6l-.34-.18a.54.54,0,0,1-.22-.51c.37-.62,1.22-.43,1.86-.42A4.74,4.74,0,0,1,46,39.37c.85,0,1.84,0,2.76,0,0-1.55,0-2.92,0-4.49-.86,0-1.93,0-2.8,0a3.33,3.33,0,0,1,0,.77Z"/><path class="cls-1" d="M29.8,59.24c-1,0-1.57.5-1.57,1.37v1c0,.8.39,1.24,1.15,1.24a1,1,0,0,0,.93-.47h0v1c0,.52-.2.66-.57.66a.46.46,0,0,1-.53-.53v-.2h-1v.14c0,.87.53,1.37,1.54,1.37s1.57-.5,1.57-1.41V60.61C31.36,59.74,30.81,59.24,29.8,59.24Zm.53,2.29a.47.47,0,0,1-.53.54.48.48,0,0,1-.54-.54v-1c0-.39.21-.53.54-.53a.46.46,0,0,1,.53.53Z"/><path class="cls-1" d="M33.52,59.24c-1,0-1.56.5-1.56,1.37v2.82c0,.87.55,1.37,1.56,1.37s1.57-.5,1.57-1.37V60.61C35.09,59.74,34.54,59.24,33.52,59.24Zm.54,4.25c0,.39-.21.53-.54.53a.47.47,0,0,1-.53-.53V60.55a.47.47,0,0,1,.53-.53c.33,0,.54.14.54.53Z"/><path class="cls-1" d="M37.23,59.24c-1,0-1.56.5-1.56,1.37v2.82c0,.87.55,1.37,1.56,1.37s1.57-.5,1.57-1.37V60.61C38.8,59.74,38.24,59.24,37.23,59.24Zm.54,4.25c0,.39-.21.53-.54.53a.46.46,0,0,1-.53-.53V60.55a.46.46,0,0,1,.53-.53c.33,0,.54.14.54.53Z"/><path class="cls-1" d="M40.1,60v.61h.79v4.15h1V59.3h-.69C41.07,59.67,40.89,60,40.1,60Z"/><rect class="cls-1" x="43.17" y="60.96" width="0.99" height="0.82"/><rect class="cls-1" x="43.17" y="63.92" width="0.99" height="0.82"/><path class="cls-1" d="M46.71,62.76c.95-.85,1.27-1.43,1.27-2.15s-.52-1.37-1.54-1.37-1.53.5-1.53,1.37v.52h1v-.58c0-.39.21-.53.54-.53s.53.13.53.62-.22,1-1,1.7-1,1.12-1,1.73v.67h3V64h-2a.45.45,0,0,1,0-.11C45.93,63.56,46.1,63.3,46.71,62.76Z"/><path class="cls-1" d="M50.1,59.24c-1,0-1.57.5-1.57,1.37v2.82c0,.87.55,1.37,1.57,1.37s1.56-.5,1.56-1.37V60.61C51.66,59.74,51.11,59.24,50.1,59.24Zm.53,4.25a.47.47,0,0,1-.53.53c-.33,0-.54-.14-.54-.53V60.55c0-.39.21-.53.54-.53a.47.47,0,0,1,.53.53Z"/><path class="cls-1" d="M53,60v.61h.8v4.15h1V59.3h-.7C53.93,59.67,53.76,60,53,60Z"/><path class="cls-1" d="M57.91,61a1,1,0,0,0-.89.4h0l.08-1.3h1.8V59.3H56.17L56,62.45h1v-.16a.46.46,0,0,1,.53-.53c.33,0,.54.14.54.53v1.2c0,.39-.21.53-.54.53a.46.46,0,0,1-.53-.53V63H56v.45c0,.87.53,1.37,1.54,1.37s1.54-.5,1.54-1.37V62.22C59.06,61.42,58.67,61,57.91,61Z"/><path class="cls-1" d="M21.8,24.71c.9.9,2,.88,3-.16s1.08-2.1.19-3l-.75-.75-1,1,.8.81a.78.78,0,0,1-1.11,1.1l-3-3.05A.78.78,0,1,1,21,19.55l.6.6,1-1-.54-.55c-.9-.9-2-.88-3,.16s-1.08,2.1-.19,3Z"/><polygon class="cls-1" points="31.64 19.35 31.04 18.39 28.83 19.76 27.6 17.78 29.36 16.69 28.76 15.72 27 16.82 25.83 14.93 28.04 13.56 27.44 12.59 23.95 14.76 28.14 21.52 31.64 19.35"/><path class="cls-1" d="M35.11,17.9l-1-3.07.49-.17c.65-.21,1-.05,1.26.65l.4,1.18a2,2,0,0,0,.44.88l1.46-.49a2,2,0,0,1-.47-.86l-.39-1.16c-.27-.79-.69-1.27-1.49-1.28v0a1.53,1.53,0,0,0,.42-1.83l-.2-.59c-.39-1.17-1.22-1.52-2.7-1l-2.16.72,2.55,7.54Zm-1.5-6.69c.51-.17.81,0,1,.53l.25.74c.21.6-.05.91-.59,1.09l-.55.18-.79-2.31Z"/><polygon class="cls-1" points="40.71 9.59 41.38 16.38 42.88 16.23 42.21 9.45 43.78 9.29 43.67 8.16 39.03 8.62 39.15 9.75 40.71 9.59"/><rect class="cls-1" x="43.83" y="11.55" width="7.96" height="1.51" transform="translate(31.51 58.9) rotate(-85.16)"/><polygon class="cls-1" points="53.22 13.94 55.1 14.46 55.4 13.36 53.52 12.85 54.16 10.53 56.55 11.19 56.85 10.09 53.01 9.04 50.9 16.71 52.35 17.11 53.22 13.94"/><rect class="cls-1" x="55.32" y="14.71" width="7.96" height="1.51" transform="translate(19.51 62.07) rotate(-64.13)"/><polygon class="cls-1" points="63.89 23.11 64.57 22.2 62.48 20.65 63.87 18.77 65.53 20.01 66.2 19.1 64.54 17.86 65.86 16.08 67.95 17.64 68.63 16.72 65.33 14.27 60.59 20.66 63.89 23.11"/><path class="cls-1" d="M73.16,21.33l-1.54-1.82-6.07,5.14,1.54,1.82c1,1.15,2,1.27,3,.44l3.07-2.6C74.09,23.49,74.14,22.47,73.16,21.33Zm-1,1.79L69,25.8a.68.68,0,0,1-1.09-.08l-.55-.65,4.34-3.68.55.65A.66.66,0,0,1,72.18,23.12Z"/><path class="cls-1" d="M24.21,66.06c-1-1.17-2.13-1.29-3.14-.41l-3.3,2.84c-1,.88-1.07,2-.05,3.17s2.12,1.29,3.14.41l.84-.72-1-1.14-.9.78a.73.73,0,0,1-1.16-.09.71.71,0,0,1,.08-1.15l3.43-3A.82.82,0,0,1,23.24,68l-.68.58,1,1.14.62-.53C25.17,68.35,25.22,67.24,24.21,66.06Z"/><path class="cls-1" d="M29.82,71c-1.3-.86-2.43-.69-3.17.42l-2.41,3.63c-.74,1.11-.46,2.22.84,3.08s2.42.7,3.17-.42l2.41-3.62C31.4,73,31.11,71.87,29.82,71Zm-.44,2.14-2.5,3.76A.82.82,0,1,1,25.51,76L28,72.24a.82.82,0,1,1,1.37.91Z"/><polygon class="cls-1" points="36.07 80.42 36.04 80.41 36.52 74.38 34.39 73.79 32.15 81.85 33.49 82.22 35.07 76.52 35.1 76.53 34.63 82.54 36.07 82.94 38.7 77.44 38.73 77.45 37.13 83.23 38.57 83.63 40.81 75.57 38.68 74.98 36.07 80.42"/><path class="cls-1" d="M46.24,75.65l-2.33.09.31,8.37,1.58-.06-.11-3.15.75,0c1.58-.06,2.33-.82,2.28-2.16l0-1.09C48.63,76.29,47.83,75.59,46.24,75.65Zm.15,4-.75,0-.1-2.83.75,0c.5,0,.78.16.8.76l0,1.25C47.16,79.46,46.9,79.66,46.39,79.68Z"/><path class="cls-1" d="M52.2,74.76l1,8.47,1.39-.44-.19-1.53,1.85-.59L56.94,82l1.53-.48-4.06-7.5Zm2,5.35-.56-4.26h0l2,3.81Z"/><polygon class="cls-1" points="61.33 70.35 64.14 74.5 64.11 74.52 59.98 71.26 58.33 72.38 63.02 79.31 64.2 78.51 60.81 73.49 60.83 73.47 65.84 77.41 67.19 76.5 62.5 69.56 61.33 70.35"/><polygon class="cls-1" points="68 63.57 67.03 64.73 69.2 68.09 69.19 68.11 65.49 66.59 64.43 67.87 70.01 69.9 72.15 71.68 73.16 70.46 71.03 68.69 68 63.57"/></svg>