<svg id="Capa_1" data-name="Capa 1" xmlns="http://www.w3.org/2000/svg" viewBox="0 0 90 90"><defs><style>.cls-1{fill:#fff;}</style></defs><polygon class="cls-1" points="12.18 44.96 12.89 46.38 14.5 46.65 13.28 47.76 13.56 49.34 12.17 48.58 10.73 49.34 11.04 47.72 9.87 46.6 11.45 46.37 12.18 44.96"/><path class="cls-1" d="M4.91,44.79H5.8A39.2,39.2,0,0,1,45,5.78h.24A39.25,39.25,0,0,1,84.21,45v.24h0A39.2,39.2,0,0,1,45,84.23h-.26A39.17,39.17,0,0,1,5.8,45.1v-.3H4v.32A41,41,0,0,0,44.76,86H45A41,41,0,0,0,86,45.23h0V45A41,41,0,0,0,45.25,4H45A41,41,0,0,0,4,44.78h.89Z"/><path class="cls-1" d="M15.7,37.87l0,1.08a2.31,2.31,0,0,1-.45,1.18l-.84.83a2.89,2.89,0,0,1-1.09.39H12.17A4.17,4.17,0,0,1,10.93,41L10,40.23l-.58-1a2.89,2.89,0,0,1-.08-1.33L9.62,37l.51-.73.72-.45,1-.15-.14.79-.63.12-.52.31-.35.55L10,38l.07,1,.45.72.79.52.92.27.93,0,.84-.27.71-.55.33-.88V38l-.32-.71-.6-.46-.77-.24-.31,1.94-.68-.11.44-2.69,3.23.52-.08.54-.8.07Z"/><path class="cls-1" d="M13.56,33.76,13,33.09l-.19-.82.19-.92.53-.82.68-.48.87-.09.9.22.8.46.54.65.2.83-.17,1-.51.79-.7.46-.87.12-.9-.21Zm1.82-.09.6-.08.46-.3.32-.48.09-.53-.13-.53-.42-.46-.61-.38L15,30.73l-.61.1-.49.27-.29.47-.06.55.1.54.39.47.63.38Z"/><path class="cls-1" d="M15.89,28.37l-.41-.75-.1-.84.36-.9.67-.72.78-.31.85,0,.87.37.68.62.44.74,0,.84-.35.91-.62.71-.81.3-.86,0L16.58,29Zm1.79.24.6,0,.52-.22.41-.39.14-.51,0-.58-.28-.52-.57-.49-.67-.27-.62,0-.49.21-.4.39-.18.52,0,.52.3.55.56.49Z"/><path class="cls-1" d="M23.7,23.11l-.43-.42v.83l-.44.72-.75.54-.82.14-.81-.24-.74-.52-.61-.65-.27-.82.08-.82.42-.78.3-.23L20,20.6l.42-.11h.47v0l-1.7-1.53.5-.56,4.56,4.19ZM20.77,24l.56.16.57-.09.53-.37.3-.54v-.57L22.5,22l-.37-.44-.53-.39L21,21l-.58.06-.57.36-.3.58v.6l.24.53.44.46Z"/><polygon class="cls-1" points="25.43 13.8 29.69 17.36 28.84 11.88 29.82 11.3 32.87 16.71 32.18 17.1 29.63 12.59 29.63 12.62 30.47 18.05 29.87 18.42 25.63 14.88 28.14 19.37 27.48 19.77 24.43 14.37 25.43 13.8"/><path class="cls-1" d="M37.81,15.33l-.5,0L37,14.83l-.55.7-.77.4-.56.12L34.6,16l-.41-.29-.28-.52-.07-.64.23-.47.38-.36.51-.3.51-.24.48-.24.27-.22v-.36L36,12l-.28-.14h-.35l-.34.06-.7.39-.13.73-.7.22-.05-.72.28-.56.49-.41.67-.3.6-.12h.57l.48.26.31.57.67,2.24.16.33.21,0,.19-.07.18.53Zm-1.65-1.89-.42.18-.49.23-.39.25-.21.33v.45l.16.28.24.14.31,0,.31-.05.56-.29.33-.36.13-.39,0-.36-.21-.7Z"/><path class="cls-1" d="M39.39,10.36l.09.68a1.68,1.68,0,0,1,1.36-1l.77.06.5.29.33.45.14.7.36,2.92-.73.08-.37-3-.31-.66-.69-.15-.58.15-.38.35-.2.48v.58L40,14.82l-.72.06-.55-4.47Z"/><polygon class="cls-1" points="47.4 14.58 47.47 13.88 47.43 13.88 46.79 14.47 45.93 14.58 45.2 14.45 44.77 14.07 44.51 13.54 44.46 12.87 44.66 9.93 45.38 9.99 45.22 13.01 45.41 13.69 46.07 13.95 46.66 13.88 47.07 13.61 47.36 13.19 47.47 12.64 47.63 10.11 48.36 10.13 48.1 14.64 47.4 14.58"/><polygon class="cls-1" points="49.63 11 49.79 10.36 50.53 10.46 50.65 9.86 51.13 9.1 52.08 8.99 52.33 9.04 52.54 9.16 52.41 9.78 52.22 9.71 52.01 9.64 51.57 9.66 51.36 10.03 51.26 10.64 52.11 10.82 52.01 11.4 51.13 11.29 50.41 15.08 49.7 14.92 50.41 11.14 49.63 11"/><path class="cls-1" d="M55.43,16.6l-.37-.29v-.57l-.82.29-.89-.14-.55-.22-.35-.37-.19-.46.09-.59.31-.56.46-.25.51-.07.58.05.57.1.5.09.36-.08.22-.26,0-.4-.12-.28-.29-.2-.32-.15-.8-.07-.51.52-.72-.22.39-.6.53-.31.65-.05.71.11.56.26.44.34.25.47,0,.66-.72,2.18-.1.36.15.2.25.05-.21.52Zm-.25-2.45-.49-.1-.48-.1h-.47l-.39.12-.23.4,0,.28.1.25.23.2.31.15.62.1.48-.1.35-.23.16-.3.22-.72Z"/><path class="cls-1" d="M60.94,15.09l-.52-.57-.69-.15-.56.14-.48.37-.34.54-.22.55,0,.58.15.53.46.43.93.11.7-.52.69.34a2.07,2.07,0,0,1-1.17.85,1.8,1.8,0,0,1-1.43-.24l-.72-.54-.37-.76v-.82l.33-.89.55-.75.72-.5.8-.17.92.3.61.45.36.51.2.62-.2.72-.68-.33Z"/><polygon class="cls-1" points="65.28 17.03 64.87 17.55 64.18 17.03 62.54 19.3 62.42 19.47 62.42 19.63 62.54 19.77 62.76 19.98 63.03 20.13 62.63 20.68 62.18 20.35 61.82 20.02 61.62 19.69 61.62 19.35 61.89 18.93 63.56 16.6 62.95 16.15 63.35 15.6 63.96 16.07 64.73 14.98 65.35 15.42 64.55 16.48 65.28 17.03"/><polygon class="cls-1" points="65.63 23.38 66.15 22.86 66.15 22.83 65.28 22.88 64.53 22.41 64.08 21.84 63.96 21.29 64.15 20.71 64.53 20.18 66.59 18.05 67.09 18.57 65 20.73 64.73 21.39 65.03 22.03 65.53 22.37 66.05 22.46 66.54 22.28 66.98 21.96 68.75 20.11 69.26 20.6 66.15 23.86 65.63 23.38"/><path class="cls-1" d="M71,22.66l-.77.6v0a1.73,1.73,0,0,1,1.06,0l.8.62-.6.5-.58-.52-.58-.19-.62.17-.66.38-1.59,1.26L67,24.92l3.54-2.79Z"/><path class="cls-1" d="M73.08,25.57,69.28,28l-.36-.63,3.73-2.49Zm.26-1.09.73-.49.4.63-.73.5Z"/><path class="cls-1" d="M74.41,27.81l-.66.31,0,0a1.45,1.45,0,0,1,1.34.94l.22.7-.1.58-.32.47-.59.35L71.72,32.5l-.34-.67,2.71-1.35.52-.52-.08-.71-.38-.49-.45-.21-.5,0-.55.18-2.26,1.12L70,29.16l4-2Z"/><path class="cls-1" d="M72,37.44a2.09,2.09,0,0,1-1-1.36l-.1-.65.06-.61.24-.54.52-.37.24.74-.29.19-.15.35,0,.37.08.37.3.56.43.3.56.1.69-.12.28-.11-.75-.37-.43-.75-.06-.88.34-.75.56-.54.8-.37.84-.14L76,33l.7.44.48.89,0,.79-.37.7.61-.17.19.67L73.7,37.44a2.39,2.39,0,0,1-1.74,0m1.68-1.5.49.28.62.1.61-.1.56-.22.43-.38.23-.47v-.6L76.26,34l-.45-.28-.59,0-.6.09-.56.23-.5.37-.24.45,0,.64Z"/><path class="cls-1" d="M80.14,44.31a1.84,1.84,0,0,1-.47,1.41,1.68,1.68,0,0,1-1.34.51A1.88,1.88,0,0,1,77,45.77a1.85,1.85,0,0,1-.49-1.42l0-1.87H73.91v-.81l6.21-.08Zm-3-.26a1.51,1.51,0,0,0,.28,1l.86.31.81-.33a1.31,1.31,0,0,0,.32-1V42.43l-2.33,0Z"/><polygon class="cls-1" points="78.06 48.82 77.11 48.69 77.83 49.46 77.89 50.46 77.11 50.36 77.11 49.6 76.84 49.03 76.34 48.69 75.56 48.47 73.59 48.16 73.7 47.44 78.15 48.11 78.06 48.82"/><path class="cls-1" d="M72.12,53.83l.29-.41H73l-.3-.82.1-.87.2-.56.39-.4.46-.19.56.07.58.3.28.46,0,.52v.57l-.07.59,0,.48,0,.35.28.22.39,0,.29-.19.2-.28.14-.31,0-.82L76,52.06l.2-.69.65.36.27.53.1.67-.11.69-.23.59-.34.46-.47.24-.67,0-2.19-.65-.38-.08-.19.14,0,.27-.52-.19Zm2.46-.35.09-.49.06-.49V52l-.15-.37-.35-.25-.34,0-.25.14-.19.23-.11.32-.11.59.14.51.22.35.31.18.72.22Z"/><path class="cls-1" d="M73.8,59.34l.52-.55.18-.68-.18-.59-.38-.41-.57-.37-.57-.19-.56-.06-.52.2-.43.49-.09.91.52.7-.29.65a2.09,2.09,0,0,1-.89-1.1,1.81,1.81,0,0,1,.21-1.44l.54-.73.74-.4.82,0,.87.3.81.53.49.68.17.87-.25.92-.41.56L74,60l-.62.18-.73-.13.38-.7Z"/><polygon class="cls-1" points="72.01 63.66 71.45 63.28 71.96 62.56 69.66 61.01 69.47 60.92 69.32 60.92 69.2 61.01 69.03 61.26 68.84 61.55 68.26 61.17 68.59 60.68 68.92 60.31 69.2 60.12 69.55 60.12 70.01 60.35 72.34 61.98 72.8 61.31 73.34 61.69 72.94 62.32 74.01 63.08 73.59 63.68 72.49 62.92 72.01 63.66"/><path class="cls-1" d="M70.68,65.34l-3.49-2.82.49-.58,3.49,2.83Zm1.11,0,.7.52-.45.59-.7-.55Z"/><path class="cls-1" d="M67,68.13l.7-.35.37-.58,0-.61-.25-.52-.43-.55L67,65.14,66.47,65H65.9l-.5.35-.39.78.27.86-.55.5a2.23,2.23,0,0,1-.46-1.36A2,2,0,0,1,65,64.8l.75-.47.78-.17.79.26L68,65l.58.78.22.81-.09.84-.54.8-.56.41-.63.22-.64-.06-.66-.36.58-.52Z"/><path class="cls-1" d="M60.23,69a2.18,2.18,0,0,1,.84-1l.86-.38h.83l.76.38.68.7.38.85,0,.87-.27.77-.58.63-1,.39-.9-.18-.76-.5-.52-.66L63.4,69,63,68.55l-.49-.25-.53,0-.6.29-.52.61,0,.74-.6.44A2.05,2.05,0,0,1,60.23,69M62,71.3l.45.16H63l.48-.2.38-.35.14-.48V70l-.18-.46-2.16,1.45Z"/><path class="cls-1" d="M54.21,77.2l1.19-.07.81-.49.45-.76.12-.86-.2-.93-.4-.91-.62-.68-.79-.34-1,.12-.64.37-.4.53-.2.66.07.71-.74.27a2.73,2.73,0,0,1,.17-2,2.47,2.47,0,0,1,1.59-1.19l1.27-.17,1.06.35.82.81.59,1.14A5.68,5.68,0,0,1,57.58,75l-.2,1.19-.68,1-1.08.63-.93.16-.85-.12-.75-.44-.57-.74.79-.26Z"/><path class="cls-1" d="M46.71,73.43a2.27,2.27,0,0,1,1.22-.53l.94.08.74.39.48.69.25.92,0,1-.36.79-.61.55-.8.27-1-.13-.69-.52-.44-.8-.17-.85,3.36-.4-.15-.56-.32-.42-.48-.28-.62,0-.72.32-.34.69-.73.09a1.81,1.81,0,0,1,.51-1.21m.52,2.86.33.36.43.2.5,0,.49-.17.36-.31.24-.43,0-.5-2.56.3Z"/><polygon class="cls-1" points="44.16 77.69 44.16 76.72 44.16 76.72 43.46 77.52 42.49 77.75 42.49 77.01 43.27 76.85 43.78 76.51 44.05 75.93 44.16 75.2 44.23 73.17 44.95 73.18 44.85 77.69 44.16 77.69"/><polygon class="cls-1" points="39.48 77.33 39.54 76.67 40.46 76.79 40.75 74 40.75 73.81 40.72 73.65 40.56 73.58 40.26 73.54 39.92 73.51 39.99 72.84 40.56 72.92 41.03 73.01 41.34 73.18 41.53 73.51 41.53 74.04 41.2 76.85 41.95 76.95 41.88 77.61 41.11 77.52 40.93 78.84 40.21 78.76 40.38 77.41 39.48 77.33"/><path class="cls-1" d="M37.92,77.87l-.14.86L37,78.57l.18-.87Zm-.54-1,.9-4.42.73.16L38.1,77.1Z"/><polygon class="cls-1" points="36.37 76.05 36.18 76.65 35.45 76.45 35.25 77.1 34.76 77.81 33.77 77.81 33.53 77.72 33.33 77.61 33.52 77.01 33.71 77.1 33.87 77.18 34.32 77.2 34.6 76.85 34.77 76.24 33.91 75.99 34.08 75.36 34.95 75.6 36.01 71.95 36.73 72.14 35.65 75.83 36.37 76.05"/><path class="cls-1" d="M32.49,76.31l-.32.89-.69-.28.34-.85Zm-.42-1,1.64-4.23.68.29-1.61,4.18Z"/><path class="cls-1" d="M28.3,72.62l.55.56.65.19.58-.13.47-.39.38-.54.18-.6.06-.54-.2-.53-.47-.41-.87-.15-.72.56-.67-.36a2,2,0,0,1,1.15-.86,2.33,2.33,0,0,1,1.44.25l.69.56.39.71v.85l-.32.87-.55.77-.73.51-.81.12-.92-.25L28,73.38l-.41-.53-.12-.6.12-.72.7.33Z"/><path class="cls-1" d="M25.43,66l.22.4-.14.55.87,0,.78.38.44.42.21.44,0,.5-.25.54-.51.42-.55.1-.49-.11-.49-.25L25,69.16l-.42-.22-.36-.1L24,69l-.18.38.05.31L24,70l.28.23.74.33.65-.32.62.47-.57.45-.58.09-.69-.16-.56-.37-.47-.4-.33-.47L23,69.36l.26-.64,1.41-1.85.22-.3-.1-.23-.21-.08.34-.49Zm-.59,2.42.45.24.41.24.46.18h.38l.38-.27.13-.27,0-.29L26.87,68l-.23-.21-.55-.34-.47,0-.4.12-.3.2-.47.6Z"/><polygon class="cls-1" points="19.79 66.91 20.25 66.46 20.86 67.08 22.85 65.1 23 64.95 23 64.8 22.95 64.66 22.73 64.43 22.5 64.2 22.95 63.74 23.38 64.13 23.69 64.51 23.82 64.86 23.7 65.18 23.42 65.59 21.36 67.62 21.91 68.16 21.45 68.6 20.93 68.07 19.96 68.98 19.42 68.5 20.39 67.55 19.79 66.91"/><path class="cls-1" d="M18.22,66.34l-.7.62-.46-.59.69-.59Zm.15-1,3.45-2.91.47.59-3.45,2.84Z"/><path class="cls-1" d="M18.33,63.16l-.89.06-.74-.32L16,62.23l-.39-.92.06-.83.42-.77.71-.6.85-.37.83-.07.79.29.66.69.35.93v.81l-.42.74-.68.62Zm1-1.54.29-.56,0-.53L19.41,60l-.36-.37-.54-.21h-.6l-.68.35-.53.45-.29.55,0,.55.21.51.36.42.5.21.65-.09.67-.29Z"/><path class="cls-1" d="M13.72,57.9l.67-.29h0a1.52,1.52,0,0,1-1.29-1l-.21-.72.16-.58.38-.41.57-.36,2.73-1.12.28.69-2.8,1.16-.54.47.05.71.32.5.46.28.48.06.56-.13,2.35-1,.26.7L14,58.54Z"/><path class="cls-1" d="M60.27,33.67H58v4.1h2.31c1.42,0,2.64-.33,2.64-2.07S61.69,33.67,60.27,33.67Z"/><path class="cls-1" d="M43.13,55.46c0,.6.81.79,1.3.79S46,56,46,55.05V54a5.58,5.58,0,0,1-1.67.36C43.7,54.49,43.13,54.71,43.13,55.46Z"/><path class="cls-1" d="M29.77,49.55c-1.88,0-2.68,1.62-2.68,3.26s.8,3.35,2.68,3.35l1-.21-.88-.78.75-.84,1,.93a3.86,3.86,0,0,0,.75-2.45C32.39,51.17,31.64,49.55,29.77,49.55Z"/><path class="cls-1" d="M44.71,17.79A26,26,0,1,0,70.59,44,26,26,0,0,0,44.71,17.79Zm-7.1,13.56h4.21L45,40.73h0l3-9.38h4.26V45H49.5v-9.7h0L46.1,45H43.8l-3.35-9.58h-.07V45H37.61ZM22.48,38.22c0-4,2.48-7.22,6.71-7.22A5.53,5.53,0,0,1,35,35.82H32.07a2.77,2.77,0,0,0-2.88-2.26c-2.68,0-3.73,2.26-3.73,4.66s1.05,4.58,3.73,4.58a2.92,2.92,0,0,0,3.24-2.95h-3V37.6h5.74V45H33.25l-.31-1.51a4.61,4.61,0,0,1-3.75,1.83C25,45.31,22.48,42.17,22.48,38.22Zm11.35,18.9-.77.84-1.24-1.1a4.38,4.38,0,0,1-2.05.53c-2.61,0-4.15-2.11-4.15-4.58s1.54-4.52,4.15-4.52,4.14,2.07,4.14,4.52a4.76,4.76,0,0,1-1.22,3.36Zm6.84.06H39.28v-.89h0a2.13,2.13,0,0,1-1.82,1c-1.6,0-2.31-.82-2.31-2.45v-4H36.5v3.84c0,1.11.48,1.52,1.2,1.52,1.17,0,1.55-.74,1.55-1.7V50.89h1.42Zm7.38,0-.88.14c-.58,0-1-.17-1.08-.76a3.08,3.08,0,0,1-2.19.76c-1.11,0-2.16-.58-2.16-1.8,0-1.6,1.27-1.83,2.46-2,1-.21,1.87-.09,1.87-.92s-.74-.84-1.3-.84c-.78,0-1.33.32-1.41,1H42c.08-1.62,1.46-2.09,2.85-2.09s2.54.5,2.54,1.83v3.23l.32.48.34,0Zm2.26,0H48.9V48.49h1.41Zm3,0H51.83V50.89h1.44Zm0-7.4H51.83V48.5h1.44Zm4.5,2.11H56.55v3.37c0,.58,0,.9.67.9l.55-.08v1.1l-.87.06c-1.47,0-1.72-.56-1.72-1.61V51.89h-1.1v-1h1.1V49h1.37v1.9h1.22Zm4.12,5.63c-.45,1.15-.79,2.13-2.23,2.13l-1-.06V58.4l.69.12c.61,0,.79-.37.95-.88l.17-.49-2.41-6.26h1.57l1.63,4.66h0l1.58-4.66h1.46ZM61.1,40.09H58V45h-3V31.35H61.1c3.41,0,4.73,2.15,4.73,4.35S64.51,40.09,61.1,40.09Z"/></svg>