<svg id="Capa_1" data-name="Capa 1" xmlns="http://www.w3.org/2000/svg" viewBox="0 0 100 100"><defs><style>.cls-1{fill:#fff;}</style></defs><path class="cls-1" d="M61.07,54.6c-.28-.11-.5-.2-.82-.35-1.13-.43-2.3-.9-3.48-1.33a1,1,0,0,0-1.28.39c-.51.78-1.06,1.59-1.61,2.34a.94.94,0,0,1-1.19.34,15.74,15.74,0,0,1-8.47-6.39.87.87,0,0,1,.07-1.29,9.83,9.83,0,0,0,1.31-2,1.29,1.29,0,0,0,0-1c-.78-1.55-1.59-3-2.36-4.69a2.79,2.79,0,0,0-.56-.58,3.55,3.55,0,0,0-3.1.67,6.44,6.44,0,0,0-1.71,6.43A13.24,13.24,0,0,0,41,52.46,23.84,23.84,0,0,0,54.29,61a6,6,0,0,0,2.46.15A3.83,3.83,0,0,0,58.31,61c2.11-.76,3.91-2.13,3.91-4.59C62.27,55.17,62.27,55.1,61.07,54.6Z"/><path class="cls-1" d="M70.33,12H29.67a4.59,4.59,0,0,0-4.58,4.58V82.42A4.59,4.59,0,0,0,29.67,87H70.33a4.59,4.59,0,0,0,4.58-4.58V16.58A4.59,4.59,0,0,0,70.33,12Zm.78,70.42a.78.78,0,0,1-.78.78H29.67a.78.78,0,0,1-.78-.78V16.58a.78.78,0,0,1,.78-.78H70.33a.78.78,0,0,1,.78.78Z"/></svg>