<svg id="Capa_1" data-name="Capa 1" xmlns="http://www.w3.org/2000/svg" viewBox="0 0 132 100"><defs><style>.cls-1{fill:#fff;}</style></defs><path class="cls-1" d="M125.26,9H8.47a3.86,3.86,0,0,0-3.85,3.85V83.34a3.85,3.85,0,0,0,3.85,3.84H125.26a3.84,3.84,0,0,0,3.84-3.84V12.85A3.85,3.85,0,0,0,125.26,9Zm-1.13,73.22H9.59V14H124.13Z"/><path class="cls-1" d="M16.75,27.7,33.5,35.21l26,11.66c1.76.78,3.51,1.59,5.27,2.36,1.45.63,2.56.2,3.84-.36l3.18-1.39L97,36.44l12.66-5.55c2.32-1,4.7-1.95,7-3.05l.32-.14c1.48-.65,1.82-2.81,1.07-4.08A3.06,3.06,0,0,0,114,22.55L97.3,29.84,70.87,41.41l-4.57,2L51.57,36.81,25.72,25.22l-6-2.67a3.07,3.07,0,0,0-4.08,1.07A3,3,0,0,0,16.75,27.7Z"/></svg>