<svg id="Capa_1" data-name="Capa 1" xmlns="http://www.w3.org/2000/svg" viewBox="0 0 100 100"><defs><style>.cls-1{fill:#fff;}</style></defs><path class="cls-1" d="M54.83,42.37a16.81,16.81,0,0,1,2.73-3.44,16,16,0,0,1,11.5-4.5,22,22,0,0,1,9.8,2,14.83,14.83,0,0,1,7.78,10.94,49.08,49.08,0,0,1,1,10.61V83.92c0,.75-.22,1-1,1H73.28c-.81,0-1-.18-1-1V59.36a26.51,26.51,0,0,0-.5-5.18,7.13,7.13,0,0,0-7.87-6.31c-.23,0-.46.06-.69.11a8.21,8.21,0,0,0-7.84,8.22,32,32,0,0,0-.25,3.91V83.89c0,.81-.22,1-1,1H40.87c-.74,0-.9-.21-.9-.93V36.73c0-.81.25-1,1-1H53.65c.81,0,1,.25,1,1V42.4Z"/><path class="cls-1" d="M30.33,60.17V83.74c0,.77-.19,1-1,1H16c-.71,0-.93,0-.93-.9V36.54c0-.65,0-.9.84-.9H29.46c.78,0,.9.28.9,1C30.33,44.45,30.33,52.32,30.33,60.17Z"/><path class="cls-1" d="M13.89,20.07a8.84,8.84,0,1,1,8.84,8.84h0A8.88,8.88,0,0,1,13.89,20.07Z"/></svg>