<svg id="Capa_1" data-name="Capa 1" xmlns="http://www.w3.org/2000/svg" xmlns:xlink="http://www.w3.org/1999/xlink" viewBox="0 0 220 190"><defs><style>.cls-1{fill:none;}.cls-2{fill:#0e4997;}.cls-3{fill:#fff;}.cls-4{fill:url(#Nueva_muestra_de_motivo_1);}.cls-5{fill:#3cc;}</style><pattern id="Nueva_muestra_de_motivo_1" data-name="Nueva muestra de motivo 1" width="44.64" height="44.64" patternTransform="translate(-28.12 -21.41) scale(0.71)" patternUnits="userSpaceOnUse" viewBox="0 0 44.64 44.64"><rect class="cls-1" width="44.64" height="44.64"/><rect class="cls-2" width="44.64" height="44.64"/></pattern></defs><path class="cls-3" d="M18.62,170.46a6.6,6.6,0,0,0-3.26-.56H9V181h1.85v-4.18h4.67a2.75,2.75,0,0,1,1.7.36,1.92,1.92,0,0,1,.41,1.44V181h1.92v-2.75a2.5,2.5,0,0,0-.44-1.61,2,2,0,0,0-.81-.54,1.89,1.89,0,0,0,.77-.49,2.07,2.07,0,0,0,.48-1.44v-1.62A2.23,2.23,0,0,0,18.62,170.46Zm-7.75.91h4.19a4.67,4.67,0,0,1,2.16.3,1.16,1.16,0,0,1,.43,1.06V174A1.15,1.15,0,0,1,17.2,175a4.81,4.81,0,0,1-2.14.3H10.87Z"/><polygon class="cls-3" points="22.63 180.97 32.55 180.97 32.55 179.5 24.48 179.5 24.48 175.98 32.33 175.98 32.33 174.54 24.48 174.54 24.48 171.38 32.55 171.38 32.55 169.9 22.63 169.9 22.63 180.97"/><path class="cls-3" d="M44.3,170.46A6.58,6.58,0,0,0,41,169.9H35.12V181H37V176.8H41a6.57,6.57,0,0,0,3.27-.56,2.29,2.29,0,0,0,.94-2.1v-1.62A2.23,2.23,0,0,0,44.3,170.46Zm-7.34.91H41a4.11,4.11,0,0,1,1.93.27,1,1,0,0,1,.38.92v1.58a1,1,0,0,1-.4.92,4.07,4.07,0,0,1-1.91.27H37Z"/><path class="cls-3" d="M57.49,170.46a6.58,6.58,0,0,0-3.26-.56H47.89V181h1.85v-4.18h4.68a2.79,2.79,0,0,1,1.7.36,1.92,1.92,0,0,1,.4,1.44V181h1.92v-2.75a2.56,2.56,0,0,0-.43-1.61,2,2,0,0,0-.82-.54,1.83,1.83,0,0,0,.77-.49,2.07,2.07,0,0,0,.48-1.44v-1.62A2.23,2.23,0,0,0,57.49,170.46Zm-7.75.91h4.19a4.63,4.63,0,0,1,2.16.3,1.16,1.16,0,0,1,.43,1.06V174a1.15,1.15,0,0,1-.45,1.05,4.81,4.81,0,0,1-2.14.3H49.74Z"/><polygon class="cls-3" points="61.51 180.97 71.43 180.97 71.43 179.5 63.35 179.5 63.35 175.98 71.2 175.98 71.2 174.54 63.35 174.54 63.35 171.38 71.43 171.38 71.43 169.9 61.51 169.9 61.51 180.97"/><path class="cls-3" d="M81.56,174.72l-4.3-.28a2.08,2.08,0,0,1-1.25-.36,1.65,1.65,0,0,1-.3-1.15,1.57,1.57,0,0,1,.47-1.36,5.15,5.15,0,0,1,2.55-.35,27,27,0,0,1,2.75.09,2,2,0,0,1,.93.28.7.7,0,0,1,.22.38,3.61,3.61,0,0,1,.08.86v.43h1.85v-.15c0-.06,0-.13,0-.21v-.33a3.52,3.52,0,0,0-.2-1.25,1.7,1.7,0,0,0-.64-.82,4,4,0,0,0-1.5-.57,18.42,18.42,0,0,0-3-.17h-.48a19.14,19.14,0,0,0-2.65.13,3.05,3.05,0,0,0-1.23.43,2.34,2.34,0,0,0-.83,1,4.1,4.1,0,0,0-.25,1.57,2.83,2.83,0,0,0,.78,2.24,4.62,4.62,0,0,0,2.72.79l4.21.26a1.72,1.72,0,0,1,1.11.31c.09.1.25.4.25,1.38a4.3,4.3,0,0,1-.07.9.75.75,0,0,1-.21.4,1.81,1.81,0,0,1-.87.35,10.18,10.18,0,0,1-1.78.11c-1.42,0-2.37,0-2.82-.06a3,3,0,0,1-1-.19.94.94,0,0,1-.52-.55,3.94,3.94,0,0,1-.17-1.34v-.38H73.61v.7a4.13,4.13,0,0,0,.26,1.56,2.1,2.1,0,0,0,.82,1,3.35,3.35,0,0,0,1.37.56,16.93,16.93,0,0,0,2.71.15h.68a16.54,16.54,0,0,0,3.09-.18,3.07,3.07,0,0,0,1.42-.65,2.08,2.08,0,0,0,.62-1,5.23,5.23,0,0,0,.19-1.64A2.83,2.83,0,0,0,84,175.5,4.13,4.13,0,0,0,81.56,174.72Z"/><polygon class="cls-3" points="87.86 180.97 97.78 180.97 97.78 179.5 89.71 179.5 89.71 175.98 97.55 175.98 97.55 174.54 89.71 174.54 89.71 171.38 97.78 171.38 97.78 169.9 87.86 169.9 87.86 180.97"/><polygon class="cls-3" points="110.08 179.15 102.98 169.96 102.93 169.9 100.34 169.9 100.34 180.97 102.19 180.97 102.19 171.7 109.29 180.9 109.34 180.97 111.93 180.97 111.93 169.9 110.08 169.9 110.08 179.15"/><polygon class="cls-3" points="124.09 169.9 113.52 169.9 113.52 171.38 117.86 171.38 117.86 180.97 119.72 180.97 119.72 171.38 124.09 171.38 124.09 169.9"/><path class="cls-3" d="M130.5,169.9h-2.7L122.59,181h1.94l1.27-2.75h6.7l1.3,2.75h1.94l-5.19-11Zm-1.22,1.47,2.57,5.45h-5.39l2.55-5.45Z"/><path class="cls-3" d="M147.13,170.49a6.68,6.68,0,0,0-3.64-.73h-1.6a5.89,5.89,0,0,0-3.65.85,3.67,3.67,0,0,0-1.07,3v3.64a3.65,3.65,0,0,0,1.07,3,5.89,5.89,0,0,0,3.65.85h1.6a6.62,6.62,0,0,0,3.67-.73,3,3,0,0,0,1.06-2.63v-.87h-1.91l0,.18a1.27,1.27,0,0,1,0,.2,2.45,2.45,0,0,1,0,.3,2,2,0,0,1-.56,1.66,4.54,4.54,0,0,1-2.41.43h-1.06a10.23,10.23,0,0,1-1.79-.11,2.36,2.36,0,0,1-.85-.37,1.36,1.36,0,0,1-.47-.64,5.83,5.83,0,0,1-.14-1.56v-3.05a6,6,0,0,1,.14-1.57,1.29,1.29,0,0,1,.47-.63,2.16,2.16,0,0,1,.87-.37,9.35,9.35,0,0,1,1.77-.12h1.06a4.53,4.53,0,0,1,2.38.42,1.77,1.77,0,0,1,.56,1.52v.47h1.9V173A2.84,2.84,0,0,0,147.13,170.49Z"/><rect class="cls-3" x="150.91" y="169.9" width="1.87" height="11.07"/><path class="cls-3" d="M162.6,169.76h-1.72a6.75,6.75,0,0,0-3.95.85,3.51,3.51,0,0,0-1.15,3v3.64a3.52,3.52,0,0,0,1.15,3,6.85,6.85,0,0,0,3.95.84h1.72a6.83,6.83,0,0,0,3.94-.84,3.52,3.52,0,0,0,1.16-3v-3.64a3.53,3.53,0,0,0-1.14-3A6.82,6.82,0,0,0,162.6,169.76Zm-4.92,4.16a5.4,5.4,0,0,1,.15-1.54,1.31,1.31,0,0,1,.51-.65,2.77,2.77,0,0,1,1-.39,11.45,11.45,0,0,1,2-.12h.84a11.59,11.59,0,0,1,2,.12,2.62,2.62,0,0,1,1,.37,1.34,1.34,0,0,1,.51.66,5.4,5.4,0,0,1,.15,1.54V177a5.34,5.34,0,0,1-.15,1.55,1.33,1.33,0,0,1-.49.63,2.91,2.91,0,0,1-1,.38,11.45,11.45,0,0,1-2,.12h-.84a11.45,11.45,0,0,1-2-.12,2.68,2.68,0,0,1-1-.38,1.36,1.36,0,0,1-.51-.65,5.32,5.32,0,0,1-.15-1.53Z"/><polygon class="cls-3" points="180.42 179.15 173.32 169.96 173.27 169.9 170.68 169.9 170.68 180.97 172.53 180.97 172.53 171.7 179.63 180.9 179.68 180.97 182.27 180.97 182.27 169.9 180.42 169.9 180.42 179.15"/><polygon class="cls-3" points="185.72 180.97 195.64 180.97 195.64 179.5 187.57 179.5 187.57 175.98 195.41 175.98 195.41 174.54 187.57 174.54 187.57 171.38 195.64 171.38 195.64 169.9 185.72 169.9 185.72 180.97"/><path class="cls-3" d="M208.24,175.5a4.11,4.11,0,0,0-2.47-.78l-4.29-.28a2.09,2.09,0,0,1-1.26-.36,1.65,1.65,0,0,1-.3-1.15,1.57,1.57,0,0,1,.47-1.36,5.18,5.18,0,0,1,2.55-.35,27,27,0,0,1,2.75.09,1.92,1.92,0,0,1,.93.28.7.7,0,0,1,.22.38,3.15,3.15,0,0,1,.08.86v.43h1.85v-.15a1.25,1.25,0,0,0,0-.21v-.33a3.31,3.31,0,0,0-.2-1.25,1.65,1.65,0,0,0-.64-.82,4,4,0,0,0-1.5-.57,18.36,18.36,0,0,0-3-.17H203a19.14,19.14,0,0,0-2.65.13,3.05,3.05,0,0,0-1.23.43,2.34,2.34,0,0,0-.83,1,4.1,4.1,0,0,0-.25,1.57,2.83,2.83,0,0,0,.78,2.24,4.62,4.62,0,0,0,2.72.79l4.21.26a1.72,1.72,0,0,1,1.11.31c.09.1.26.4.26,1.38a4.13,4.13,0,0,1-.08.9.82.82,0,0,1-.2.4,1.85,1.85,0,0,1-.88.35,10.18,10.18,0,0,1-1.78.11c-1.42,0-2.37,0-2.82-.06a3,3,0,0,1-1-.19.94.94,0,0,1-.52-.55,3.94,3.94,0,0,1-.17-1.34v-.38h-1.86v.7a4.15,4.15,0,0,0,.25,1.56,2.16,2.16,0,0,0,.82,1,3.41,3.41,0,0,0,1.37.56,16.93,16.93,0,0,0,2.71.15h.68a16.67,16.67,0,0,0,3.1-.18,3,3,0,0,0,1.41-.65,2.18,2.18,0,0,0,.63-1,5.61,5.61,0,0,0,.18-1.64A2.83,2.83,0,0,0,208.24,175.5Z"/><rect class="cls-4" x="40.9" y="8.89" width="136.2" height="136.2"/><path class="cls-5" d="M142.92,73.54l-3.27-1.81,6.22-5.59c4.31-7.09,2.62-13.58-4.66-17.58a34.66,34.66,0,0,0-11.81-3.8,120.67,120.67,0,0,0-12.13-1.11H99.75V71.49L87.27,69.35V55.65A11.59,11.59,0,0,0,75.68,44.06H69.79v60.4h6.35A11.13,11.13,0,0,0,87.27,93.33V80l10.38,1.77a2.53,2.53,0,0,1,2.1,2.49v17.57a11.7,11.7,0,0,0,11.7,11.69h5.82V52.76s5.31,0,5.76.06a12.07,12.07,0,0,1,6.64,1.82A5.75,5.75,0,0,1,132,60.12c-.49,3.36-3.63,5.53-6.33,7.12-1.73,1-6.21,3.47-6.21,3.47.18,1.09,1,5.12,1,5.12a15.39,15.39,0,0,1,1.7.08c4.46.52,7.54,2.41,7.71,7.77v8.78a12.24,12.24,0,0,0,12.24,12.24h5V81A12.66,12.66,0,0,0,142.92,73.54Z"/></svg>