<svg id="Capa_1" data-name="Capa 1" xmlns="http://www.w3.org/2000/svg" viewBox="0 0 100 100"><defs><style>.cls-1{fill:#fff;stroke:#fff;stroke-miterlimit:10;}</style></defs><path class="cls-1" d="M68,76.69a14.38,14.38,0,0,0-5-2.48l-2,1.56a27.58,27.58,0,0,1,3.91,1.75c1.39.74,2.14,1.44,2.26,2.12q-.47,1.94-5.34,3.36A42.43,42.43,0,0,1,50,84.42,42.37,42.37,0,0,1,38.17,83q-4.83-1.43-5.29-3.36a4.88,4.88,0,0,1,2.21-2.12,21.09,21.09,0,0,1,3.59-1.75l-2-1.56A13.91,13.91,0,0,0,32,76.69a4.11,4.11,0,0,0-1.71,3Q30.3,83,35.83,85A41.74,41.74,0,0,0,50,87a41.74,41.74,0,0,0,14.17-2q5.53-2,5.53-5.24A4.11,4.11,0,0,0,68,76.69Z"/><path class="cls-1" d="M50,75.59q12.69-9.72,18.93-18.88t6.24-18a27.76,27.76,0,0,0-2.26-11.6A25.63,25.63,0,0,0,67,18.79a24.85,24.85,0,0,0-34,0,25.63,25.63,0,0,0-5.91,8.33,27.76,27.76,0,0,0-2.26,11.6q0,8.82,6.24,18T50,75.59ZM35.1,21.05q7.17-6,14.9-6t15,6q7.13,6,7.12,17.67,0,7.83-5.47,16.06T50.11,71.72Q38.85,62.78,33.39,54.61T27.92,38.72Q27.92,27,35.1,21.05Z"/><path class="cls-1" d="M50,44.79a6.49,6.49,0,0,0,4.69-1.88,6.74,6.74,0,0,0,0-9.44A6.38,6.38,0,0,0,50,31.54a6.44,6.44,0,0,0-4.64,1.93,6.62,6.62,0,0,0,0,9.44A6.56,6.56,0,0,0,50,44.79Z"/></svg>