<svg id="Capa_1" data-name="Capa 1" xmlns="http://www.w3.org/2000/svg" viewBox="0 0 100 100"><defs><style>.cls-1{fill:#fff;}</style></defs><path class="cls-1" d="M64.62,87.44H35.47A22.93,22.93,0,0,1,12.56,64.5v-29A22.93,22.93,0,0,1,35.47,12.56h29A23,23,0,0,1,87.44,35.5v29A23,23,0,0,1,64.62,87.44ZM35.47,18.15A17.35,17.35,0,0,0,18.15,35.5v29A17.35,17.35,0,0,0,35.47,81.85h29A17.35,17.35,0,0,0,81.85,64.5v-29A17.35,17.35,0,0,0,64.53,18.15Z"/><path class="cls-1" d="M50.12,69A19,19,0,1,1,69.05,50v0A19,19,0,0,1,50.12,69Zm0-32.15A13.2,13.2,0,1,0,63.29,50v0A13.19,13.19,0,0,0,50.12,36.8Z"/><path class="cls-1" d="M76,29a5,5,0,1,1,0-.79A5.21,5.21,0,0,1,76,29Z"/></svg>