<svg id="Capa_1" data-name="Capa 1" xmlns="http://www.w3.org/2000/svg" xmlns:xlink="http://www.w3.org/1999/xlink" viewBox="0 0 80 80"><defs><style>.cls-1{fill:url(#linear-gradient);}.cls-2{fill:#e6e6e6;}.cls-3{fill:#fff;}</style><linearGradient id="linear-gradient" x1="40.5" y1="67.61" x2="40.5" y2="10.64" gradientUnits="userSpaceOnUse"><stop offset="0" stop-color="#58b84a"/><stop offset="0.5" stop-color="#1e9e49"/><stop offset="1" stop-color="#58b84a"/></linearGradient></defs><path class="cls-1" d="M40.5,10.64A28.49,28.49,0,0,0,12,39.12C12,48.34,17.57,56,17.57,56L14.09,66.4,24.8,62.9a31.15,31.15,0,0,0,15.7,4.71,28.49,28.49,0,1,0,0-57Z"/><path class="cls-2" d="M40.5,5.21A33.91,33.91,0,0,0,6.59,39.12c0,9.3,4.92,17.61,4.92,17.61L5.58,74.79l18.58-5.94A34.38,34.38,0,0,0,40.5,73a33.92,33.92,0,1,0,0-67.83Zm0,62.4A31.15,31.15,0,0,1,24.8,62.9L14.09,66.4,17.57,56S12,48.34,12,39.12A28.49,28.49,0,1,1,40.5,67.61Z"/><path class="cls-3" d="M27.59,24.36A3.93,3.93,0,0,1,29,23.78h2.67a1.51,1.51,0,0,1,1.05.87c.33.75,2.58,6,2.75,6.45a2.23,2.23,0,0,1-.1,2.32c-.7.91-2.17,2.6-2.17,2.6a1,1,0,0,0-.07,1.35A26.81,26.81,0,0,0,37.7,43a21.66,21.66,0,0,0,6.56,4.07c1.41.47,1.72-.15,2.26-.85l2.23-2.83a1.33,1.33,0,0,1,1.72-.33c1.15.53,6.7,3.22,6.7,3.22a.9.9,0,0,1,.72.87,6.09,6.09,0,0,1-1.51,5.19c-2,2.17-6.3,3.18-8.33,2.61s-8.73-2.32-13.1-6.4S27,40.2,25.59,37a11.14,11.14,0,0,1-1.29-5.92C24.38,30.22,24.84,26.12,27.59,24.36Z"/></svg>