<svg id="Capa_1" data-name="Capa 1" xmlns="http://www.w3.org/2000/svg" viewBox="0 0 40 40"><defs><style>.cls-1{fill:#fff;fill-rule:evenodd;}</style></defs><path class="cls-1" d="M32.23,15.78a12.77,12.77,0,0,0-13.09-9,18,18,0,0,0-2.42.4A12.77,12.77,0,0,0,9.19,26.3a.81.81,0,0,1,.15.63c-.47,2-.88,4-1.28,6-.07.35-.07.35.25.24,2-.7,4-1.37,6.08-2a.53.53,0,0,1,.46,0A12.79,12.79,0,0,0,32.23,15.78ZM22.45,29.84a6.07,6.07,0,0,1-1.47.23A11.17,11.17,0,0,1,15.13,29a.66.66,0,0,0-.66-.05c-1.13.35-2.24.73-3.36,1.1-.23.08-.26,0-.22-.19.23-1.08.45-2.17.71-3.29a.78.78,0,0,0-.18-.74A10.58,10.58,0,0,1,11,13.86,10.1,10.1,0,0,1,21.55,9a10,10,0,0,1,8.62,7.52A10.54,10.54,0,0,1,22.45,29.84Z"/><path class="cls-1" d="M23.71,25.36a3.38,3.38,0,0,1-1.34-.08,13,13,0,0,1-7.23-4.63,7.06,7.06,0,0,1-1.68-2.92,3.43,3.43,0,0,1,.93-3.47,1.9,1.9,0,0,1,1.68-.37,1.18,1.18,0,0,1,.31.32c.42.88.86,1.7,1.28,2.53a.68.68,0,0,1,0,.56,5.16,5.16,0,0,1-.71,1.1.47.47,0,0,0,0,.7,8.52,8.52,0,0,0,4.6,3.47.51.51,0,0,0,.64-.19c.31-.4.6-.85.88-1.27a.54.54,0,0,1,.7-.21c.64.23,1.28.49,1.89.72l.45.19c.65.27.65.31.62,1a2.69,2.69,0,0,1-2.12,2.49A2.1,2.1,0,0,1,23.71,25.36Z"/></svg>