<svg id="Capa_1" data-name="Capa 1" xmlns="http://www.w3.org/2000/svg" viewBox="0 0 40 40"><defs><style>.cls-1{fill:#2cb4ae;}</style></defs><path class="cls-1" d="M35.62,9.4l-21.5-.06c-.32,0-.72-.08-1,.07s-.75.59-.73.87.43.73.76,1c.18.14.56.05.85.05l17.13.08h4c-.11.45-.15.68-.22.91-1,3.57-2.12,7.13-3.13,10.7a1.21,1.21,0,0,1-1.43,1c-4.4,0-8.8,0-13.21,0-2.87,0-2.86,0-3.49-2.68L10.35,7.42c-.43-1.81-1.44-2.82-3-2.89-1.24-.06-2.48,0-3.71,0-.69,0-1.16.27-1.14,1s.46,1,1.15,1h2.4c1.78,0,1.91.12,2.31,1.81Q10.7,18,13,27.71A2.68,2.68,0,0,0,15.58,30c5.06.05,10.12,0,15.17,0,.69,0,1.22-.36,1.05-1-.1-.37-.65-.68-1.05-.93-.18-.11-.5,0-.75,0H17c-1.84,0-2-.15-2.12-2.06H31.24c1.44,0,1.89-.31,2.27-1.61Q35.42,18,37.3,11.61C37.76,10.05,37.26,9.41,35.62,9.4Z"/><path class="cls-1" d="M31,15.22c0-.87-.72-1-1.49-1q-6.37,0-12.74,0c-.8,0-1.56.1-1.54,1s.74,1,1.49,1H29.49C30.27,16.27,31,16.17,31,15.22Z"/><path class="cls-1" d="M28.19,19.33h-10c-.76,0-1.46.2-1.42,1.07s.75,1,1.51,1c1.63,0,3.26,0,4.9,0h5c.77,0,1.43-.18,1.41-1.06S28.89,19.33,28.19,19.33Z"/><path class="cls-1" d="M18,30.92a2.34,2.34,0,0,0-2.39,2.34A2.27,2.27,0,0,0,18,35.5a2.32,2.32,0,0,0,2.41-2.31A2.4,2.4,0,0,0,18,30.92Z"/><path class="cls-1" d="M27.38,30.92A2.36,2.36,0,0,0,25,33.24a2.28,2.28,0,0,0,2.34,2.26,2.24,2.24,0,0,0,2.39-2.29A2.32,2.32,0,0,0,27.38,30.92Z"/></svg>