<svg id="Capa_1" data-name="Capa 1" xmlns="http://www.w3.org/2000/svg" viewBox="0 0 120 100"><defs><style>.cls-1{fill:#fff;}</style></defs><path class="cls-1" d="M114.26,72.46l1.53-6.92-6.34-1.4a26.14,26.14,0,0,0,.08-3.19l6.39-1.08-1.18-7L108.35,54a26.81,26.81,0,0,0-1.13-3l5.52-3.4-3.71-6-5.53,3.4a24.06,24.06,0,0,0-2.16-2.35l3.85-5.22-5.71-4.21-3.84,5.21a26.92,26.92,0,0,0-4.65-2L92.16,30l-7-1.28-1.1,6-.07.34c-.69,0-1.38,0-2.07,0-.38,0-.75,0-1.13,0l-.9-4.42,5.63-3.46-4.79-7.78L73.64,23.8a34.53,34.53,0,0,0-2.78-3l5-6.72L68.46,8.64l-4.95,6.71a34.36,34.36,0,0,0-6-2.6L59,4.56l-9-1.65-1.5,8.19a33.32,33.32,0,0,0-4.12,0L42.75,3,33.81,4.83,35.49,13a33.55,33.55,0,0,0-3.81,1.58L27.07,7.63l-7.6,5.05,4.61,7a34.82,34.82,0,0,0-2.94,2.88l-6.87-4.7L9.11,25.34,16,30.05a34.17,34.17,0,0,0-1.63,3.78L6.22,32,4.25,41l8.16,1.79a35.31,35.31,0,0,0-.1,4.11L4.08,48.25l1.52,9,8.23-1.39a33.59,33.59,0,0,0,1.45,3.84L8.17,64.09,13,71.86l7.11-4.37a34.53,34.53,0,0,0,2.78,3l-5,6.72,7.36,5.42,4.94-6.72a34,34,0,0,0,6,2.6l-1.51,8.19,9,1.65,1.5-8.19a35.4,35.4,0,0,0,4.12,0L51,88.31l8.95-1.84L58.73,80.8l3.16-1.94a26.6,26.6,0,0,0,2.16,2.35L60.2,86.43l5.71,4.21,3.85-5.22a26.44,26.44,0,0,0,4.64,2l-1.16,6.36,7,1.28,1.17-6.36a28.45,28.45,0,0,0,3.2,0L85.88,95l7-1.43-1.31-6.34a26.64,26.64,0,0,0,3-1.22l3.58,5.38L104,87.5l-3.59-5.4a27,27,0,0,0,2.29-2.24L108,83.52l4-5.86L106.67,74a27.42,27.42,0,0,0,1.27-2.94ZM45.57,70.82a25.2,25.2,0,1,1,22-39.48,25,25,0,0,1,3,5.92l-3.26-4.9-5.91,3.93L65,41.68a26.86,26.86,0,0,0-2.28,2.24l-5.34-3.65-4,5.85,5.34,3.66a26.11,26.11,0,0,0-1.26,2.93l-6.33-1.39-1.52,6.93L56,59.64a26.37,26.37,0,0,0-.09,3.2l-6.39,1.08,1.12,6.64A24.64,24.64,0,0,1,45.57,70.82Zm55.76-2.92A19.69,19.69,0,0,1,81.7,81.45a20,20,0,0,1-8.24-2.32A19.51,19.51,0,0,1,63.32,64.66a20,20,0,0,1,1.18-10l.07-.15L74.81,60a7.78,7.78,0,0,0-.28,1.29,8.28,8.28,0,1,0,3-5.44L67,50.2a19.69,19.69,0,0,1,5-4.7,19.4,19.4,0,0,1,11.22-3.18,20.74,20.74,0,0,1,3,.32A19.58,19.58,0,0,1,101.33,67.9Z"/></svg>