<svg id="Capa_1" data-name="Capa 1" xmlns="http://www.w3.org/2000/svg" viewBox="0 0 115 80"><defs><style>.cls-1{fill:#2cb4ae;}</style></defs><path class="cls-1" d="M109.51,21.1a7.4,7.4,0,0,0-3.38-1.43c-11.41-2.24-22.74-4.93-34.22-6.78-6.43-1-10.41-1.88-14-2.29v-.07l-.36,0-.36,0v.07c-3.64.41-7.62,1.25-14,2.29-11.48,1.85-22.81,4.54-34.22,6.78A7.4,7.4,0,0,0,5.49,21.1l7.82,2.48c.14,13.78-.54,28.31-1.79,43.36h7.13a277.7,277.7,0,0,1-1.9-42.27L33.36,30,22.48,46.12C36.45,46.57,47,49.35,55.72,58c1.24,1.25,1.38,1.73,1.78,1.52.4.21.54-.27,1.78-1.52C68,49.35,78.55,46.57,92.52,46.12L81.64,30Z"/></svg>