<svg id="Capa_1" data-name="Capa 1" xmlns="http://www.w3.org/2000/svg" viewBox="0 0 80 80"><defs><style>.cls-1{fill:#fff;}</style></defs><path class="cls-1" d="M71.81,20.41,61.07,29.59a2.46,2.46,0,0,1-3.47-.17l-2.35-2.75-2.34-2.73a2.46,2.46,0,0,1,.37-3.46L64,11.3a14.51,14.51,0,0,0-14.27,2.81,15,15,0,0,0-3.61,4.55c-2,4-1.61,8.57-4,12.48a25.27,25.27,0,0,1-6.27,6.61L22.73,23.92,24,22.73a.88.88,0,0,0,0-1.38l-7.81-5.28A.93.93,0,0,0,15,16.2l-1.1,1.05v0l-1.1,1a.93.93,0,0,0-.19,1.14l4.9,8.06a.88.88,0,0,0,1.37.1l1.25-1.19L33,40l-.54.42c-5.42,4.24-11,8.26-16.59,12.31-3,2.11-5.36,3.41-7,6.25a6.87,6.87,0,0,0-.26,6.41c1.39,2.53,5.06,3.07,7.55,2.12,3.06-1.18,4.72-3.35,7.26-5.95,4.86-4.87,9.7-9.79,14.73-14.49l.84-.79L43.54,51l-1.62,1.55a1.32,1.32,0,0,0,0,1.86l14,14.66a1.31,1.31,0,0,0,1.86,0l5.87-5.59a1.32,1.32,0,0,0,0-1.86L49.65,47a1.32,1.32,0,0,0-1.86,0l-1.62,1.54-4.52-4.74a24.66,24.66,0,0,1,7.17-4.87c4.23-1.72,8.68-.58,13-2a14.93,14.93,0,0,0,5-2.87A14.49,14.49,0,0,0,71.81,20.41ZM14.39,64.11a2.43,2.43,0,1,1,2.43-2.43A2.43,2.43,0,0,1,14.39,64.11ZM49.25,50.82a.58.58,0,0,1,.83,0L60.2,61.46a.58.58,0,0,1,0,.83.59.59,0,0,1-.83,0L49.23,51.64A.57.57,0,0,1,49.25,50.82Zm-1.7,1.61a.59.59,0,0,1,.83,0L58.5,63.08a.58.58,0,0,1,0,.83.6.6,0,0,1-.83,0L47.53,53.26A.6.6,0,0,1,47.55,52.43Zm-1.88,1.79a.59.59,0,0,1,.83,0L56.63,64.87a.59.59,0,0,1-.85.81L45.65,55.05A.6.6,0,0,1,45.67,54.22Z"/></svg>