<svg id="Capa_1" data-name="Capa 1" xmlns="http://www.w3.org/2000/svg" viewBox="0 0 80 80"><defs><style>.cls-1{fill:#2cb4ae;}</style></defs><path class="cls-1" d="M70.27,40.14a29.36,29.36,0,0,0-58.61-2.63H11a1.31,1.31,0,0,0-1.31,1.31v8.25A1.31,1.31,0,0,0,11,48.38h3.31a1.31,1.31,0,0,0,1.31-1.31V38.82a1.3,1.3,0,0,0-1.2-1.3,26.57,26.57,0,1,1,41,24.86,1.82,1.82,0,0,0-1.75-1.31h-15A1.83,1.83,0,0,0,36.9,62.9v4.49a1.83,1.83,0,0,0,1.83,1.83h15a1.83,1.83,0,0,0,1.83-1.83V65.56A29.62,29.62,0,0,0,70.27,40.14Z"/><path class="cls-1" d="M63.55,41.06A22.65,22.65,0,1,0,30.82,61.35V55.63H58.24A22.57,22.57,0,0,0,63.55,41.06Z"/></svg>