<svg id="Capa_1" data-name="Capa 1" xmlns="http://www.w3.org/2000/svg" viewBox="0 0 80 80"><defs><style>.cls-1{fill:#fff;}</style></defs><path class="cls-1" d="M62.81,27.71c0-2.15-6.06-3.31-6.68-5.24s3.54-6.5,2.32-8.17-6.8.92-8.49-.31-.9-7.33-2.91-8-4.91,4.75-7,4.75S34.89,5.38,33,6,31.71,12.78,30,14s-7.27-1.38-8.49.31,3,6.16,2.32,8.17-6.68,3.09-6.68,5.24S23.25,31,23.87,33s-3.54,6.5-2.32,8.17,5.86-.5,8,.07l-11,28.14,8.57-3,5.45,7.24L39,45l.22-.11L45.86,74l5.45-7.24,8.57,3L49.26,42.51a2.31,2.31,0,0,1,.7-1.08c1.69-1.23,7.27,1.38,8.49-.31S55.47,35,56.13,33,62.81,29.85,62.81,27.71ZM40,39.85A12.14,12.14,0,1,1,52.14,27.71,12.15,12.15,0,0,1,40,39.85Z"/><polygon class="cls-1" points="42 25.6 40 21.54 38 25.6 33.52 26.25 36.76 29.41 35.99 33.88 40 31.77 44.01 33.88 43.24 29.41 46.48 26.25 42 25.6"/></svg>