<svg id="Capa_1" data-name="Capa 1" xmlns="http://www.w3.org/2000/svg" viewBox="0 0 150 30"><defs><style>.cls-1{fill:#004189;}.cls-2{fill:#fff;}</style></defs><polygon class="cls-1" points="39.91 10.75 42.73 18.21 45.66 10.75 46.85 10.75 46.85 19.26 46.04 19.26 46.04 11.91 46.02 11.91 43.11 19.26 42.35 19.26 39.55 11.91 39.52 11.91 39.52 19.26 38.72 19.26 38.72 10.75 39.91 10.75 39.91 10.75"/><path class="cls-1" d="M53.06,15.92l-1.64-4.34-1.7,4.36Zm-1.15-5.17,3.34,8.51h-.88l-1-2.65H49.48l-1,2.65H47.6L51,10.75Z"/><path class="cls-1" d="M61.89,12.47a2.33,2.33,0,0,0-.6-.65,2.62,2.62,0,0,0-.78-.4,2.89,2.89,0,0,0-.88-.14,3.17,3.17,0,0,0-1.45.32,3,3,0,0,0-1,.85,3.68,3.68,0,0,0-.57,1.2,5.1,5.1,0,0,0,0,2.74,3.68,3.68,0,0,0,.57,1.2,2.87,2.87,0,0,0,1,.83,3.05,3.05,0,0,0,1.45.33,2.56,2.56,0,0,0,1.91-.8,3.32,3.32,0,0,0,.56-.87A3.84,3.84,0,0,0,62.35,16h.81a4.58,4.58,0,0,1-.36,1.41,3.56,3.56,0,0,1-.74,1.09A3.06,3.06,0,0,1,61,19.2a3.76,3.76,0,0,1-1.37.23,4,4,0,0,1-1.76-.36,3.7,3.7,0,0,1-1.25-1,4,4,0,0,1-.75-1.4,5.83,5.83,0,0,1,0-3.36,4.08,4.08,0,0,1,.75-1.41,3.61,3.61,0,0,1,1.25-1,4,4,0,0,1,1.76-.36,4.39,4.39,0,0,1,1.19.17,3.44,3.44,0,0,1,1,.54,2.82,2.82,0,0,1,.79.86,2.9,2.9,0,0,1,.4,1.18h-.81a2.82,2.82,0,0,0-.36-.88Z"/><polygon class="cls-1" points="65.21 10.75 65.21 14.45 70.26 14.45 70.26 10.75 71.07 10.75 71.07 19.26 70.26 19.26 70.26 15.14 65.21 15.14 65.21 19.26 64.4 19.26 64.4 10.75 65.21 10.75 65.21 10.75"/><polygon class="cls-1" points="78.66 10.75 78.66 11.45 73.6 11.45 73.6 14.52 78.34 14.52 78.34 15.21 73.6 15.21 73.6 18.57 78.72 18.57 78.72 19.26 72.79 19.26 72.79 10.75 78.66 10.75 78.66 10.75"/><path class="cls-1" d="M83.68,14.79a2.05,2.05,0,0,0,.7-.11,1.63,1.63,0,0,0,.59-.33,1.58,1.58,0,0,0,.4-.52,1.65,1.65,0,0,0,.15-.69,1.67,1.67,0,0,0-.46-1.24,1.92,1.92,0,0,0-1.38-.46h-3v3.35Zm.06-4a3.77,3.77,0,0,1,1,.14,2.41,2.41,0,0,1,.82.4,1.88,1.88,0,0,1,.56.69,2.5,2.5,0,0,1-.21,2.39,1.91,1.91,0,0,1-1.24.77v0a1.86,1.86,0,0,1,.69.22,1.36,1.36,0,0,1,.45.41,1.76,1.76,0,0,1,.25.58,4.45,4.45,0,0,1,.1.72,5,5,0,0,0,0,.52c0,.21,0,.42,0,.63a4.21,4.21,0,0,0,.11.6,1.15,1.15,0,0,0,.21.43h-.9a1,1,0,0,1-.11-.29,2.25,2.25,0,0,1-.06-.36c0-.13,0-.25,0-.37a2.51,2.51,0,0,0,0-.3c0-.31-.05-.6-.08-.9a2.45,2.45,0,0,0-.23-.8,1.44,1.44,0,0,0-.5-.57,1.55,1.55,0,0,0-.9-.19H80.65v3.77h-.79V10.75Z"/><polygon class="cls-1" points="93.66 10.75 93.66 11.45 88.6 11.45 88.6 14.52 93.34 14.52 93.34 15.21 88.6 15.21 88.6 18.57 93.72 18.57 93.72 19.26 87.79 19.26 87.79 10.75 93.66 10.75 93.66 10.75"/><polygon class="cls-1" points="93.89 10.75 94.84 10.75 97.64 15.06 100.42 10.75 101.39 10.75 98.03 15.76 98.03 19.26 97.22 19.26 97.22 15.76 93.89 10.75 93.89 10.75"/><polygon class="cls-1" points="100.66 15.64 103.64 15.64 103.64 16.33 100.66 16.33 100.66 15.64 100.66 15.64"/><polygon class="cls-1" points="106.11 10.75 111.06 17.95 111.08 17.95 111.08 10.75 111.89 10.75 111.89 19.26 110.99 19.26 106.03 12.06 106.01 12.06 106.01 19.26 105.2 19.26 105.2 10.75 106.11 10.75 106.11 10.75"/><path class="cls-1" d="M118.15,15.92l-1.65-4.34-1.7,4.36ZM117,10.75l3.33,8.51h-.87l-1-2.65h-3.87l-1,2.65h-.85l3.41-8.51Z"/><path class="cls-1" d="M127.78,19.26l-.11-1.55h0a2.76,2.76,0,0,1-.53.78,3.11,3.11,0,0,1-.7.54,3.44,3.44,0,0,1-.81.3,4.58,4.58,0,0,1-.9.09,3.94,3.94,0,0,1-1.76-.36,3.74,3.74,0,0,1-1.26-1,4.12,4.12,0,0,1-.75-1.4,5.83,5.83,0,0,1,0-3.36,4.08,4.08,0,0,1,.75-1.41,3.55,3.55,0,0,1,1.26-1,3.94,3.94,0,0,1,1.76-.36,4.16,4.16,0,0,1,1.26.17,3.24,3.24,0,0,1,2.28,2.65h-.81a1.75,1.75,0,0,0-.24-.74,2.33,2.33,0,0,0-.56-.69,2.78,2.78,0,0,0-.84-.51,2.83,2.83,0,0,0-1.08-.19,3.17,3.17,0,0,0-1.45.32,2.79,2.79,0,0,0-1,.85,3.61,3.61,0,0,0-.58,1.2,5.27,5.27,0,0,0,0,2.73,3.61,3.61,0,0,0,.58,1.2,2.76,2.76,0,0,0,1,.85,3.05,3.05,0,0,0,1.45.33,3.31,3.31,0,0,0,1.25-.24,2.45,2.45,0,0,0,.94-.65,2.69,2.69,0,0,0,.57-1,3.82,3.82,0,0,0,.18-1.25h-2.89v-.7h3.61v4.34Z"/><polygon class="cls-1" points="135.79 10.75 135.79 11.45 130.73 11.45 130.73 14.52 135.47 14.52 135.47 15.21 130.73 15.21 130.73 18.57 135.85 18.57 135.85 19.26 129.92 19.26 129.92 10.75 135.79 10.75 135.79 10.75"/><polygon class="cls-1" points="137.79 10.75 137.79 18.57 142.56 18.57 142.56 19.26 136.98 19.26 136.98 10.75 137.79 10.75 137.79 10.75"/><path class="cls-1" d="M26.7,23.45H12.84L5.91,15l6.93-8.45H26.7L33.63,15ZM27.16,6H12.39L5,15l7.39,9H27.16l7.38-9Z"/><path class="cls-2" d="M26.1,22.86H13.44L7.12,15l6.33-7.86H26.11L32.42,15Zm.6-16.31H12.84L5.91,15l6.93,8.45H26.7L33.63,15Z"/><path class="cls-1" d="M26.34,19.52,22.72,13.1v6.42H21v-9H23l3.53,6.3v-6.3h1.73v9Zm-6.42,0H18.2V11.93l-1.68,7.6H14.71L13,11.93v7.59h-1.7v-9H14l1.62,7.11,1.6-7.11h2.67v9ZM26.07,7.14H13.41L7.12,15l6.33,7.86H26.11L32.42,15,26.1,7.14Z"/><path class="cls-2" d="M15.65,17.59,14,10.48H11.33v9h1.74V11.93l1.67,7.6h1.81l1.68-7.6v7.59H20v-9H17.26Z"/><polygon class="cls-2" points="26.48 10.48 26.48 16.78 22.95 10.48 21 10.48 21 19.52 22.74 19.52 22.74 13.11 26.35 19.52 28.21 19.52 28.21 10.48 26.48 10.48 26.48 10.48"/></svg>