<svg id="Capa_1" data-name="Capa 1" xmlns="http://www.w3.org/2000/svg" viewBox="0 0 150 30"><defs><style>.cls-1{fill:#1d3458;}.cls-2{fill:#223659;}.cls-3{fill:#213558;}.cls-4{fill:#1c3256;}.cls-5{fill:#0085ab;}.cls-6{fill:#0286ab;}.cls-7{fill:#1c3559;}.cls-8{fill:#203458;}.cls-9{fill:#f4f5f6;}.cls-10{fill:#f8f8fa;}.cls-11{fill:#fcfcfd;}</style></defs><path class="cls-1" d="M92.77,16.78V9.3c0-1.11.29-1.43,1.38-1.4a20.34,20.34,0,0,1,4,.12,3.16,3.16,0,0,1,2,5c-.22.28-.28.42.11.64a3,3,0,0,1,1.62,3,3.28,3.28,0,0,1-2.75,3,7.85,7.85,0,0,1-1.67.1H91c-1.13,0-1.52-.24-1.91-1.28a.77.77,0,0,0-.9-.6,18.77,18.77,0,0,1-2.25,0,.7.7,0,0,0-.83.53A2,2,0,0,1,83,19.78c-1.9-.05-3.79,0-5.69,0-1,0-1.27-.31-1.27-1.25q0-4.69,0-9.37c0-1,.31-1.25,1.27-1.25h1.25a.94.94,0,0,1,1,1v6.81c0,.88,0,.91.92.89.6,0,1.34.25,1.75-.09s.47-1.06.66-1.63l2-6c.27-.8.55-1,1.42-1,.58,0,1.17,0,1.75,0a1.14,1.14,0,0,1,1.19.79c1,2.5,2,5,3,7.5C92.37,16.39,92.36,16.69,92.77,16.78Zm0,2.34C91.38,15.65,90,12.28,88.66,8.91A.59.59,0,0,0,88,8.52c-.54,0-1.09,0-1.63,0s-.76.18-.93.67c-.83,2.53-1.7,5-2.54,7.56-.13.41-.31.56-.74.53-.67,0-1.33,0-2,0-.9,0-1.18-.28-1.18-1.2,0-2,0-3.91,0-5.86s.2-1.66-1.77-1.7c-.5,0-.68.23-.68.67v9.31a.56.56,0,0,0,.65.64h6.11a1.11,1.11,0,0,0,1.13-.72c.11-.27.29-.51.4-.78a.54.54,0,0,1,.59-.34c1.14,0,2.29,0,3.43,0a.53.53,0,0,1,.6.41c.08.26.22.5.29.76a.92.92,0,0,0,.94.68C91.36,19.15,92,19.12,92.79,19.12Zm5.62-5.42a6.26,6.26,0,0,0,1.34-1.27,2.23,2.23,0,0,0,.1-2.37,2.79,2.79,0,0,0-2.49-1.52c-1.06,0-2.12,0-3.18,0-.61,0-.79.18-.78.78,0,3,0,6.08,0,9.12,0,.25.08.55-.41.72,2,0,3.74,0,5.53,0a2.81,2.81,0,0,0,2.7-2.48,2.73,2.73,0,0,0-2-2.72Z"/><path class="cls-2" d="M58.74,19.78a6.55,6.55,0,0,1-3.91-1.17.69.69,0,0,1-.24-1.1l.21-.3c1-1.41,1-1.41,2.53-.71a2.83,2.83,0,0,0,1.51.25c.35,0,.72-.14.82-.54s-.2-.66-.53-.81c-.6-.27-1.22-.48-1.82-.76a3.48,3.48,0,0,1-2.26-2.05A3.67,3.67,0,0,1,57.8,7.92a6.06,6.06,0,0,1,4.66.67.63.63,0,0,1,.29,1c-.25.46-.46.93-.69,1.39-.33.63-.5.69-1.12.36a2.94,2.94,0,0,0-1.33-.43c-.39,0-.8,0-.92.42s.31.67.67.82c.59.24,1.21.4,1.78.67A3.57,3.57,0,0,1,63.29,15a3.68,3.68,0,0,1-2.95,4.68A8.64,8.64,0,0,1,58.74,19.78Zm.18-.55a5.09,5.09,0,0,0,3-1,2.88,2.88,0,0,0-.21-4.41,10.59,10.59,0,0,0-2.26-1,2.47,2.47,0,0,1-1-.5,1.08,1.08,0,0,1,.21-1.85,2.4,2.4,0,0,1,1.75,0c.37.08.7.57,1,.35s.41-.69.6-1.05l.1-.22c.11-.2.09-.34-.14-.45-1.78-.83-3.55-1.11-5.27.11a2.68,2.68,0,0,0,.18,4.62c.45.25.94.43,1.41.64a6.44,6.44,0,0,1,1.5.71,1.16,1.16,0,0,1-.19,2,2.22,2.22,0,0,1-1,.25,4.22,4.22,0,0,1-2.2-.71c-.2-.11-.36-.23-.49.05-.22.47-.78.74-.76,1.33,0,.05.12.1.19.14A6.53,6.53,0,0,0,58.92,19.23Z"/><path class="cls-3" d="M69.31,19.78a4.8,4.8,0,0,1-3.82-2.34A6.87,6.87,0,0,1,66,9.37a4.57,4.57,0,0,1,7.4.38,6.78,6.78,0,0,1-.64,8.68A4.72,4.72,0,0,1,69.31,19.78Zm-4.26-6.06a5.59,5.59,0,0,0,1,3.46,4,4,0,0,0,6.6.47,6.21,6.21,0,0,0,.28-7.49,4,4,0,0,0-6.89.13A5.45,5.45,0,0,0,65.05,13.72Z"/><path class="cls-4" d="M49.42,13.89V9c0-.8.33-1.13,1.12-1.14.5,0,1,0,1.49,0a1,1,0,0,1,1,1c0,3.31,0,6.61,0,9.92a.9.9,0,0,1-.92,1c-.61,0-1.21,0-1.81,0a.86.86,0,0,1-.89-1C49.41,17.18,49.42,15.54,49.42,13.89Zm3-.05V10.17c0-1.66,0-1.66-1.67-1.65-.75,0-.8,0-.8.82V17.5c0,2-.15,1.73,1.78,1.76.56,0,.72-.21.71-.74C52.41,17,52.42,15.4,52.42,13.84Z"/><path class="cls-5" d="M92.79,19.12c-.77,0-1.43,0-2.09,0a.92.92,0,0,1-.94-.68c-.07-.26-.21-.5-.29-.76a.53.53,0,0,0-.6-.41c-1.14,0-2.29,0-3.43,0a.54.54,0,0,0-.59.34c-.11.27-.29.51-.4.78a1.11,1.11,0,0,1-1.13.72H77.21a.56.56,0,0,1-.65-.64V9.18c0-.44.18-.68.68-.67,2,0,1.76-.25,1.77,1.7s0,3.91,0,5.86c0,.92.28,1.2,1.18,1.2.67,0,1.33,0,2,0,.43,0,.61-.12.74-.53.84-2.52,1.71-5,2.54-7.56.17-.49.4-.72.93-.67s1.09,0,1.63,0a.59.59,0,0,1,.63.39C90,12.28,91.38,15.65,92.79,19.12Zm-5.55-8c-.52,1.48-1,2.8-1.46,4.12-.12.33,0,.44.31.43.78,0,1.57,0,2.36,0,.23,0,.37,0,.27-.32C88.24,13.94,87.77,12.57,87.24,11.08Z"/><path class="cls-6" d="M98.41,13.7l.77.21a2.73,2.73,0,0,1,2,2.72,2.81,2.81,0,0,1-2.7,2.48c-1.79.05-3.58,0-5.53,0,.49-.17.41-.47.41-.72,0-3,0-6.08,0-9.12,0-.6.17-.81.78-.78,1.06,0,2.12,0,3.18,0a2.79,2.79,0,0,1,2.49,1.52,2.23,2.23,0,0,1-.1,2.37A6.26,6.26,0,0,1,98.41,13.7ZM95.79,16h0v1.24c0,.21,0,.37.3.37a3.8,3.8,0,0,0,2.26-.52,1.23,1.23,0,0,0,0-2.18,4.21,4.21,0,0,0-1.84-.49c-.51-.07-.73.12-.67.65A7.22,7.22,0,0,1,95.79,16Zm0-4.38c0,.37,0,.75,0,1.12s.07.33.31.36A1.77,1.77,0,0,0,98,11.79a1.54,1.54,0,0,0-1.41-1.62c-.7-.12-.81,0-.83.71Z"/><path class="cls-7" d="M87.24,11.08c.53,1.49,1,2.86,1.48,4.22.1.27,0,.32-.27.32-.79,0-1.58,0-2.36,0-.36,0-.43-.1-.31-.43C86.25,13.88,86.72,12.56,87.24,11.08ZM86.56,15h1.08c.17,0,.32,0,.24-.24a8.32,8.32,0,0,0-.66-1.63A11,11,0,0,0,86.56,15Z"/><path class="cls-7" d="M95.79,16a7.22,7.22,0,0,0,0-.93c-.06-.53.16-.72.67-.65a4.21,4.21,0,0,1,1.84.49,1.23,1.23,0,0,1,0,2.18,3.8,3.8,0,0,1-2.26.52c-.27,0-.3-.16-.3-.37V16Zm.61,0c0,1.1.09,1.15,1.14.74l.06,0c.35-.15.75-.32.74-.74s-.4-.61-.75-.75C96.65,14.89,96.4,15.05,96.4,16.05Z"/><path class="cls-7" d="M95.77,11.63v-.75c0-.74.13-.83.83-.71A1.54,1.54,0,0,1,98,11.79a1.77,1.77,0,0,1-1.93,1.32c-.24,0-.32-.13-.31-.36S95.77,12,95.77,11.63Zm.6-.07c.18.25-.24.68.25.82.3.08.76-.42.77-.75s-.48-.88-.8-.79S96.51,11.32,96.37,11.56Z"/><path class="cls-8" d="M67.41,13.81a3.66,3.66,0,0,1,.68-2.43,1.72,1.72,0,0,1,2.92.06,4.38,4.38,0,0,1,0,4.66c-.88,1.26-2.5,1-3.19-.49A3.48,3.48,0,0,1,67.41,13.81Zm.49,0A3.2,3.2,0,0,0,68.75,16a1,1,0,0,0,1.58,0,3.62,3.62,0,0,0,0-4.49,1,1,0,0,0-1.67,0A3.42,3.42,0,0,0,67.9,13.82Z"/><path class="cls-9" d="M86.56,15a11,11,0,0,1,.66-1.87,8.32,8.32,0,0,1,.66,1.63c.08.19-.07.24-.24.24Z"/><path class="cls-10" d="M96.4,16.05c0-1,.25-1.16,1.19-.77.35.14.74.34.75.75s-.39.59-.74.74l-.06,0C96.49,17.2,96.4,17.15,96.4,16.05Z"/><path class="cls-9" d="M96.37,11.56c.14-.24-.16-.62.22-.72s.8.43.8.79-.47.83-.77.75C96.13,12.24,96.55,11.81,96.37,11.56Z"/><path class="cls-11" d="M67.9,13.82a3.42,3.42,0,0,1,.77-2.27,1,1,0,0,1,1.67,0,3.62,3.62,0,0,1,0,4.49,1,1,0,0,1-1.58,0A3.2,3.2,0,0,1,67.9,13.82Z"/><polygon class="cls-4" points="53.28 22.76 52.58 22.76 51.6 26.32 54.17 26.32 54.43 25.74 52.47 25.74 53.28 22.76"/><path class="cls-4" d="M56.45,23.66c-.92,0-1.24.43-1.35.81h.69a.58.58,0,0,1,.61-.33c.44,0,.53.22.46.46l0,.06c-.18,0-.49,0-.7,0-.6.06-1.41.2-1.46,1,0,.33.16.75.83.75a1.11,1.11,0,0,0,1-.41c0,.1-.06.25-.07.34h.67q0-.16.18-.72l.25-.88C57.65,24.19,57.52,23.66,56.45,23.66Zm.26,1.48a.88.88,0,0,1-.92.73c-.28,0-.41-.13-.4-.3,0-.33.41-.41.74-.44.17,0,.37,0,.59,0Z"/><path class="cls-4" d="M59.79,23.66a1.15,1.15,0,0,0-.94.39l.41-1.49h-.67l-.84,3.08c-.08.29-.15.54-.2.68h.66c0-.08.08-.23.12-.36.07.22.3.43.79.43a1.62,1.62,0,0,0,1.61-1.64A.93.93,0,0,0,59.79,23.66ZM60,24.84a1,1,0,0,1-.89,1c-.48,0-.66-.34-.53-.84a.93.93,0,0,1,.89-.78C59.88,24.22,60,24.49,60,24.84Z"/><path class="cls-4" d="M62.6,23.66a1.63,1.63,0,0,0-1.68,1.56,1.06,1.06,0,0,0,1.18,1.17,1.59,1.59,0,0,0,1.68-1.54A1.06,1.06,0,0,0,62.6,23.66Zm-.42,2.2a.55.55,0,0,1-.56-.67,1,1,0,0,1,.89-1c.42,0,.59.28.57.65A1,1,0,0,1,62.18,25.86Z"/><path class="cls-4" d="M66,23.68a1.12,1.12,0,0,0-1.05.58,3.35,3.35,0,0,0,.12-.53h-.65c0,.23-.13.51-.2.77l-.5,1.82h.68l.25-.92c.21-.77.59-1,1.14-1Z"/><path class="cls-4" d="M68.26,23.73a3.5,3.5,0,0,0-.12.35c-.09-.22-.34-.42-.83-.42a1.63,1.63,0,0,0-1.55,1.57.93.93,0,0,0,1,1.12,1.06,1.06,0,0,0,.9-.38l0,.15c-.16.51-.33.86-.9.86s-.57-.2-.58-.4h-.68c0,.33.09.92,1.15.92S68,27,68.26,26.08l.46-1.66c.06-.23.14-.48.2-.69Zm-.38,1.33a.89.89,0,0,1-.87.75c-.39,0-.56-.24-.54-.63a1,1,0,0,1,.89-1C67.86,24.21,68,24.56,67.88,25.06Z"/><path class="cls-4" d="M71.59,25.18a1.27,1.27,0,0,0,.09-.42,1,1,0,0,0-1.12-1.1,1.62,1.62,0,0,0-1.65,1.56A1,1,0,0,0,70,26.39a1.45,1.45,0,0,0,1.42-.82h-.7a.68.68,0,0,1-.63.29.5.5,0,0,1-.55-.59.31.31,0,0,0,0-.09Zm-1.1-1c.4,0,.56.22.54.51v.07H69.71A.77.77,0,0,1,70.49,24.16Z"/><path class="cls-4" d="M73.92,23.68a1.11,1.11,0,0,0-1,.58c.05-.19.1-.43.12-.53h-.65c0,.23-.13.51-.2.77l-.5,1.82h.68l.25-.92c.21-.77.59-1,1.14-1Z"/><path class="cls-4" d="M75.35,23.66c-.93,0-1.24.43-1.35.81h.69c.09-.21.26-.33.61-.33s.53.22.46.46l0,.06c-.19,0-.49,0-.7,0-.6.06-1.41.2-1.46,1,0,.33.16.75.83.75a1.11,1.11,0,0,0,1-.41,2.29,2.29,0,0,0-.07.34H76q0-.16.18-.72l.25-.88C76.55,24.19,76.42,23.66,75.35,23.66Zm.26,1.48a.89.89,0,0,1-.92.73c-.28,0-.42-.13-.4-.3,0-.33.41-.41.73-.44s.38,0,.6,0Z"/><path class="cls-4" d="M77.55,25.46l.34-1.22h.59l.14-.51H78l.22-.79h-.68l-.22.79h-.46l-.14.51h.46l-.37,1.33c-.13.5,0,.77.58.77a1.83,1.83,0,0,0,.49-.06l.13-.49a1.29,1.29,0,0,1-.29,0C77.5,25.82,77.48,25.71,77.55,25.46Z"/><path class="cls-4" d="M80,23.66a1.63,1.63,0,0,0-1.65,1.56,1,1,0,0,0,1.13,1.17,1.46,1.46,0,0,0,1.42-.82H80.2a.67.67,0,0,1-.62.29.5.5,0,0,1-.55-.59v-.09h2a1.27,1.27,0,0,0,.09-.42A1,1,0,0,0,80,23.66Zm.47,1.08H79.16a.78.78,0,0,1,.78-.58c.4,0,.56.22.54.51Z"/><path class="cls-4" d="M84.66,24.89h1v0a1.11,1.11,0,0,1-1.14.9c-.62,0-.89-.4-.85-1A1.49,1.49,0,0,1,85,23.25c.6,0,.8.29.83.57h.74c0-.59-.45-1.13-1.47-1.13a2.22,2.22,0,0,0-2.23,2.14,1.31,1.31,0,0,0,1.36,1.57,1.42,1.42,0,0,0,1.22-.5,2.67,2.67,0,0,0-.06.42h.51l.54-2H84.83Z"/><path class="cls-4" d="M90.24,23.66a1.2,1.2,0,0,0-1,.46c0-.25-.19-.46-.64-.46a1.07,1.07,0,0,0-.86.42c0-.12.06-.28.07-.35h-.66c0,.22-.12.48-.18.73l-.51,1.86h.67L87.51,25c.12-.43.36-.77.74-.77s.36.33.29.59l-.41,1.51h.67L89.18,25c.13-.46.36-.73.72-.73s.37.33.3.59l-.42,1.51h.67l.43-1.57C91.08,24,90.81,23.66,90.24,23.66Z"/><path class="cls-4" d="M93.19,23.66a1.12,1.12,0,0,0-.93.39l.41-1.49H92l-.84,3.08c-.08.29-.15.54-.2.68h.66l.12-.36c.08.22.3.43.79.43a1.62,1.62,0,0,0,1.61-1.64A.93.93,0,0,0,93.19,23.66Zm.21,1.18a1,1,0,0,1-.89,1c-.48,0-.66-.34-.53-.84a.93.93,0,0,1,.89-.78C93.28,24.22,93.43,24.49,93.4,24.84Z"/><polygon class="cls-4" points="97.64 22.76 97.26 24.16 95.53 24.16 95.91 22.76 95.21 22.76 94.23 26.32 94.93 26.32 95.37 24.74 97.1 24.74 96.67 26.32 97.37 26.32 98.35 22.76 97.64 22.76"/><polygon class="cls-4" points="75.34 22.54 74.95 22.54 74.78 23.02 75.16 23.02 75.34 22.54"/><polygon class="cls-4" points="76.16 22.55 75.77 22.55 75.6 23.03 75.98 23.03 76.16 22.55"/><path class="cls-5" d="M107,21.43V7.2a4.72,4.72,0,0,0-4.71-4.7H47.74A4.72,4.72,0,0,0,43,7.2V21.43a4.72,4.72,0,0,0,4.71,4.7h1.5v-.9h-1.5a3.81,3.81,0,0,1-3.81-3.8V7.2a3.81,3.81,0,0,1,3.81-3.8h54.52a3.81,3.81,0,0,1,3.81,3.8V21.43a3.81,3.81,0,0,1-3.81,3.8h-1.5v.9h1.5A4.72,4.72,0,0,0,107,21.43Z"/></svg>