<svg id="Capa_1" data-name="Capa 1" xmlns="http://www.w3.org/2000/svg" viewBox="0 0 150 30"><defs><style>.cls-1{fill:#276f9c;}</style></defs><path class="cls-1" d="M60.27,24.61H36.94a.51.51,0,0,1-.55-.59V4A.54.54,0,0,1,37,3.41H60.12a.76.76,0,0,1,.64.23.45.45,0,0,1,.1.33V23.83a.8.8,0,0,1-.2.62.55.55,0,0,1-.39.16M37,24H60.25a.42.42,0,0,0,0-.19V4H37Z"/><path class="cls-1" d="M54.71,10.27s-.44,0-.07-.75L55.8,6.75s.08-.31.55-.35L58,6.33a.6.6,0,0,0,.62-.42l1-2.29L43.43,3.55l-1,2.36s-.19.37.12.37h1.84s.4,0,.26.32-6.58,14.46-6.58,14.46a3.37,3.37,0,0,0,.64,3.13l17,.18a7.75,7.75,0,0,0,4.82-5l.13-3.9S59.28,11,54.71,10.27m-.89,9.81L44.09,20s-.54,0-.33-.43L49.65,6.65s.13-.29.29-.29h.77s.24-.05.08.36-3.4,7.49-3.4,7.49-.22.44.47.43,5.93.09,5.93.09,2.4-.07,2.4,2.79c0,0-.08,2.53-2.37,2.56"/><path class="cls-1" d="M67.05,13.22V3.33h3.67c1.75,0,2.93.68,2.93,2.57a2.06,2.06,0,0,1-1.09,2v0a2.23,2.23,0,0,1,2,2.52c0,2.07-1.77,2.76-3.58,2.76Zm2.57-6h.28c.69,0,1.39-.12,1.39-1s-.8-1-1.49-1h-.18Zm0,4h.32c.76,0,2,0,2-1.05s-1.27-1.08-2.11-1.08h-.26Z"/><path class="cls-1" d="M86.15,8.09A5.47,5.47,0,1,1,80.69,3a5.25,5.25,0,0,1,5.46,5.09m-8.25,0a2.79,2.79,0,1,0,5.58,0,2.8,2.8,0,0,0-5.58,0"/><polygon class="cls-1" points="90.19 5.5 90.19 7.16 93.08 7.16 93.08 9.34 90.19 9.34 90.19 11.04 93.24 11.04 93.24 13.22 87.63 13.22 87.63 3.33 93.24 3.33 93.24 5.5 90.19 5.5"/><path class="cls-1" d="M102,6.65a2.78,2.78,0,0,0-2.25-1.09A2.61,2.61,0,0,0,97.09,8.3,2.57,2.57,0,0,0,99.77,11,3,3,0,0,0,102,9.94V13a7.34,7.34,0,0,1-2.27.46A5.49,5.49,0,0,1,96,12a4.83,4.83,0,0,1-1.59-3.73,5.14,5.14,0,0,1,1.46-3.62,5.34,5.34,0,0,1,3.76-1.6,6.09,6.09,0,0,1,2.34.49Z"/><path class="cls-1" d="M113.61,8.09A5.47,5.47,0,1,1,108.15,3a5.25,5.25,0,0,1,5.46,5.09m-8.25,0a2.79,2.79,0,1,0,5.58,0,2.8,2.8,0,0,0-5.58,0"/><path class="cls-1" d="M72.93,21.57a3,3,0,0,1-.66,2.24,3.14,3.14,0,0,1-2.36,1.07,3.3,3.3,0,1,1,0-6.59,3.27,3.27,0,0,1,2.69,1.37l-.51.49A2.59,2.59,0,0,0,70,19a2.64,2.64,0,0,0-2.61,2.66,2.55,2.55,0,0,0,.75,1.8,2.69,2.69,0,0,0,1.81.81,2.19,2.19,0,0,0,2.27-2H70.28v-.65Z"/><path class="cls-1" d="M76.23,22.93a1.28,1.28,0,0,0,1.3,1.32,1.36,1.36,0,0,0,1.21-.82l.57.33a2,2,0,0,1-1.83,1.12,1.93,1.93,0,0,1-2-2.05,1.93,1.93,0,1,1,3.82.1Zm2.41-.58a1.23,1.23,0,0,0-1.17-1,1.26,1.26,0,0,0-1.21,1Z"/><path class="cls-1" d="M83,21.23h0a1,1,0,0,1,.88-.54,1.2,1.2,0,0,1,.61.18l-.32.62a.7.7,0,0,0-.41-.18c-.74,0-.78,1-.78,1.47v2h-.67v-4H83Z"/><path class="cls-1" d="M88,21.23h0a1.12,1.12,0,0,1,1-.54,1.2,1.2,0,0,1,1.09.66,1.33,1.33,0,0,1,1.2-.66c1,0,1.26.82,1.26,1.66v2.42h-.67V22.46c0-.51,0-1.15-.73-1.15s-.86.75-.86,1.35v2.11h-.68V22.51c0-.49-.06-1.2-.71-1.2s-.88.8-.88,1.4v2.06h-.67v-4H88Z"/><path class="cls-1" d="M99.52,24.77h-.68v-.55h0a1.67,1.67,0,0,1-1.37.66,2,2,0,0,1-1.9-2.09,1.94,1.94,0,0,1,1.91-2.1,1.72,1.72,0,0,1,1.36.67h0V20.8h.68Zm-3.27-2a1.37,1.37,0,0,0,1.3,1.51,1.36,1.36,0,0,0,1.33-1.5,1.33,1.33,0,0,0-1.34-1.44,1.35,1.35,0,0,0-1.29,1.43"/><path class="cls-1" d="M103.31,21.28h0a1.33,1.33,0,0,1,1.13-.59c1.1,0,1.36.79,1.36,1.72v2.36h-.68V22.53c0-.64,0-1.22-.84-1.22s-1,.86-1,1.57v1.89h-.68v-4h.68Z"/><polygon class="cls-1" points="108.49 20.8 109.28 20.8 110.68 23.64 111.97 20.8 112.73 20.8 109.8 27 109.03 27 110.32 24.4 108.49 20.8"/></svg>