<svg id="Capa_1" data-name="Capa 1" xmlns="http://www.w3.org/2000/svg" viewBox="0 0 150 30"><defs><style>.cls-1{fill:#93c01f;}</style></defs><rect x="65.19" y="9.64" width="2.24" height="10.24" rx="0.29"/><path d="M85.91,9.64H84.1a.29.29,0,0,0-.28.22l-1.1,4.63a.28.28,0,0,1-.55,0L80.85,9.85a.3.3,0,0,0-.28-.21H79.26a.28.28,0,0,0-.27.21l-1.34,4.66a.28.28,0,0,1-.55,0L76,9.86a.29.29,0,0,0-.28-.22h-1.8a.29.29,0,0,0-.27.37l2.58,9.66a.3.3,0,0,0,.28.22H78a.3.3,0,0,0,.28-.21l1.38-4.81a.29.29,0,0,1,.56,0l1.4,4.81a.29.29,0,0,0,.27.21h1.45a.28.28,0,0,0,.27-.22L86.19,10A.29.29,0,0,0,85.91,9.64Z"/><path d="M90.89,9.59A5,5,0,0,0,89,9.9a3.67,3.67,0,0,0-1.4,1.17l-.15.2,1.29,1.36a.29.29,0,0,0,.45,0h0a1.85,1.85,0,0,1,.64-.62,2.2,2.2,0,0,1,1-.17,1.67,1.67,0,0,1,1.2.35,1.63,1.63,0,0,1,.34,1.14v.09a.29.29,0,0,1-.29.29H90.44a3.13,3.13,0,0,0-2.39.86,3.05,3.05,0,0,0-.8,2.16A3.33,3.33,0,0,0,88,18.92a2.73,2.73,0,0,0,1,.73,4.29,4.29,0,0,0,1.44.24c2.68.05,4.14-1.53,4.14-2.67l.05-4.08C94.65,10.82,93.35,9.59,90.89,9.59Zm1.48,6.47a1.89,1.89,0,0,1-.29,1.21,1.1,1.1,0,0,1-.56.37,3.81,3.81,0,0,1-.79.07,1.41,1.41,0,0,1-1-.26,1,1,0,0,1-.28-.79,1,1,0,0,1,.29-.8,1.3,1.3,0,0,1,.92-.28h1.39a.29.29,0,0,1,.29.29Z"/><path d="M110.63,13.9a.27.27,0,0,1,0-.31l2.68-3.51a.28.28,0,0,0-.23-.46H111a.27.27,0,0,0-.23.12l-2.2,3a.29.29,0,0,1-.52-.17V6a.29.29,0,0,0-.29-.29h-1.7a.28.28,0,0,0-.28.29V19.6a.28.28,0,0,0,.28.29h1.7a.29.29,0,0,0,.29-.29V16.94a.27.27,0,0,1,.06-.17l.56-.74a.29.29,0,0,1,.48,0l1.92,3.66a.29.29,0,0,0,.26.16h2.09a.3.3,0,0,0,.26-.43Z"/><path d="M121.13,11A3.49,3.49,0,0,0,120,10a3.55,3.55,0,0,0-3.4.13c-1.3.81-2,2.38-2,4.61a8.07,8.07,0,0,0,.3,2.36,4.33,4.33,0,0,0,.85,1.6,3.06,3.06,0,0,0,1.28.9,4.3,4.3,0,0,0,1.54.27,4.58,4.58,0,0,0,1-.1,3.5,3.5,0,0,0,.86-.3,3.88,3.88,0,0,0,.73-.49,7.22,7.22,0,0,0,.67-.68l.16-.19-1.22-1.33a.29.29,0,0,0-.43,0h0a2.74,2.74,0,0,1-.78.67,2.07,2.07,0,0,1-1,.2,1.52,1.52,0,0,1-1.31-.59,2.48,2.48,0,0,1-.44-1.15.29.29,0,0,1,.29-.33h4.68a.29.29,0,0,0,.29-.29v-.84a7.32,7.32,0,0,0-.24-1.92A4.57,4.57,0,0,0,121.13,11Zm-1.57,2.67h-2.43a.3.3,0,0,1-.29-.32v-.05a2.16,2.16,0,0,1,.15-.53,1.51,1.51,0,0,1,.52-.73,1.31,1.31,0,0,1,.83-.27,1.28,1.28,0,0,1,.82.27,1.49,1.49,0,0,1,.52.74,2.09,2.09,0,0,1,.15.52v.05A.29.29,0,0,1,119.56,13.7Z"/><path d="M131,12.56a4.71,4.71,0,0,0-.72-1.53,3.49,3.49,0,0,0-4.58-.88c-1.3.81-2,2.38-2,4.61a8,8,0,0,0,.3,2.35,4.33,4.33,0,0,0,.85,1.6,3.06,3.06,0,0,0,1.28.9,4.3,4.3,0,0,0,1.54.27,4.64,4.64,0,0,0,1-.1,3.43,3.43,0,0,0,.85-.3,3.65,3.65,0,0,0,.74-.49,6.14,6.14,0,0,0,.66-.68l.17-.19-1.22-1.32a.29.29,0,0,0-.43,0,2.71,2.71,0,0,1-.78.67,2.07,2.07,0,0,1-1,.2,1.52,1.52,0,0,1-1.31-.59,2.43,2.43,0,0,1-.44-1.15.3.3,0,0,1,.29-.33h4.68a.28.28,0,0,0,.29-.28v-.84A7.25,7.25,0,0,0,131,12.56Zm-2.29,1.15h-2.43a.3.3,0,0,1-.29-.32v-.06a2.22,2.22,0,0,1,.15-.52,1.51,1.51,0,0,1,.52-.73,1.31,1.31,0,0,1,.83-.27,1.34,1.34,0,0,1,.82.26,1.57,1.57,0,0,1,.52.75,2.09,2.09,0,0,1,.15.52v0A.29.29,0,0,1,128.67,13.71Z"/><path d="M62.11,10.61a3,3,0,0,0-1-.71,3.61,3.61,0,0,0-1.29-.25,3.41,3.41,0,0,0-2.57,1.21l-.05.06a.28.28,0,0,1-.44,0l-.08-.09a3.27,3.27,0,0,0-2.56-1.18,3.45,3.45,0,0,0-1.29.25,3,3,0,0,0-1,.71,3.72,3.72,0,0,0-.74,1.33,5.45,5.45,0,0,0-.21,1.56v6.1a.29.29,0,0,0,.28.29h1.67a.29.29,0,0,0,.29-.29V13.78a2,2,0,0,1,.4-1.42,1.26,1.26,0,0,1,1-.41,1.4,1.4,0,0,1,.54.1,1.08,1.08,0,0,1,.44.3,1.56,1.56,0,0,1,.31.54,2.41,2.41,0,0,1,.12.8v6.2h1.87A.29.29,0,0,0,58,19.6V13.69a2.41,2.41,0,0,1,.12-.8,1.56,1.56,0,0,1,.31-.54,1.08,1.08,0,0,1,.44-.3,1.45,1.45,0,0,1,.55-.1,1.25,1.25,0,0,1,1,.41,2,2,0,0,1,.4,1.42V19.6a.29.29,0,0,0,.29.29h1.67a.28.28,0,0,0,.28-.29V13.5a5.45,5.45,0,0,0-.21-1.56A3.57,3.57,0,0,0,62.11,10.61Z"/><path d="M103.46,9.62h-1.54a.29.29,0,0,0-.28.29v6.27a1.72,1.72,0,0,1-.4,1.23,1.51,1.51,0,0,1-2.09,0,1.76,1.76,0,0,1-.39-1.23V9.91a.29.29,0,0,0-.29-.29H96.94a.29.29,0,0,0-.29.29v6.34a3.92,3.92,0,0,0,.27,1.47,3.3,3.3,0,0,0,1.88,1.9,3.74,3.74,0,0,0,2.79,0,3.52,3.52,0,0,0,1.13-.74,3.3,3.3,0,0,0,.76-1.16,3.92,3.92,0,0,0,.27-1.47V9.91A.29.29,0,0,0,103.46,9.62Z"/><rect x="69.78" y="5.91" width="2.24" height="13.91" rx="0.29"/><ellipse cx="66.35" cy="7.01" rx="1.16" ry="1.14"/><path class="cls-1" d="M31.42,2.37A12.63,12.63,0,1,0,44.05,15,12.65,12.65,0,0,0,31.42,2.37Zm0,23.12A10.49,10.49,0,1,1,41.92,15,10.5,10.5,0,0,1,31.42,25.49Z"/><path class="cls-1" d="M36.2,11.14a2.75,2.75,0,0,0-.94-.66,3.27,3.27,0,0,0-1.19-.23,3.19,3.19,0,0,0-2.39,1.12l0,0a.3.3,0,0,1-.46,0l-.05-.05a3,3,0,0,0-2.37-1.1,3.08,3.08,0,0,0-1.19.23,2.66,2.66,0,0,0-.94.66A3.5,3.5,0,0,0,26,12.37a5.13,5.13,0,0,0-.2,1.45v5.63a.31.31,0,0,0,.3.3h1.48a.3.3,0,0,0,.3-.3V14.08a1.92,1.92,0,0,1,.37-1.31,1.19,1.19,0,0,1,.9-.39,1.18,1.18,0,0,1,.5.1,1,1,0,0,1,.41.28,1.43,1.43,0,0,1,.29.5,2.06,2.06,0,0,1,.11.74v5.75h1.7a.3.3,0,0,0,.3-.3V14a2,2,0,0,1,.12-.74,1.43,1.43,0,0,1,.29-.5,1.08,1.08,0,0,1,.4-.28,1.25,1.25,0,0,1,.51-.1,1.19,1.19,0,0,1,.9.39A1.92,1.92,0,0,1,35,14.08v5.37a.3.3,0,0,0,.3.3h1.48a.31.31,0,0,0,.3-.3V13.82a5.13,5.13,0,0,0-.2-1.45A3.5,3.5,0,0,0,36.2,11.14Z"/></svg>