<svg id="Capa_1" data-name="Capa 1" xmlns="http://www.w3.org/2000/svg" viewBox="0 0 150 53"><defs><style>.cls-1{fill:#046aa6;}</style></defs><path class="cls-1" d="M124.88,32.55C123,26.25,121,20,118.78,13.76A15.82,15.82,0,0,0,104,3.51q-28.65,0-57.3,0A15.93,15.93,0,0,0,32,13.64c-1,2.63-1.82,5.33-2.68,8-1.16,3.6-2.51,7.15-3.37,10.81a12.54,12.54,0,0,0,12.3,15.36h73.85a12.93,12.93,0,0,0,8.07-2.63C124,42.24,126.18,36.8,124.88,32.55ZM113.71,44.76a88.45,88.45,0,0,1-9.36.18q-14.58,0-29.16,0h0c-11.06,0-22.13,0-33.19,0a36.49,36.49,0,0,1-5.92-.35,9.45,9.45,0,0,1-7.57-8.69,14.49,14.49,0,0,1,.9-5.38c1-2.82,1.82-5.67,2.76-8.49a70,70,0,0,1,2.89-8.21c2.39-5,6.64-7.44,12.09-7.46q28.31-.12,56.61,0C109.6,6.4,114,9.5,116.24,15c1,2.41,1.62,5,2.42,7.44,1.06,3.34,2.2,6.66,3.19,10A9.56,9.56,0,0,1,113.71,44.76Z"/><path class="cls-1" d="M78.2,10.33a32.49,32.49,0,0,0-10-2A83.37,83.37,0,0,0,59,8.43a34.68,34.68,0,0,0-11.46,3.1,23.42,23.42,0,0,0-7.44,5.17c-4.5,4.89-4.64,10.57-.36,15.67a21.93,21.93,0,0,0,8.21,5.78c5.23,2.3,10.75,3.19,17.26,3.28,1.12-.1,3.07-.17,5-.45A51.51,51.51,0,0,0,76,39.79c5-1.32,9.51-3.51,13-7.47a11,11,0,0,0,.15-15A24.57,24.57,0,0,0,78.2,10.33ZM88.14,31a21.39,21.39,0,0,1-8.42,6,36.57,36.57,0,0,1-10.65,2.64A43.77,43.77,0,0,1,55.75,39c-4.93-1-9.6-2.7-13.42-6.13-3.22-2.9-5-6.39-3.68-10.82a11.84,11.84,0,0,1,4.28-5.91A30.05,30.05,0,0,1,57.65,10.2c2.28-.34,4.6-.42,6.9-.62A39.5,39.5,0,0,1,77.3,11.63c4.27,1.43,8.26,3.47,11.1,7.22A9.56,9.56,0,0,1,88.14,31Z"/><path class="cls-1" d="M76.35,12.58a42,42,0,0,0-20.2-.94c-4.64.9-9.06,2.42-12.72,5.56a36.25,36.25,0,0,0-2.8,3l.21.23h47.3c-.78-.94-1.32-1.73-2-2.4A22.34,22.34,0,0,0,76.35,12.58Zm-7.31,3A24.09,24.09,0,0,1,65,16c-1.73,0-1.73,0-1.94,1.72-.07.62-.19,1.24-.3,1.9H60.1c.32-2.46.61-4.84,1-7.22a.84.84,0,0,1,.6-.56c2.18,0,4.35.07,6.53.15a2.71,2.71,0,0,1,1,.27c.76.34,1.45.76,1.43,1.74A1.69,1.69,0,0,1,69,15.55Z"/><path class="cls-1" d="M63.4,13.17c.22.57-.76,1.36.42,1.48a15.58,15.58,0,0,0,3.2-.06c.37,0,.7-.46,1-.72-.35-.23-.69-.64-1.07-.67C65.86,13.11,64.72,13.17,63.4,13.17Z"/><polygon class="cls-1" points="74.26 22.86 75.81 22.86 75.81 35.56 78.16 34.3 78.16 22.86 79.72 22.86 79.72 21.41 74.26 21.41 74.26 22.86"/><path class="cls-1" d="M81.19,32.61a20.74,20.74,0,0,0,2.06-1.8V26.7h1v3a21.56,21.56,0,0,0,2-2.59v-5.6H81.12Zm2.06-9.77h1v2.42h-1Z"/><path class="cls-1" d="M72.46,21.4H68.67a1,1,0,0,0-1,.9l-.79,14.16a.81.81,0,0,0,1,.84l4.41-.82a.45.45,0,0,0,.37-.44V32.93a.32.32,0,0,0-.32-.33H70.79a.3.3,0,0,0-.3.3l0,2.41-1.15,0,.56-12.49h1V24a.29.29,0,0,0,.28.29h1.52a.35.35,0,0,0,.34-.35v-2A.5.5,0,0,0,72.46,21.4Z"/><path class="cls-1" d="M59.52,37.13a.43.43,0,0,0,.43.47l5.39,0V36.06h-3.4l1-9.46h3.35V25.25H63.1l.29-2.47h3.19V21.43l-5.22-.07Z"/><path class="cls-1" d="M55.5,35.53l1.88-14s-1.66,0-2,0L53,36a.49.49,0,0,0,.3.53,15.58,15.58,0,0,0,4.81.78V35.81A16.37,16.37,0,0,1,55.5,35.53Z"/><path class="cls-1" d="M48.8,32.4,50,26.67l3.23.06.37-1.51H50.26l.51-2.5h3.37V21.43l-5.22,0L46.35,33.54c1.22,1.11,5.39,2.51,5.39,2.51l.17-1.93C48.68,32.81,48.8,32.4,48.8,32.4Z"/><path class="cls-1" d="M46.52,25.4l-2.13-2.35a.23.23,0,0,1,0-.24.22.22,0,0,1,.19-.12H45a.21.21,0,0,1,.21.16l.12.42c0,.08.13.08.22.09h1.54c.15,0,.37-.19.37-.82v-.8a.42.42,0,0,0-.36-.34H43a.21.21,0,0,0-.17.1,4.06,4.06,0,0,0-.71,1.68c0,.11.33.45.6.76.52.59,1.14,1.3,1.53,1.73a1.08,1.08,0,0,1,.24.93l-.37,1.87c-.09.26-.27.39-.51.07l-1-1.57a.08.08,0,0,1,0,0l-.73-2a.09.09,0,0,0-.17,0L41,27.48v.05c0,.15,0,.69.93,1.77l2.29,2.85a.67.67,0,0,0,1.19-.31l1.11-5.18C46.61,26.16,46.77,25.7,46.52,25.4Z"/></svg>