<svg id="Capa_1" data-name="Capa 1" xmlns="http://www.w3.org/2000/svg" viewBox="0 0 150 30"><defs><style>.cls-1{fill:#555;}.cls-2{fill:#1db0e6;}</style></defs><path class="cls-1" d="M77.27,3.7H62.52V17.75h3.33V12.3H77.37a1.94,1.94,0,0,0,2-1.92V5.72A2,2,0,0,0,77.27,3.7ZM75.88,8.88A1.06,1.06,0,0,1,74.82,10H65.87V6.18h8.91a1.11,1.11,0,0,1,1.1,1.11Z"/><polygon class="cls-1" points="82.48 17.75 98.32 17.75 98.32 15.2 85.91 15.2 85.91 11.66 93.1 11.66 93.1 9.37 85.85 9.37 85.85 6.18 98.32 6.18 98.32 3.7 82.48 3.7 82.48 17.75"/><path class="cls-1" d="M117.3,12.3a2.2,2.2,0,0,0,2.19-2.2V5.72a2,2,0,0,0-2-2H103V17.75h3.27V12.3h3.37l6.69,5.45h4.93L114,12.3ZM106.24,9.73V6h8.91a1.11,1.11,0,0,1,1.11,1.1v1.6a1.07,1.07,0,0,1-1.06,1.06Z"/><path class="cls-1" d="M142.2,17.75l-8-14h-3.06l-8,14.05h3.19L128,14.69h9.42L139,17.75Zm-9.51-5.45h-3.31l3.31-5.94L136,12.3Z"/><path class="cls-1" d="M50,3.7H48.52l-8,14.05h3.18l1.61-3.06h9.42l1.62,3.06h3.18l-8-14Zm0,8.6H46.73L50,6.36l3.32,5.94Z"/><path class="cls-2" d="M20.48,4.8,7.71,27H22.94s1.61-2.9,1.72-3.08c.48-.83,1-.59,1.35.09.06.1,1.59,3,1.59,3h4.26l-5.52-9.67a1.22,1.22,0,0,0-2.12,0l-4.56,7.79H13.3L22,10c.79-1.35,1.45-1.32,2.23,0L34.09,27h4.4L25.5,4.43C23.94,2.13,21.68,2.63,20.48,4.8Z"/><path class="cls-1" d="M68.92,22.89h-.33a.21.21,0,0,0-.2.2v3.78a.2.2,0,0,0,.06.14.18.18,0,0,0,.14.06h.33a.21.21,0,0,0,.2-.2V23.09a.21.21,0,0,0-.2-.2Z"/><path class="cls-1" d="M73.07,23.76a.21.21,0,0,0-.14-.09s-.09,0-.09.11v3.09a.21.21,0,0,0,.2.2h.27a.17.17,0,0,0,.14-.06.2.2,0,0,0,.06-.14V24.36a.29.29,0,0,0-.07-.17Z"/><path class="cls-1" d="M76.78,22.89h-.26a.21.21,0,0,0-.21.21v3L73.59,23a.27.27,0,0,0-.16-.08H73a.1.1,0,0,0-.11.1.17.17,0,0,0,0,.13l3.31,3.8a.4.4,0,0,0,.14.11.56.56,0,0,0,.15,0h.29a.2.2,0,0,0,.15-.06.18.18,0,0,0,.06-.14V23.1a.21.21,0,0,0-.21-.21Z"/><path class="cls-1" d="M84.16,24.93a1.16,1.16,0,0,0-.39-.26,1.37,1.37,0,0,0-.49-.09H81.83a.46.46,0,0,1-.37-.16.52.52,0,0,1-.14-.36.49.49,0,0,1,.15-.36.46.46,0,0,1,.36-.15h1.49a.45.45,0,0,1,.34.13.58.58,0,0,1,.16.31.13.13,0,0,0,.14.13h.34a.13.13,0,0,0,.15-.14.92.92,0,0,0-.11-.43,1.39,1.39,0,0,0-.28-.35,1.3,1.3,0,0,0-.38-.22,1.06,1.06,0,0,0-.42-.09h-1.4a1.19,1.19,0,0,0-.46.1,1.13,1.13,0,0,0-.63.63,1.18,1.18,0,0,0-.09.46,1.19,1.19,0,0,0,.09.47,1.25,1.25,0,0,0,.25.38,1.42,1.42,0,0,0,.38.26,1.18,1.18,0,0,0,.46.09h1.43a.56.56,0,0,1,.56.56.57.57,0,0,1-.16.4.51.51,0,0,1-.4.17h-1.5a.5.5,0,0,1-.38-.15.58.58,0,0,1-.17-.34.13.13,0,0,0-.15-.14h-.38a.13.13,0,0,0-.15.14,1,1,0,0,0,.11.46,1.33,1.33,0,0,0,.69.6,1.12,1.12,0,0,0,.44.09h1.48a1.34,1.34,0,0,0,.49-.1,1.36,1.36,0,0,0,.39-.27,1,1,0,0,0,.27-.39,1.13,1.13,0,0,0,.1-.49,1.16,1.16,0,0,0-.1-.49A1.18,1.18,0,0,0,84.16,24.93Z"/><path class="cls-1" d="M89.5,23.87h-.31a.25.25,0,0,0-.15.05.2.2,0,0,0-.06.15v2.8A.18.18,0,0,0,89,27a.2.2,0,0,0,.15.06h.31a.2.2,0,0,0,.15-.06.24.24,0,0,0,0-.14v-2.8a.18.18,0,0,0-.2-.2Z"/><path class="cls-1" d="M91.18,22.89H87.51a.23.23,0,0,0-.2.2v.26a.21.21,0,0,0,.2.2h3.67a.19.19,0,0,0,.21-.2v-.26a.18.18,0,0,0-.06-.13A.18.18,0,0,0,91.18,22.89Z"/><path class="cls-1" d="M97.2,25.43a1.23,1.23,0,0,0,.31-.14,1.42,1.42,0,0,0,.31-.29,1.2,1.2,0,0,0,.2-.37,1.27,1.27,0,0,0,.08-.44,1.33,1.33,0,0,0-1.3-1.3H94.44a.18.18,0,0,0-.15.07.22.22,0,0,0-.05.14v3.77a.24.24,0,0,0,.05.14.2.2,0,0,0,.15.06h.31A.2.2,0,0,0,94.9,27a.18.18,0,0,0,.06-.14V23.55h1.76a.68.68,0,0,1,.47.19.59.59,0,0,1,.2.46.57.57,0,0,1-.2.46.64.64,0,0,1-.47.19H95.49a.18.18,0,0,0-.14.06.17.17,0,0,0-.06.14v.24a.2.2,0,0,0,.06.15.18.18,0,0,0,.14.06h.89l1.05,1.42a.32.32,0,0,0,.12.11.3.3,0,0,0,.14,0h.5a.09.09,0,0,0,.1-.1s0-.07,0-.09Z"/><path class="cls-1" d="M105.36,22.89H105a.19.19,0,0,0-.2.21v3.31H102.3V23.1a.19.19,0,0,0-.2-.21h-.33a.2.2,0,0,0-.14.06.2.2,0,0,0-.06.15v3.48a.48.48,0,0,0,.14.34.49.49,0,0,0,.35.15h3a.51.51,0,0,0,.49-.49V23.1a.2.2,0,0,0-.06-.15A.2.2,0,0,0,105.36,22.89Z"/><path class="cls-1" d="M113.78,22.89h-.42a.22.22,0,0,0-.17.09l-1.61,1.95-1.66-2a.3.3,0,0,0-.2-.08h-.24a.17.17,0,0,0-.14.07.18.18,0,0,0-.06.14v3.77a.21.21,0,0,0,.2.2h.23a.2.2,0,0,0,.15-.06.17.17,0,0,0,.06-.14v-3l1.48,1.71a.12.12,0,0,0,0,.05.22.22,0,0,0,.26,0l.05-.05,2.09-2.5a.25.25,0,0,0,.05-.11A.11.11,0,0,0,113.78,22.89Z"/><path class="cls-1" d="M113.8,23.67s-.09,0-.14.09l-.39.45a.31.31,0,0,0-.07.16v2.5a.2.2,0,0,0,.06.14.2.2,0,0,0,.15.06h.27a.22.22,0,0,0,.15-.06.18.18,0,0,0,.06-.14V23.78C113.89,23.7,113.84,23.67,113.8,23.67Z"/><path class="cls-1" d="M118.85,24.57a.22.22,0,0,0-.14.05.2.2,0,0,0-.06.15V25a.2.2,0,0,0,.06.15.22.22,0,0,0,.14.05h2a.22.22,0,0,0,.14-.05A.21.21,0,0,0,121,25v-.24a.21.21,0,0,0-.07-.15.22.22,0,0,0-.14-.05Z"/><path class="cls-1" d="M121.07,26.41h-2.73V23.55H121a.2.2,0,0,0,.15-.06.18.18,0,0,0,.06-.14V23.1a.21.21,0,0,0-.21-.21h-3.22a.2.2,0,0,0-.14.06.2.2,0,0,0-.06.15v3.77a.21.21,0,0,0,.2.2h3.26a.21.21,0,0,0,.2-.2v-.25a.2.2,0,0,0-.06-.15A.2.2,0,0,0,121.07,26.41Z"/><path class="cls-1" d="M124.78,23.76c-.06-.06-.1-.09-.14-.09s-.09,0-.09.11v3.09a.24.24,0,0,0,0,.14.2.2,0,0,0,.15.06H125a.2.2,0,0,0,.15-.06.19.19,0,0,0,0-.14V24.36a.35.35,0,0,0-.06-.17Z"/><path class="cls-1" d="M128.49,22.89h-.27a.21.21,0,0,0-.21.21v3L125.29,23a.23.23,0,0,0-.16-.08h-.48a.1.1,0,0,0-.11.1.21.21,0,0,0,0,.13l3.31,3.8A.53.53,0,0,0,128,27a.53.53,0,0,0,.16,0h.29a.18.18,0,0,0,.14-.06.16.16,0,0,0,.07-.14V23.1a.2.2,0,0,0-.06-.15A.24.24,0,0,0,128.49,22.89Z"/><path class="cls-1" d="M135.42,22.89h-3.67a.18.18,0,0,0-.15.07.21.21,0,0,0,0,.13v.26a.24.24,0,0,0,0,.14.2.2,0,0,0,.15.06h3.67a.18.18,0,0,0,.2-.2v-.26a.21.21,0,0,0-.05-.13A.18.18,0,0,0,135.42,22.89Z"/><path class="cls-1" d="M133.74,23.87h-.32a.24.24,0,0,0-.14.05.2.2,0,0,0-.06.15v2.8a.18.18,0,0,0,.06.14.2.2,0,0,0,.14.06h.32a.17.17,0,0,0,.14-.06.2.2,0,0,0,.06-.14v-2.8a.2.2,0,0,0-.06-.15A.2.2,0,0,0,133.74,23.87Z"/><path class="cls-1" d="M142.2,25.33a1.56,1.56,0,0,0-.27-.4,1.31,1.31,0,0,0-.4-.26,1.28,1.28,0,0,0-.48-.09H139.6a.44.44,0,0,1-.37-.16.53.53,0,0,1,0-.72.46.46,0,0,1,.36-.15h1.49a.45.45,0,0,1,.34.13.52.52,0,0,1,.16.31.13.13,0,0,0,.14.13h.34a.13.13,0,0,0,.15-.14.92.92,0,0,0-.11-.43,1.2,1.2,0,0,0-.28-.35,1.3,1.3,0,0,0-.38-.22,1,1,0,0,0-.41-.09h-1.4a1.24,1.24,0,0,0-.47.1,1.21,1.21,0,0,0-.37.25,1.22,1.22,0,0,0-.26.38,1.18,1.18,0,0,0-.09.46,1.19,1.19,0,0,0,.09.47,1.12,1.12,0,0,0,.26.38,1.23,1.23,0,0,0,.37.26,1.19,1.19,0,0,0,.47.09h1.43a.51.51,0,0,1,.39.17.51.51,0,0,1,.16.39.57.57,0,0,1-.16.4.51.51,0,0,1-.39.17h-1.5a.49.49,0,0,1-.38-.15.6.6,0,0,1-.18-.34.13.13,0,0,0-.14-.14h-.39a.13.13,0,0,0-.15.14.93.93,0,0,0,.12.46,1.12,1.12,0,0,0,.29.36,1.41,1.41,0,0,0,.39.24,1.2,1.2,0,0,0,.45.09h1.48a1.29,1.29,0,0,0,.48-.1,1.56,1.56,0,0,0,.4-.27,1.23,1.23,0,0,0,.27-.39,1.3,1.3,0,0,0,.09-.49A1.33,1.33,0,0,0,142.2,25.33Z"/></svg>