<svg id="Capa_1" data-name="Capa 1" xmlns="http://www.w3.org/2000/svg" viewBox="0 0 150 30"><defs><style>.cls-1,.cls-2{fill:#004d92;}.cls-2{fill-rule:evenodd;}</style></defs><polygon class="cls-1" points="27.98 21 30.6 21 30.6 8.61 30.64 8.61 33.15 21 35.38 21 37.9 8.61 37.93 8.61 37.93 21 40.55 21 40.55 5.47 36.33 5.47 34.28 16.43 34.24 16.43 32.22 5.47 27.98 5.47 27.98 21 27.98 21"/><polygon class="cls-1" points="42.65 21 45.27 21 45.27 8.61 45.31 8.61 47.83 21 50.05 21 52.57 8.61 52.61 8.61 52.61 21 55.23 21 55.23 5.47 51 5.47 48.96 16.43 48.92 16.43 46.9 5.47 42.65 5.47 42.65 21 42.65 21"/><polygon class="cls-1" points="57.33 21 59.95 21 59.95 8.61 59.98 8.61 62.5 21 64.73 21 67.25 8.61 67.28 8.61 67.28 21 69.9 21 69.9 5.47 65.68 5.47 63.63 16.43 63.59 16.43 61.57 5.47 57.33 5.47 57.33 21 57.33 21"/><path class="cls-1" d="M85.73,10.07c0-3.14-1.27-4.9-4.41-4.9-3.65,0-4.76,2.67-4.76,7.87,0,5.39.7,8.27,4.21,8.27a3.11,3.11,0,0,0,3-1.74h0V21h2.1V12.61H81.26v2.3h1.89v1.6c0,1.68-1.09,2.49-1.77,2.49-1.64,0-2-2.36-2-6.11S80,7.48,81.36,7.48c1.15,0,1.63,1.45,1.63,2.59Z"/><path class="cls-1" d="M87.65,21h2.73V14a1.93,1.93,0,0,1,2-2.11c.27,0,.57,0,.85,0V9a4.21,4.21,0,0,0-.5,0,2.78,2.78,0,0,0-2.46,1.87h0V9.3H87.65V21Z"/><path class="cls-2" d="M93.88,15.15c0,4.07.92,6.22,4.21,6.16,3.13,0,4.2-2.16,4.2-6.16s-.91-6.22-4.2-6.15-4.21,2.15-4.21,6.15Zm2.74,0c0-2.39.12-4.11,1.47-4.11,1.11,0,1.47,1.2,1.47,4.11s-.36,4.11-1.47,4.11c-1.35,0-1.47-1.72-1.47-4.11Z"/><path class="cls-1" d="M109.23,21h2.62V9.3h-2.74v7.77c0,1.3-.52,1.93-1.45,1.93s-1.17-.46-1.17-1.63V9.3h-2.73V18c0,2.3,1,3.33,2.71,3.33a2.89,2.89,0,0,0,2.72-1.68h0V21Z"/><path class="cls-2" d="M116.41,15.15c0-2.54.24-3.85,1.45-3.85s1.43,1.31,1.43,3.85S119.05,19,117.86,19s-1.45-1.3-1.45-3.85Zm-2.74,9.68h2.74V19.92h0a2.53,2.53,0,0,0,2.3,1.39c2.24,0,3.27-1.81,3.27-6.16S121,9,118.75,9a2.56,2.56,0,0,0-2.42,1.54h0V9.3h-2.62V24.83Z"/></svg>