<svg id="Capa_1" data-name="Capa 1" xmlns="http://www.w3.org/2000/svg" viewBox="0 0 150 30"><defs><style>.cls-1{fill:#064f9d;}</style></defs><path class="cls-1" d="M19.07,15.3v-.17a5.46,5.46,0,0,0,3.3-5.3c0-5.94-5.54-6.16-6.24-6.16H2.81V26.88H16.13c3.39,0,6.5-2.1,6.5-6.44A5,5,0,0,0,19.07,15.3ZM7,7.11h7.79a2.92,2.92,0,0,1,3.1,3.17,2.92,2.92,0,0,1-2.65,3.13H7Zm7.7,16.32H7V16.85h8a3.1,3.1,0,0,1,3,3.25C18,23.27,14.7,23.43,14.7,23.43Z"/><path class="cls-1" d="M76.52,15.28v-.17a5.46,5.46,0,0,0,3.3-5.3c0-5.93-5.54-6.16-6.24-6.16H60.26V26.86H73.58c3.39,0,6.5-2.1,6.5-6.44A5,5,0,0,0,76.52,15.28ZM64.45,7.1h7.79a2.92,2.92,0,0,1,3.11,3.16,2.91,2.91,0,0,1-2.66,3.13H64.45Zm7.7,16.32h-7.7V16.84h8a3.09,3.09,0,0,1,3,3.25C75.43,23.25,72.15,23.42,72.15,23.42Z"/><rect class="cls-1" x="26.32" y="3.67" width="4.26" height="23.21"/><path class="cls-1" d="M46.6,3.5H44.24A10.69,10.69,0,0,0,37.1,6.36c-2.83,2.8-2.83,7.53-2.83,7.53V16.7s0,4.73,2.83,7.53a10.65,10.65,0,0,0,7.14,2.85H46.6a10.65,10.65,0,0,0,7.14-2.85c2.83-2.8,2.83-7.53,2.83-7.53V13.89s0-4.73-2.83-7.53A10.69,10.69,0,0,0,46.6,3.5Zm3.77,18.2a5.68,5.68,0,0,1-4.25,2.05H44.74a5.7,5.7,0,0,1-4.26-2.05c-1.64-2-1.53-5.4-1.53-5.4v-2s-.11-3.39,1.53-5.4a5.7,5.7,0,0,1,4.26-2.05h1.38a5.68,5.68,0,0,1,4.25,2.05c1.65,2,1.54,5.4,1.54,5.4v2S52,19.69,50.37,21.7Z"/><path class="cls-1" d="M90.45,3.65,80.9,26.86h4.86l2.18-5.73H98l2.24,5.73h4.74L95.66,3.65Zm-1.38,14L93,7.65l3.79,10Z"/><path class="cls-1" d="M119.72,13.19h-5.46c-1.14,0-3.35-.34-3.35-2.91a3,3,0,0,1,3.29-3.12h11.37V3.65H113.38c-.61,0-7.08.42-7.08,6.83s5.75,6.4,6.47,6.4H119a3.08,3.08,0,0,1,3.15,3.18,3.06,3.06,0,0,1-3.38,3.38H107.29v3.42h12.19c1.44,0,7.32,0,7.32-7C126.8,12.72,119.72,13.19,119.72,13.19Z"/><path class="cls-1" d="M139,7.15v0h8.24V3.65H139a9.85,9.85,0,0,0-7,2.81c-2.64,2.81-2.83,7.41-2.83,7.41v2.77s0,4.75,2.74,7.55a9.88,9.88,0,0,0,7,2.68h8.24V23.4H139v0a5.19,5.19,0,0,1-3.79-1.95A9.16,9.16,0,0,1,133.87,17h13.32V13.55H133.87c.06-1.14.32-3.31,1.29-4.47A5.83,5.83,0,0,1,139,7.15Z"/></svg>