<svg id="Capa_1" data-name="Capa 1" xmlns="http://www.w3.org/2000/svg" viewBox="0 0 150 30"><defs><style>.cls-1,.cls-3{fill:#0066b3;}.cls-1,.cls-2{fill-rule:evenodd;}.cls-2{fill:#f58220;}</style></defs><path class="cls-1" d="M119,3.89l-1.12,7.22c2.37-1.38,8.28-2.24,11-.75,1.81,1,2,3.59,1.58,6.12l-2.06,11h-5.55l1.6-11.24c.69-4.11-5.3-4.3-7-2.32l-2.27,13.56h-6.18l3.87-23.59Z"/><path class="cls-1" d="M99.42,25H107l-.2,1.12-.21,1.32H96.35a4,4,0,0,1-2.7-.84c-3.25-2.34-3.2-7.22-.93-11.27a13,13,0,0,1,2.85-3.5,5.9,5.9,0,0,1,4.67-1.82h9.25l-.3,1.84-.13.63h-6.31a3.09,3.09,0,0,0-1.86.35C97.1,14.83,94.32,25,99.42,25"/><path class="cls-1" d="M48.12,3.79H54.3l-.73,4.1H47.39Zm5.15,6.33L50.22,27.48H44l3.05-17.36Z"/><polygon class="cls-1" points="44.66 3.89 40.79 27.48 34.59 27.48 38.48 3.89 44.66 3.89"/><path class="cls-1" d="M61.78,9.93h5l-.41,2.46H61.35c-.54,3.13-1.17,6.74-1.71,9.81-.28,2.55,1.54,3.81,3.83,3.46l-.3,1.84H57.26c-3.5,0-4.23-2.92-3.71-5.82L56.29,5.75l6.53-1.94c-.39,2.22-.65,3.87-1,6.12"/><path class="cls-1" d="M81.56,17.1a8.3,8.3,0,0,1-7.26,1.73c3.82,2.55,11.33,1.69,14.42-1.94,1.6-1.88,1.49-4.26-2-6a13.84,13.84,0,0,0-2.4-.91,18.45,18.45,0,0,0-9,.06c-4.08,1.06-7.78,3.51-8.93,7.55,1.3-3.24,7.92-6,12.39-5.64,3,.23,5.77,2.4,2.83,5.14"/><path class="cls-2" d="M77.09,27.46A19.49,19.49,0,0,0,90,21c-3.09,3.43-13.36,5.85-16.43,1-1.94-3.07-1.27-7.82,2.62-9.14C63.77,14.14,63,28.3,77.09,27.46"/><path class="cls-1" d="M21.9,24.15H32.23L32,25.66l-.28,1.82H17.75a5.4,5.4,0,0,1-3.66-1.15c-4.38-3.13-4.34-9.77-1.27-15.24a17.52,17.52,0,0,1,3.87-4.73C18.87,4.48,20.08,3.92,23,3.92H35.54L35.13,6.4,35,7.24H26.39a4.38,4.38,0,0,0-2.5.46c-1.91,1-3.61,3.5-4.67,6.29l14.85.09-.41,2.5-.17.85L18.31,17.3c-.61,3.63.24,6.85,3.59,6.85"/><path class="cls-1" d="M132.67,5.91A3.35,3.35,0,1,0,136,2.5a3.38,3.38,0,0,0-3.35,3.41m.47,0A2.88,2.88,0,1,1,136,8.85a2.9,2.9,0,0,1-2.88-2.94"/><path class="cls-3" d="M136.05,4.32h.15a2.08,2.08,0,0,1,.64.09.64.64,0,0,1,.35.3,1,1,0,0,1,.13.48.78.78,0,0,1-.22.57,1.07,1.07,0,0,1-.67.28.9.9,0,0,1,.25.17,2.08,2.08,0,0,1,.34.42l.55.87h-.52l-.42-.65a2.34,2.34,0,0,0-.3-.44,1.58,1.58,0,0,0-.2-.22l-.06,0V5.74h.06a1.06,1.06,0,0,0,.44-.06.43.43,0,0,0,.23-.19.55.55,0,0,0,.09-.28.47.47,0,0,0-.16-.37.73.73,0,0,0-.5-.15h-.16V4.32ZM134.81,7.5V4.32h1.24v.35h-.82V5.73h.82v.41l-.12,0h-.72v1.4h-.4Z"/><path class="cls-3" d="M134.75,4.26v3.3h.55V6.16h.42l.21,0,.17.08.2.2.3.44.44.7h.68l-.6-1-.35-.44-.14-.08a1.05,1.05,0,0,0,.56-.27.86.86,0,0,0,.23-.62,1.1,1.1,0,0,0-.13-.51.86.86,0,0,0-.39-.34,2.15,2.15,0,0,0-.65-.08h-1.5Zm1.45.13a1.54,1.54,0,0,1,.6.08.6.6,0,0,1,.32.29.82.82,0,0,1,.12.43.7.7,0,0,1-.2.52,1,1,0,0,1-.62.27h-.19l.4.25.34.41.47.76h-.37c0-.06-.39-.63-.39-.63l-.3-.44-.21-.23L136,6l-.25,0h-.54V7.43h-.28v-3Z"/><path class="cls-3" d="M135.16,4.61V5.79h1l.46-.06.27-.22.1-.32a.53.53,0,0,0-.18-.42.84.84,0,0,0-.55-.15h-1.06Zm1.06.13a.72.72,0,0,1,.46.13.43.43,0,0,1,.14.32l-.07.25-.2.17-.42.07h-.82V4.76h.91Z"/></svg>