<?xml version="1.0" encoding="utf-8"?>
<!-- Generator: Adobe Illustrator 25.4.1, SVG Export Plug-In . SVG Version: 6.00 Build 0)  -->
<svg version="1.1" id="Capa_1" xmlns="http://www.w3.org/2000/svg" xmlns:xlink="http://www.w3.org/1999/xlink" x="0px" y="0px"
	 viewBox="0 0 289.2 54" style="enable-background:new 0 0 289.2 54;" xml:space="preserve">
<style type="text/css">
	.st0{fill:#2CB4AE;}
	.st1{fill:#FFFFFF;}
</style>
<path class="st0" d="M53.9,23.5l-2.3-1.2l4.3-3.9c3-4.9,1.8-9.4-3.2-12.1c-2.5-1.4-5.3-2.2-8.2-2.6C41.8,3.2,39,3,36.2,2.9H24.1
	v19.2l-8.6-1.5v-9.5c0-4.4-3.6-8-8-8H3.4v41.7h4.4c4.2,0,7.7-3.4,7.7-7.7V28l7.2,1.2c0.8,0.1,1.5,0.9,1.5,1.7v12.1
	c0,4.5,3.6,8.1,8.1,8.1h0h4v-42h4c1.6,0,3.2,0.4,4.6,1.3c1.2,0.9,1.8,2.3,1.6,3.8C46,16.5,43.8,18,42,19.1c-1.2,0.7-4.3,2.4-4.3,2.4
	c0.1,0.8,0.7,3.5,0.7,3.5c0.4,0,0.8,0,1.2,0.1c3.1,0.4,5.2,1.7,5.3,5.4v6.1c0,4.7,3.8,8.5,8.5,8.5c0,0,0,0,0,0h3.5V28.6
	C56.4,26.6,55.4,24.8,53.9,23.5z"/>
<path class="st1" d="M83.5,20.8c-1.1-0.5-2.3-0.7-3.5-0.6h-6.7v11.9h2v-4.5h5c0.6-0.1,1.3,0.1,1.8,0.4c0.3,0.4,0.5,1,0.4,1.5v2.6
	h2.1v-3c0-0.6-0.1-1.2-0.5-1.7c-0.2-0.3-0.5-0.5-0.9-0.6c0.3-0.1,0.6-0.3,0.8-0.5c0.3-0.4,0.5-1,0.5-1.5v-1.7
	C84.7,22.2,84.3,21.3,83.5,20.8z M75.3,21.8h4.5c0.8-0.1,1.6,0,2.4,0.3c0.4,0.3,0.6,0.7,0.5,1.2v1.3c0.1,0.5-0.1,0.9-0.5,1.2
	c-0.7,0.3-1.6,0.4-2.4,0.3h-4.5V21.8z"/>
<polygon class="st1" points="87.9,32.1 98.5,32.1 98.5,30.5 89.8,30.5 89.8,26.8 98.3,26.8 98.3,25.2 89.8,25.2 89.8,21.8 
	98.5,21.8 98.5,20.2 87.9,20.2 "/>
<path class="st1" d="M111.1,20.8c-1.1-0.5-2.3-0.7-3.5-0.6h-6.3v11.9h2v-4.5h4.4c1.2,0.1,2.4-0.1,3.5-0.6c0.7-0.5,1.1-1.4,1-2.2
	v-1.7C112.2,22.2,111.8,21.3,111.1,20.8z M103.2,21.8h4.4c0.7-0.1,1.4,0,2.1,0.3c0.3,0.2,0.5,0.6,0.4,1v1.7c0,0.4-0.1,0.8-0.4,1
	c-0.6,0.3-1.4,0.4-2,0.3h-4.4V21.8z"/>
<path class="st1" d="M125.2,20.8c-1.1-0.5-2.3-0.7-3.5-0.6h-6.8v11.9h2v-4.5h5c0.6-0.1,1.3,0.1,1.8,0.4c0.3,0.4,0.5,1,0.4,1.5v2.6
	h2.1v-3c0-0.6-0.1-1.2-0.5-1.7c-0.2-0.3-0.5-0.5-0.9-0.6c0.3-0.1,0.6-0.3,0.8-0.5c0.4-0.4,0.5-1,0.5-1.5v-1.7
	C126.3,22.2,125.9,21.3,125.2,20.8z M116.9,21.8h4.5c0.8-0.1,1.6,0,2.4,0.3c0.4,0.3,0.5,0.7,0.5,1.2v1.3c0.1,0.5-0.1,0.9-0.5,1.2
	c-0.7,0.3-1.6,0.4-2.4,0.3h-4.5V21.8z"/>
<polygon class="st1" points="129.5,32.1 140.2,32.1 140.2,30.5 131.5,30.5 131.5,26.8 139.9,26.8 139.9,25.2 131.5,25.2 131.5,21.8 
	140.2,21.8 140.2,20.2 129.5,20.2 "/>
<path class="st1" d="M151,25.4l-4.6-0.3c-0.5,0-1-0.1-1.4-0.4c-0.3-0.4-0.4-0.8-0.3-1.2c-0.1-0.5,0.1-1.1,0.5-1.5
	c0.9-0.3,1.8-0.5,2.7-0.4c1,0,2,0,3,0.1c0.4,0,0.7,0.1,1,0.3c0.1,0.1,0.2,0.3,0.2,0.4c0.1,0.3,0.1,0.6,0.1,0.9v0.5h2v-0.2
	c0-0.1,0-0.1,0-0.2c0-0.1,0-0.2,0-0.4c0-0.5-0.1-0.9-0.2-1.3c-0.1-0.4-0.4-0.7-0.7-0.9c-0.5-0.3-1-0.5-1.6-0.6
	c-1.1-0.1-2.1-0.2-3.2-0.2H148c-1,0-1.9,0-2.8,0.1c-0.5,0.1-0.9,0.2-1.3,0.5c-0.4,0.3-0.7,0.6-0.9,1.1c-0.2,0.5-0.3,1.1-0.3,1.7
	c-0.1,0.9,0.2,1.7,0.8,2.4c0.9,0.6,1.9,0.9,2.9,0.8l4.5,0.3c0.4,0,0.8,0.1,1.2,0.3c0.1,0.1,0.3,0.4,0.3,1.5c0,0.3,0,0.6-0.1,1
	c0,0.2-0.1,0.3-0.2,0.4c-0.3,0.2-0.6,0.3-0.9,0.4c-0.6,0.1-1.2,0.1-1.8,0.1c-1.5,0-2.6,0-3-0.1c-0.4,0-0.7-0.1-1-0.2
	c-0.3-0.1-0.5-0.3-0.6-0.6c-0.1-0.5-0.2-1-0.2-1.4V28h-2v0.7c0,0.6,0.1,1.1,0.3,1.7c0.2,0.4,0.5,0.8,0.9,1.1c0.4,0.3,1,0.5,1.5,0.6
	c1,0.1,1.9,0.2,2.9,0.2h0.7c1.1,0,2.2,0,3.3-0.2c0.6-0.1,1.1-0.3,1.5-0.7c0.3-0.3,0.5-0.6,0.7-1c0.2-0.6,0.2-1.2,0.2-1.8
	c0.1-0.9-0.2-1.7-0.8-2.4C152.9,25.7,152,25.4,151,25.4z"/>
<polygon class="st1" points="157.8,32.1 168.4,32.1 168.4,30.5 159.8,30.5 159.8,26.8 168.2,26.8 168.2,25.2 159.8,25.2 159.8,21.8 
	168.4,21.8 168.4,20.2 157.8,20.2 "/>
<polygon class="st1" points="181.6,30.2 174,20.3 173.9,20.2 171.2,20.2 171.2,32.1 173.2,32.1 173.2,22.2 180.8,32 180.8,32.1 
	183.6,32.1 183.6,20.2 181.6,20.2 "/>
<polygon class="st1" points="196.6,20.2 185.3,20.2 185.3,21.8 190,21.8 190,32.1 191.9,32.1 191.9,21.8 196.6,21.8 "/>
<path class="st1" d="M203.5,20.2h-2.9L195,32.1h2.1l1.4-3h7.2l1.4,3h2.1l-5.6-11.8L203.5,20.2z M202.2,21.8l2.8,5.9h-5.8l2.7-5.9
	H202.2z"/>
<path class="st1" d="M221.3,20.9c-1.2-0.6-2.6-0.9-3.9-0.8h-1.7c-1.4-0.1-2.7,0.2-3.9,0.9c-0.9,0.8-1.3,2-1.2,3.2v3.9
	c-0.1,1.2,0.3,2.4,1.2,3.2c1.2,0.7,2.5,1,3.9,0.9h1.7c1.4,0.1,2.7-0.1,3.9-0.8c0.8-0.7,1.3-1.7,1.2-2.8v-0.9h-2v0.2
	c0,0.1,0,0.1,0,0.2c0,0.1,0,0.2,0,0.3c0.1,0.7-0.1,1.3-0.6,1.8c-0.8,0.4-1.7,0.5-2.6,0.5h-1.2c-0.6,0-1.3,0-1.9-0.1
	c-0.3-0.1-0.6-0.2-0.9-0.4c-0.2-0.2-0.4-0.4-0.5-0.7c-0.1-0.5-0.2-1.1-0.2-1.7v-3.3c0-0.6,0-1.1,0.2-1.7c0.1-0.3,0.3-0.5,0.5-0.7
	c0.3-0.2,0.6-0.3,0.9-0.4c0.6-0.1,1.3-0.1,1.9-0.1h1.2c0.9-0.1,1.8,0.1,2.6,0.4c0.5,0.4,0.7,1,0.6,1.6v0.5h2v-0.6
	C222.7,22.6,222.2,21.5,221.3,20.9z"/>
<rect x="225.4" y="20.2" class="st1" width="2" height="11.9"/>
<path class="st1" d="M237.9,20.1h-1.8c-1.5-0.1-2.9,0.2-4.2,0.9c-0.9,0.8-1.3,2-1.2,3.2v3.9c-0.1,1.2,0.3,2.4,1.2,3.2
	c1.3,0.7,2.8,1,4.2,0.9h1.8c1.5,0.1,2.9-0.2,4.2-0.9c0.9-0.8,1.4-2,1.3-3.2v-3.9c0.1-1.2-0.3-2.4-1.2-3.2
	C240.9,20.3,239.4,19.9,237.9,20.1z M232.6,24.5c0-0.6,0-1.1,0.2-1.7c0.1-0.3,0.3-0.5,0.5-0.7c0.3-0.2,0.7-0.3,1-0.4
	c0.7-0.1,1.4-0.2,2.2-0.1h0.9c0.7,0,1.4,0,2.2,0.1c0.4,0.1,0.7,0.2,1,0.4c0.3,0.2,0.4,0.4,0.5,0.7c0.1,0.5,0.2,1.1,0.2,1.7v3.3
	c0,0.6,0,1.1-0.2,1.7c-0.1,0.3-0.3,0.5-0.5,0.7c-0.3,0.2-0.7,0.4-1,0.4c-0.7,0.1-1.4,0.1-2.2,0.1h-0.9c-0.7,0-1.4,0-2.2-0.1
	c-0.4-0.1-0.7-0.2-1-0.4c-0.2-0.2-0.4-0.4-0.5-0.6c-0.1-0.5-0.2-1.1-0.2-1.6L232.6,24.5z"/>
<polygon class="st1" points="257,30.2 249.4,20.3 249.4,20.2 246.6,20.2 246.6,32.1 248.6,32.1 248.6,22.2 256.2,32 256.2,32.1 
	259,32.1 259,20.2 257,20.2 "/>
<polygon class="st1" points="262.7,32.1 273.3,32.1 273.3,30.5 264.7,30.5 264.7,26.8 273.1,26.8 273.1,25.2 264.7,25.2 264.7,21.8 
	273.3,21.8 273.3,20.2 262.7,20.2 "/>
<path class="st1" d="M286.9,26.3c-0.8-0.6-1.7-0.8-2.6-0.8l-4.6-0.3c-0.5,0-0.9-0.1-1.3-0.4c-0.3-0.4-0.4-0.8-0.3-1.2
	c-0.1-0.5,0.1-1.1,0.5-1.5c0.9-0.3,1.8-0.5,2.7-0.4c1,0,2,0,2.9,0.1c0.4,0,0.7,0.1,1,0.3c0.1,0.1,0.2,0.3,0.2,0.4
	c0.1,0.3,0.1,0.6,0.1,0.9v0.5h2v-0.2c0,0,0-0.1,0-0.2v-0.4c0-0.5-0.1-0.9-0.2-1.3c-0.1-0.4-0.4-0.7-0.7-0.9c-0.5-0.3-1-0.5-1.6-0.6
	c-1.1-0.2-2.1-0.2-3.2-0.2h-0.5c-1,0-1.9,0-2.8,0.1c-0.5,0.1-0.9,0.2-1.3,0.5c-0.4,0.3-0.7,0.6-0.9,1.1c-0.2,0.5-0.3,1.1-0.3,1.7
	c-0.1,0.9,0.2,1.7,0.8,2.4c0.9,0.6,1.9,0.9,2.9,0.8l4.5,0.3c0.4,0,0.8,0.1,1.2,0.3c0.1,0.1,0.3,0.4,0.3,1.5c0,0.3,0,0.6-0.1,1
	c0,0.2-0.1,0.3-0.2,0.4c-0.3,0.2-0.6,0.3-0.9,0.4c-0.6,0.1-1.3,0.1-1.9,0.1c-1.5,0-2.5,0-3-0.1c-0.4,0-0.7-0.1-1-0.2
	c-0.3-0.1-0.5-0.3-0.6-0.6c-0.1-0.5-0.2-1-0.2-1.4v-0.4h-2v0.7c0,0.6,0.1,1.1,0.3,1.7c0.2,0.4,0.5,0.8,0.9,1.1
	c0.4,0.3,0.9,0.5,1.5,0.6c1,0.1,1.9,0.2,2.9,0.2h0.7c1.1,0,2.2,0,3.3-0.2c0.6-0.1,1.1-0.3,1.5-0.7c0.3-0.3,0.6-0.6,0.7-1
	c0.1-0.6,0.2-1.2,0.2-1.8C287.7,27.7,287.5,26.9,286.9,26.3z"/>
</svg>
